<svg width="355" height="687" viewBox="0 0 355 687" fill="none" xmlns="http://www.w3.org/2000/svg">
<g id="Female-Back">
<g id="Forearms">
<path d="M65.0127 315.775L54.5127 329.275L48.0127 326.275L38.0127 322.275L58.5127 250.775C61.5495 244.809 63.3264 241.646 67.0127 237.275C71.2772 232.743 73.6875 231.081 78.0127 229.275C77.9478 233.722 77.9601 236.395 78.0127 241.275C78.2617 246.386 78.8998 249.362 80.5127 254.775C87.7989 251.055 91.582 248.623 97.0127 242.775C96.7339 264.916 87.8989 281.1 65.0127 315.775Z" fill="#D9D9D9"/>
<path d="M300.513 329.775L288.513 315.775C259.58 271.779 255.483 256.739 255.513 242.775C261.668 249.079 265.596 252.678 272.013 254.775C274.585 252.096 275.594 249.316 276.013 240.275V229.275C281.967 231.798 284.681 233.564 288.513 237.275C292.702 243.643 293.655 246.162 295.513 250.775L316.013 322.775L307.013 326.775L300.513 329.775Z" fill="#D9D9D9"/>
</g>
<path id="Forearms (Stroke)" d="M276.208 228.815C282.21 231.358 284.978 233.156 288.86 236.916L288.9 236.954L288.931 237C292.618 242.606 293.82 245.261 295.312 248.938L295.977 250.588L295.986 250.613L295.993 250.638L316.612 323.055L316.216 323.232L307.222 327.228L300.723 330.229L300.379 330.387L288.133 316.1L288.112 316.077L288.095 316.049C259.157 272.047 254.983 256.898 255.013 242.774L255.016 241.549L255.87 242.425C261.924 248.625 265.753 252.128 271.864 254.197C272.985 252.982 273.774 251.723 274.34 249.772C274.948 247.676 275.304 244.776 275.513 240.275V228.52L276.208 228.815ZM78.5127 229.282C78.4479 233.723 78.4591 236.391 78.5117 241.268C78.7498 246.133 79.3459 249.033 80.8232 254.052C87.7253 250.503 91.4027 248.082 96.6465 242.435L97.5293 241.484L97.5127 242.781C97.2318 265.088 88.3073 281.388 65.4297 316.05L65.4189 316.067L65.4072 316.082L54.9072 329.582L54.6641 329.895L54.3027 329.729L47.8027 326.729L37.8271 322.739L37.4072 322.572L58.0322 250.637L58.0449 250.591L58.0674 250.548C61.1101 244.57 62.9076 241.368 66.6309 236.953L66.6396 236.942L66.6484 236.932C70.952 232.359 73.4189 230.651 77.8203 228.814L78.5234 228.52L78.5127 229.282ZM256.021 244.007C256.244 257.488 260.858 272.809 288.913 315.473L300.646 329.162L306.299 326.552C296.412 309.885 288.11 296.317 282.094 284.788C276.098 273.297 272.338 263.769 271.545 255.145C265.494 253.097 261.604 249.679 256.021 244.007ZM96.4844 244.06C91.5306 249.221 87.761 251.621 81.0254 255.073C81.3865 263.04 77.8779 272.614 72.0449 284.207C66.1821 295.859 57.9119 309.665 48.7139 326.047L54.3613 328.654L64.6055 315.484C87.0419 281.489 95.884 265.38 96.4844 244.06ZM276.43 241.869C276.212 245.537 275.867 248.098 275.301 250.05C274.676 252.206 273.783 253.613 272.531 254.953C273.286 263.399 276.973 272.814 282.98 284.326C288.992 295.846 297.29 309.405 307.215 326.137L315.385 322.506C306.555 297.948 302.62 283.153 276.43 241.869ZM77.6025 242.794C52.2977 280.932 47.81 297.06 38.6475 321.991L47.791 325.648C57.0308 309.188 65.2907 295.405 71.1514 283.757C77.0503 272.033 80.4544 262.586 80.0156 254.856C78.5706 250.001 77.9044 247.075 77.6025 242.794ZM76.2598 243.01C71.7218 245.926 68.7053 247.601 66.248 248.707C63.5299 249.929 61.5042 250.451 58.916 251.181L42.4727 308.532C49.2006 290.118 55.9669 273.696 76.2598 243.01ZM277.895 242.313C298.307 274.597 305.009 290.595 311.297 308.037L295.138 251.282C292.434 251.304 289.805 250.319 286.833 248.567C284.247 247.043 281.358 244.913 277.895 242.313ZM276.513 240.025C280.901 243.323 284.336 245.935 287.341 247.706C290.101 249.332 292.447 250.214 294.773 250.279C293.098 246.114 292.053 243.572 288.125 237.596C284.516 234.107 281.92 232.373 276.513 230.034V240.025ZM77.5029 230.036C73.6857 231.701 71.3651 233.379 67.3809 237.613C63.9548 241.678 62.2001 244.684 59.4814 249.982C61.686 249.364 63.4877 248.851 65.8369 247.794C68.5344 246.581 71.9614 244.645 77.5098 241.004C77.4626 236.578 77.4513 233.963 77.5029 230.036Z" fill="black"/>
<g id="Triceps">
<path d="M80.5127 254.775C78.9374 249.066 78.2334 246.054 78.0127 241.775V229.275C73.1271 231.37 71.4199 232.609 68.0127 236.275C67.7519 231.134 67.6336 227.723 68.0127 223.775C70.6077 206.913 75.8705 198.624 81.5127 191.775C89.9427 191.093 94.2751 189.705 100.487 185.769C103.511 183.56 106.846 181.288 110.513 178.775L113.013 192.775C111.672 224.737 106.709 229.862 97.0127 242.775C92.1781 248.178 88.2625 250.67 80.5127 254.775Z" fill="#D9D9D9"/>
<path d="M272.013 254.775C265.896 252.576 262.249 249.687 255.513 242.775C242.026 224.161 240.918 214.1 239.513 192.775L242.013 178.775C247.865 182.326 253.097 185.467 257.624 188.777C262.418 191.321 266.981 192.552 274.013 192.275C278.047 200.688 284.308 209.798 285.513 223.775C286.352 227.29 286.048 230.389 286.513 235.275C282.263 231.682 280.736 231.182 276.013 229.275V240.775C275.73 248.92 274.776 251.821 272.013 254.775Z" fill="#D9D9D9"/>
</g>
<path id="Triceps (Stroke)" d="M113.505 192.687L113.515 192.741L113.512 192.795C112.841 208.793 111.263 218.129 108.613 225.096C105.963 232.067 102.246 236.637 97.4123 243.075L97.3996 243.092L97.385 243.108C92.4927 248.575 88.5168 251.101 80.7463 255.216L80.1965 255.508L80.0305 254.908C78.4533 249.192 77.7365 246.137 77.5129 241.8V230.038C75.4618 230.941 74.027 231.694 72.7463 232.595C71.3258 233.595 70.0751 234.791 68.3791 236.616L67.5734 237.482L67.5129 236.3C67.2521 231.159 67.1319 227.716 67.5149 223.727L67.5168 223.713L67.5188 223.699C70.1289 206.738 75.4346 198.367 81.1272 191.457L81.2609 191.293L81.4729 191.277C85.6688 190.937 88.8181 190.424 91.6809 189.516C94.5368 188.61 97.1293 187.303 100.206 185.354C103.231 183.145 106.565 180.874 110.219 178.37C110.223 178.367 110.226 178.365 110.23 178.363L110.868 177.924L113.505 192.687ZM242.272 178.347C248.103 181.886 253.345 185.032 257.885 188.349C262.59 190.841 267.061 192.048 273.993 191.775L274.321 191.762L274.463 192.059C278.461 200.395 284.785 209.621 286.007 223.697C286.431 225.486 286.566 227.166 286.653 228.987C286.74 230.826 286.779 232.801 287.01 235.228L287.126 236.449L286.19 235.657C284.079 233.872 282.664 232.872 281.202 232.083C279.877 231.366 278.506 230.817 276.513 230.015V240.784L276.512 240.792C276.37 244.873 276.06 247.686 275.422 249.862C274.778 252.06 273.805 253.591 272.378 255.117L272.154 255.357L271.844 255.246C265.62 253.008 261.908 250.054 255.154 243.124L255.129 243.098L255.108 243.068C248.341 233.729 244.66 226.508 242.501 218.928C240.346 211.362 239.716 203.463 239.014 192.808L239.01 192.747L239.021 192.687L241.649 177.969L242.272 178.347ZM240.016 192.801C240.717 203.441 241.345 211.22 243.463 218.655C245.579 226.082 249.189 233.191 255.896 242.453C262.481 249.208 266.054 252.046 271.87 254.19C273.083 252.844 273.903 251.493 274.463 249.581C275.064 247.531 275.372 244.821 275.513 240.757V217.323C273.046 203.671 266.756 196.081 257.352 189.198C253.136 186.955 248.704 183.688 242.372 179.602L240.016 192.801ZM110.16 179.645C106.4 182.367 103.418 184.502 100.771 186.18C95.1907 190.256 90.7027 194.095 87.133 198.825C83.5719 203.543 80.9077 209.173 79.009 216.85L78.5129 229.275V241.765C78.7237 245.828 79.3757 248.732 80.8303 254.039C88.1866 250.122 91.9705 247.655 96.6262 242.456C101.481 235.991 105.091 231.545 107.679 224.741C110.268 217.934 111.839 208.739 112.51 192.805L110.16 179.645ZM77.9807 217.552C72.8034 219.823 70.4062 221.25 68.4973 223.955C68.1655 227.504 68.2392 230.635 68.4543 235.08C69.7895 233.69 70.9095 232.664 72.1701 231.777C73.6156 230.76 75.2272 229.936 77.5246 228.941L77.9807 217.552ZM276.513 228.937C278.691 229.815 280.213 230.411 281.678 231.203C282.991 231.912 284.252 232.776 285.914 234.129C285.767 232.197 285.725 230.543 285.654 229.035C285.569 227.266 285.44 225.688 285.056 224.027C283.222 222.185 281.811 220.954 280.428 220.02C279.205 219.194 277.993 218.591 276.513 218.003V228.937ZM261.311 191.004C268.977 197.347 274.213 204.796 276.451 216.908C278.172 217.566 279.57 218.233 280.988 219.191C282.206 220.014 283.427 221.044 284.877 222.447C283.426 209.517 277.636 200.898 273.704 192.785C268.657 192.952 264.856 192.335 261.311 191.004ZM95.1223 189.275C94.0903 189.733 93.0556 190.129 91.9826 190.469C89.0691 191.393 85.8958 191.911 81.7668 192.253C76.4378 198.751 71.4646 206.592 68.8147 221.972C70.8158 219.807 73.4783 218.416 78.0891 216.414C80.0116 208.727 82.7105 203.025 86.3352 198.222C88.8248 194.923 91.7428 192.06 95.1223 189.275Z" fill="black"/>
<g id="Rear Delts">
<path d="M110.513 178.775C97.844 187.847 93.7319 190.921 81.0127 191.775C80.4911 181.04 79.9953 178.289 81.0127 165.775C84.9133 140.908 94.7468 133.601 110.513 131.275L132.013 153.275C125.223 164.55 120.868 170.422 110.513 178.775Z" fill="#D9D9D9"/>
<path d="M274.013 192.275C262.854 192.941 258.337 189.448 242.013 178.775C234.505 172.473 230.032 167.855 220.513 153.275L243.013 131.275C265.404 133.208 273.009 145.717 274.013 165.775C274.648 177.862 274.529 180.571 274.048 191.48L274.013 192.275Z" fill="#D9D9D9"/>
</g>
<path id="Rear Delts (Stroke)" d="M243.056 130.777C254.34 131.751 261.983 135.4 266.919 141.411C271.843 147.407 274.008 155.674 274.512 165.749L274.622 167.914C275.132 178.229 274.999 181.265 274.547 191.502L274.493 192.748L274.042 192.774C268.388 193.111 264.386 192.392 259.739 190.23C255.132 188.086 249.879 184.517 241.739 179.194L241.714 179.177L241.691 179.158C234.139 172.819 229.635 168.161 220.094 153.548L219.87 153.205L242.828 130.757L243.056 130.777ZM132.371 152.925L132.64 153.202L132.441 153.533C125.631 164.84 121.241 170.764 110.827 179.165L110.816 179.173L110.804 179.181C104.485 183.707 100.248 186.775 95.9975 188.808C91.7226 190.852 87.4482 191.844 81.0463 192.274L80.5385 192.308L80.5131 191.799C79.9918 181.071 79.4937 178.287 80.5141 165.735L80.516 165.716L80.519 165.698C82.4766 153.217 85.9338 145.059 90.9486 139.729C95.9724 134.389 102.498 131.951 110.44 130.78L110.692 130.743L132.371 152.925ZM221.157 153.344C230.49 167.605 234.92 172.167 242.309 178.371C250.479 183.713 255.642 187.221 260.161 189.324C264.52 191.352 268.267 192.062 273.533 191.797L273.548 191.458C274.029 180.56 274.148 177.868 273.513 165.801C273.014 155.818 270.874 147.801 266.147 142.045C261.464 136.343 254.177 132.782 243.197 131.794L221.157 153.344ZM110.333 131.808C102.627 132.976 96.435 135.358 91.6772 140.415C86.8619 145.533 83.4528 153.455 81.5092 165.828C80.5126 178.093 80.9727 180.923 81.4848 191.238C87.5193 190.796 91.549 189.827 95.5658 187.906C99.7145 185.922 103.864 182.92 110.204 178.38C120.394 170.159 124.728 164.371 131.383 153.347L110.333 131.808Z" fill="black"/>
<path id="Traps" d="M110.513 131.275C117.689 129.738 116.03 130.216 121.513 128.275C139.478 119.265 147.1 113.841 153.513 103.275C154.924 99.3793 155.754 96.8477 158.513 84.7749L163.013 67.7749C164.133 62.4438 165.029 60.897 167.013 60.2749H176.013H185.013C187.008 61.0153 187.735 63.1532 189.013 67.7749L193.513 84.7749C195.812 95.4132 197.002 99.152 199.013 103.275C209.178 115.785 216.446 121.093 232.013 128.275C238.07 130.819 236.98 130.192 243.013 131.275L220.513 153.275C208.374 164.443 207.575 176.308 207.013 198.275C190.052 243.137 185.275 252.422 176.513 262.275C168.059 253.29 162.49 241.971 146.013 198.275C143.942 175.967 142.117 164.386 132.013 153.275L110.513 131.275Z" fill="#D9D9D9"/>
<path id="Traps (Stroke)" d="M185.103 59.7749L185.187 59.8062C186.342 60.235 187.104 61.0719 187.73 62.3491C188.192 63.2901 188.596 64.503 189.037 66.021L189.494 67.6421L189.496 67.647L193.996 84.647L193.999 84.6577L194.001 84.6694C196.289 95.2543 197.469 98.9578 199.437 103.003C204.488 109.216 208.809 113.626 213.788 117.374C218.779 121.13 224.449 124.234 232.214 127.817C235.245 129.09 236.447 129.551 237.639 129.836C238.863 130.13 240.034 130.232 243.101 130.783L244.056 130.955L220.862 153.632L220.852 153.643C208.887 164.65 208.076 176.299 207.513 198.288L207.511 198.373L207.48 198.452C190.527 243.294 185.721 252.673 176.887 262.607L176.523 263.015L176.148 262.618C167.612 253.545 162.011 242.119 145.545 198.452L145.521 198.388L145.515 198.321C143.443 176.01 141.623 164.593 131.655 153.625L109.521 130.976L110.408 130.786C114.013 130.014 115.367 129.755 116.518 129.444C117.657 129.136 118.581 128.782 121.314 127.814C139.22 118.833 146.733 113.464 153.062 103.052C154.452 99.214 155.281 96.6734 158.025 84.6636L158.027 84.6548L158.029 84.647L162.529 67.647C163.088 64.9949 163.601 63.2183 164.249 62.021C164.922 60.7779 165.745 60.1481 166.863 59.7974L166.937 59.7749H185.103ZM167.099 60.7749C166.267 61.0486 165.666 61.5037 165.129 62.4966C164.555 63.5572 164.062 65.2126 163.502 67.8774L163.496 67.9028L158.996 84.9028C156.238 96.9695 155.403 99.5232 153.982 103.445L153.966 103.492L153.94 103.535C147.452 114.226 139.721 119.703 121.737 128.722L121.709 128.736L121.68 128.747C118.955 129.711 117.97 130.087 116.778 130.409C115.697 130.701 114.433 130.952 111.505 131.575L132.37 152.925L132.377 152.932L132.383 152.939C142.602 164.177 144.437 175.91 146.504 198.161C162.397 240.305 168.109 252.214 176.009 260.988L175.514 60.7749H167.099ZM177.009 260.948C185.158 251.511 190.146 241.469 206.515 198.176C207.076 176.286 207.876 164.221 220.174 152.907L241.965 131.599C239.66 131.204 238.514 131.075 237.405 130.809C236.12 130.501 234.84 130.005 231.819 128.736L231.812 128.733L231.804 128.729C224.006 125.132 218.261 121.992 213.187 118.172C208.11 114.351 203.723 109.865 198.625 103.59L198.589 103.545L198.563 103.494C196.527 99.3171 195.327 95.5317 193.029 84.9028L188.529 67.9028C187.888 65.5845 187.399 63.9434 186.833 62.7896C186.295 61.6931 185.716 61.0946 184.917 60.7749H176.514L177.009 260.948Z" fill="black"/>
<path id="Lats" d="M207.013 198.275C207.733 174.249 209.574 162.816 220.513 153.275C229.046 166.896 232.436 170.252 242.013 178.775L240.013 190.275L225.013 255.275L207.513 289.275C190.703 298.296 183.875 306.352 176.513 326.275C167.898 305.962 160.913 298.005 145.013 289.275L125.513 255.275L112.513 190.275L110.513 178.775C118.874 171.989 123.567 167.684 132.013 153.275C141.392 163.587 144.079 174.271 146.013 198.775C153.588 219.238 158.166 230.696 167.013 249.678C172.717 257.634 175.195 260.934 176.513 261.775C177.752 260.899 180.943 256.627 185.513 249.678C196.531 226.363 202.795 211.119 207.013 198.275Z" fill="#D9D9D9"/>
<path id="Lats (Stroke)" d="M132.383 152.939C141.874 163.375 144.57 174.199 146.505 198.664C154.058 219.064 158.628 230.503 167.446 249.424C170.285 253.384 172.317 256.178 173.803 258.087C174.548 259.045 175.149 259.774 175.643 260.311C175.984 260.683 176.266 260.951 176.496 261.14C176.734 260.924 177.044 260.603 177.421 260.166C177.955 259.546 178.605 258.723 179.363 257.706C180.875 255.676 182.802 252.888 185.076 249.43C196.062 226.184 202.309 210.982 206.515 198.187C207.236 174.225 209.074 162.587 220.184 152.898L220.625 152.513L220.937 153.009C225.198 159.812 228.163 164.031 231.25 167.61C234.337 171.189 237.556 174.14 242.345 178.402L242.553 178.586L240.505 190.361L240.503 190.375L225.5 255.387L225.486 255.448L225.457 255.503L207.886 289.642L207.749 289.715C199.374 294.21 193.525 298.444 188.853 304.008C184.178 309.576 180.654 316.509 176.981 326.448L176.545 327.631L176.053 326.47C171.754 316.333 167.877 309.319 163.115 303.756C158.357 298.199 152.692 294.061 144.772 289.713L144.648 289.646L144.579 289.524L125.079 255.524L125.038 255.453L125.022 255.373L112.022 190.373L112.02 190.361L110.021 178.861L109.97 178.572L110.197 178.386C114.374 174.996 117.611 172.245 120.855 168.553C124.101 164.86 127.367 160.211 131.581 153.022L131.925 152.435L132.383 152.939ZM166.993 250.506C156.667 263.509 152.298 272.464 145.641 289.052C153.421 293.357 159.091 297.517 163.875 303.106C168.372 308.359 172.066 314.852 176.013 323.856V262.034C175.686 261.787 175.321 261.439 174.906 260.987C174.386 260.42 173.765 259.668 173.013 258.702C171.577 256.856 169.645 254.201 166.993 250.506ZM185.537 250.547C183.419 253.753 181.609 256.364 180.165 258.302C179.399 259.33 178.733 260.174 178.178 260.819C177.732 261.336 177.339 261.744 177.013 262.017V323.548C180.37 314.894 183.723 308.563 188.087 303.366C192.798 297.755 198.658 293.496 206.888 289.045C200.926 273.548 196.28 264.936 185.537 250.547ZM125.986 255.096L144.934 288.133C151.535 271.727 155.977 262.719 166.429 249.608C157.753 230.978 153.183 219.563 145.783 199.594C140.983 203.404 136.868 205.972 131.852 205.208C126.941 204.459 121.306 200.537 113.354 191.937L125.986 255.096ZM239.047 192.236C235.52 196.46 232.457 199.593 229.706 201.795C226.609 204.275 223.878 205.599 221.298 205.952C216.31 206.633 212.12 203.652 207.241 199.166C203.034 211.834 196.827 226.891 186.093 249.619C196.919 264.081 201.653 272.749 207.578 288.055L224.539 255.103L239.047 192.236ZM220.404 154.039C210.067 163.314 208.235 174.508 207.52 198.063C212.606 202.786 216.559 205.589 221.162 204.96C223.498 204.641 226.064 203.43 229.081 201.015C232.079 198.616 235.494 195.05 239.543 190.059L241.473 178.962C236.798 174.8 233.583 171.845 230.493 168.263C227.435 164.717 224.51 160.568 220.404 154.039ZM132.096 154.116C128.029 161.004 124.819 165.558 121.606 169.213C118.363 172.904 115.131 175.665 111.055 178.978L112.979 190.045C121.528 199.502 127.25 203.495 132.003 204.219C136.662 204.929 140.533 202.515 145.492 198.548C143.593 174.648 140.956 164.105 132.096 154.116Z" fill="black"/>
<g id="Obliques">
<path d="M207.513 289.275C217.615 301.603 225.997 307.445 237.013 315.275L222.013 279.775C221.446 276.818 222.126 270.226 225.013 255.275L207.513 289.275Z" fill="#D9D9D9"/>
<path d="M145.013 289.275C137.211 300.324 129.107 305.954 116.013 315.275L128.013 279.775C128.636 274.714 127.912 268.857 125.513 255.275L145.013 289.275Z" fill="#D9D9D9"/>
</g>
<path id="Obliques (Stroke)" d="M225.504 255.37C224.062 262.841 223.172 268.213 222.714 272.082C222.26 275.919 222.237 278.231 222.495 279.632L238.159 316.703L236.723 315.682C225.705 307.851 217.274 301.976 207.126 289.592L206.918 289.338L224.568 255.046L225.504 255.37ZM145.605 289.303L145.421 289.563C137.563 300.692 129.387 306.368 116.303 315.682L115.045 316.578L127.521 279.665C128.124 274.703 127.415 268.917 125.021 255.362L125.946 255.026L145.605 289.303ZM126.494 257.991C128.5 269.599 129.098 275.057 128.509 279.836L128.503 279.886L128.486 279.935L116.981 313.969C129.245 305.242 136.982 299.689 144.419 289.245L126.494 257.991ZM208.107 289.209C217.63 300.773 225.627 306.566 235.864 313.843L221.552 279.969L221.531 279.921L221.521 279.869C221.222 278.308 221.261 275.854 221.722 271.964C222.111 268.675 222.807 264.326 223.88 258.566L208.107 289.209Z" fill="black"/>
<path id="Glutes" d="M116.013 315.275C127.778 307.142 135.837 301.693 145.013 289.275C161.965 298.356 168.177 307.248 176.513 326.275C184.488 305.586 191.355 297.606 207.513 289.275C217.844 301.992 226.255 307.712 237.013 315.275L247.013 345.775C235.694 347.924 230.446 350.658 229.513 367.275C230.732 369.764 231.492 375.973 228.013 378.275C224.533 380.577 221.305 384.929 210.513 385.775C194.395 386.83 187.133 378.653 176.513 369.775C166.443 378.666 159.83 385.353 142.513 385.775C131.494 386.131 126.533 380.405 123.513 378.275C121.972 375.759 120.886 373.516 122.513 367.275C122.362 351.466 116.514 349.734 106.013 345.775L116.013 315.275Z" fill="#D9D9D9"/>
<path id="Glutes (Stroke)" d="M145.249 288.834C153.766 293.397 159.615 297.928 164.381 303.728C168.955 309.294 172.511 316.006 176.484 324.974C180.317 315.206 183.95 308.296 188.562 302.819C193.352 297.128 199.171 293.013 207.283 288.831L207.645 288.644L207.9 288.959C218.184 301.618 226.545 307.304 237.3 314.866L237.437 314.961L237.488 315.119L247.488 345.619L247.665 346.16L247.106 346.266C241.444 347.341 237.455 348.543 234.733 351.442C232.029 354.323 230.492 358.976 230.019 367.179C230.641 368.521 231.117 370.71 231.024 372.867C230.929 375.082 230.226 377.411 228.289 378.692C227.44 379.254 226.612 379.936 225.635 380.694C224.667 381.444 223.578 382.248 222.253 383.005C219.594 384.526 216.016 385.845 210.552 386.273L210.545 386.274C194.358 387.334 186.916 379.169 176.52 370.436C171.645 374.748 167.499 378.581 162.475 381.387C157.319 384.267 151.255 386.061 142.528 386.274C131.3 386.637 126.173 380.762 123.225 378.683L123.141 378.625L123.086 378.536C122.308 377.265 121.608 376.006 121.331 374.25C121.058 372.514 121.205 370.338 122.012 367.218C121.93 359.403 120.44 355.189 117.784 352.428C115.087 349.625 111.132 348.239 105.836 346.243L105.389 346.074L105.537 345.619L115.537 315.119L115.59 314.959L115.729 314.864C127.492 306.732 135.488 301.323 144.61 288.978L144.867 288.63L145.249 288.834ZM207.385 289.906C199.528 293.989 193.933 297.991 189.327 303.462C184.659 309.007 180.98 316.091 177.013 326.37V369.542C187.418 378.263 194.467 386.061 209.742 385.318L210.48 385.276C215.804 384.858 219.235 383.579 221.757 382.137C223.022 381.414 224.068 380.643 225.021 379.904C225.965 379.172 226.847 378.447 227.737 377.858C229.28 376.837 229.936 374.91 230.025 372.824C230.115 370.746 229.632 368.656 229.063 367.495L229.006 367.377L229.014 367.247C229.482 358.91 231.035 353.92 234.004 350.757C236.871 347.703 240.98 346.443 246.36 345.392L236.588 315.587C225.983 308.133 217.602 302.406 207.385 289.906ZM145.153 289.92C136.066 302.116 128.017 307.585 116.436 315.589L106.637 345.475C111.637 347.355 115.698 348.817 118.505 351.735C121.429 354.774 122.937 359.316 123.013 367.27L123.014 367.336L122.996 367.401C122.192 370.485 122.072 372.532 122.318 374.094C122.558 375.614 123.15 376.718 123.889 377.93C126.984 380.153 131.79 385.621 142.496 385.275H142.501C151.089 385.066 156.99 383.305 161.986 380.514C166.948 377.742 171.036 373.948 176.013 369.549V326.379C171.867 316.925 168.26 310.025 163.607 304.363C159.015 298.775 153.383 294.37 145.153 289.92Z" fill="black"/>
<g id="Hamstrings">
<path d="M106.513 462.775C102.525 426.474 103.689 407.178 123.513 378.275C128.68 382.612 131.872 384.719 140.013 385.775C144.728 385.887 147.352 385.656 152.013 384.775C159.465 419.4 160.789 430.808 159.013 447.775C155.776 462.381 153.384 471.303 140.013 498.775C139.833 495.218 139.559 492.015 139.103 488.775C137.589 496.475 134.241 500.339 128.513 507.275C122.9 499.095 121.921 495.529 121.463 489.775C120.352 491.892 119.238 493.802 118.013 495.775C112.207 486.371 109.749 478.985 106.513 462.775Z" fill="#D9D9D9"/>
<path d="M194.013 447.775C192.288 432.137 192.33 422.669 201.013 385.275C205.488 386.183 208.007 386.245 212.513 385.775C219.301 384.449 222.734 382.466 228.513 377.775C247.879 403.225 252.329 421.583 247.013 462.775C243.754 484.452 241.7 488.828 238.013 495.775C235.567 492.685 233.499 489.674 231.513 486.266C229.21 499.054 226.32 502.778 222.013 507.775C217.853 501.906 215.755 498.179 214.295 487.275C213.832 490.669 213.422 494.428 213.013 498.775C204.2 485.286 199.877 474.87 194.013 447.775Z" fill="#D9D9D9"/>
</g>
<path id="Hamstrings (Stroke)" d="M228.91 377.472C238.619 390.231 244.617 401.248 247.507 414.263C250.394 427.267 250.17 442.223 247.509 462.839L247.507 462.849C245.877 473.693 244.544 480.234 243.152 484.94C241.757 489.66 240.304 492.525 238.454 496.009L238.096 496.685L237.62 496.085C235.437 493.328 233.553 490.631 231.76 487.662C230.664 493.35 229.43 497.175 227.963 500.163C226.384 503.377 224.549 505.598 222.392 508.101L221.975 508.585L221.605 508.064C219.52 505.122 217.927 502.685 216.678 499.601C215.72 497.236 214.97 494.504 214.341 490.888C214.054 493.316 213.782 495.938 213.511 498.822L213.376 500.246L212.594 499.048C203.737 485.491 199.396 475.011 193.524 447.88L193.519 447.855L193.516 447.83C192.651 439.992 192.228 433.678 193.112 424.635C193.996 415.605 196.183 403.863 200.525 385.162L200.636 384.688L201.112 384.785C205.523 385.68 207.989 385.742 212.432 385.28C215.785 384.624 218.29 383.812 220.663 382.592C223.046 381.368 225.316 379.725 228.197 377.386L228.598 377.062L228.91 377.472ZM123.834 377.892C126.414 380.057 128.464 381.634 130.867 382.806C133.26 383.974 136.03 384.752 140.052 385.275C144.714 385.385 147.301 385.157 151.92 384.284L152.399 384.193L152.501 384.669C159.955 419.301 161.295 430.776 159.51 447.827L159.507 447.855L159.501 447.883C156.255 462.532 153.849 471.491 140.462 498.994L139.514 498.8C139.385 496.252 139.205 493.887 138.947 491.563C137.185 497.715 133.924 501.508 128.899 507.593L128.476 508.105L128.101 507.558C125.285 503.455 123.612 500.481 122.588 497.793C121.761 495.625 121.366 493.658 121.122 491.462C120.259 493.033 119.381 494.518 118.438 496.039L118.012 496.725L117.587 496.038C111.736 486.562 109.265 479.11 106.023 462.873L106.018 462.851L106.016 462.83C104.021 444.673 103.307 430.713 105.591 417.665C107.877 404.602 113.159 392.486 123.101 377.992L123.412 377.538L123.834 377.892ZM220.539 464.129C217.608 472.027 216.018 478.39 214.8 487.276C215.525 492.668 216.405 496.263 217.605 499.225C218.736 502.018 220.162 504.27 222.051 506.959C224.012 504.667 225.646 502.611 227.066 499.721C228.572 496.653 229.849 492.621 230.987 486.354C227.722 480.721 224.672 474.005 220.539 464.129ZM132.481 464.329C127.744 477.387 124.864 484.341 121.973 489.875C122.201 492.663 122.559 494.908 123.523 497.437C124.461 499.899 125.984 502.65 128.552 506.44C134.004 499.843 137.139 496.077 138.595 488.761C137.636 482 135.872 475.057 132.481 464.329ZM201.391 385.859C197.123 404.278 194.977 415.846 194.108 424.732C193.233 433.672 193.648 439.908 194.507 447.699C200.185 473.924 204.406 484.449 212.653 497.3C213.018 493.545 213.387 490.233 213.8 487.208C215.083 477.815 216.78 471.201 220.003 462.708L212.066 386.321C207.978 386.724 205.466 386.655 201.391 385.859ZM151.624 385.353C147.375 386.139 144.771 386.367 140.465 386.284L133.02 462.719C136.704 474.261 138.591 481.564 139.598 488.706C139.973 491.367 140.223 494.004 140.4 496.825C153.012 470.747 155.363 461.929 158.519 447.691C160.273 430.903 158.981 419.58 151.624 385.353ZM228.424 378.487C225.711 380.671 223.48 382.269 221.12 383.482C218.748 384.701 216.265 385.521 213.057 386.175L221.001 462.647C225.409 473.223 228.56 480.205 231.944 486.014C233.788 489.178 235.704 491.994 237.931 494.856C239.596 491.696 240.917 488.973 242.193 484.657C243.565 480.02 244.889 473.537 246.517 462.71C249.172 442.135 249.38 427.315 246.53 414.48C243.713 401.793 237.898 391.004 228.424 378.487ZM123.616 379.011C113.934 393.219 108.807 405.086 106.575 417.837C104.319 430.733 105.016 444.566 107.007 462.7C110.155 478.463 112.557 485.813 118.013 494.815C119.067 493.092 120.046 491.398 121.02 489.542C123.997 483.869 126.959 476.685 132.021 462.664L139.468 386.205C135.616 385.673 132.854 384.888 130.429 383.705C128.048 382.543 126.016 381.009 123.616 379.011Z" fill="black"/>
<path id="Adductors" d="M201.013 385.275C191.796 425.416 192.484 433.128 194.013 448.275C184.738 422.851 180.297 406.969 176.513 369.775C171.077 407.088 167.258 424.329 159.013 448.275C160.586 430.458 159.741 419.838 152.013 384.775C161.79 383.327 166.767 377.63 176.513 369.775C184.654 376.251 189.38 382.614 201.013 385.275Z" fill="#D9D9D9"/>
<path id="Adductors (Stroke)" d="M176.824 369.383C185.055 375.93 189.637 382.16 201.124 384.788L201.612 384.899L201.5 385.387C196.893 405.453 194.767 417.389 193.981 426.192C193.197 434.981 193.746 440.657 194.51 448.225L193.543 448.447C184.59 423.905 180.132 408.225 176.429 373.776C171.289 408.421 167.449 425.31 159.485 448.438L158.515 448.231C160.082 430.489 159.248 419.926 151.524 384.882L151.409 384.359L151.939 384.281C161.543 382.859 166.377 377.302 176.199 369.385L176.511 369.134L176.824 369.383ZM177.134 370.92C180.697 405.379 184.874 421.339 193.126 444.353C192.592 438.557 192.336 433.38 192.985 426.103C193.771 417.3 195.882 405.431 200.414 385.647C189.44 382.996 184.538 376.987 177.134 370.92ZM175.83 370.976C166.962 378.226 161.878 383.64 152.613 385.182C159.652 417.181 160.911 428.728 159.827 444.313C167.095 422.566 170.785 405.415 175.83 370.976Z" fill="black"/>
<g id="Abductors">
<path d="M106.513 463.275C100.693 425.938 106.633 402.233 123.513 378.275C121.618 375.39 121.2 373.169 122.513 367.275C122.413 351.752 117.314 349.63 106.013 345.775C93.5248 399.561 99.5382 418.538 106.513 463.275Z" fill="#D9D9D9"/>
<path d="M247.013 345.775C239.197 347.684 230.516 347.557 229.513 367.275C230.92 373.9 230.311 374.261 228.513 377.775C248.069 403.052 251.977 421.858 247.013 463.275C252.584 417.101 260.664 409.052 247.013 345.775Z" fill="#D9D9D9"/>
</g>
<path id="Abductors (Stroke)" d="M106.174 345.301C111.793 347.218 116.03 348.747 118.833 351.812C121.66 354.904 122.963 359.473 123.012 367.272L123.013 367.329L123.001 367.383C122.348 370.316 122.139 372.28 122.307 373.85C122.473 375.399 123.01 376.6 123.93 378L124.118 378.285L123.922 378.563C115.513 390.498 109.841 402.352 106.99 415.861C104.138 429.373 104.103 444.57 107.007 463.198L106.018 463.352L105.369 459.236C102.139 439.012 99.2294 423.969 98.4645 407.942C97.6477 390.826 99.2745 372.587 105.526 345.662L105.651 345.124L106.174 345.301ZM247.502 345.669C254.332 377.332 255.735 395.213 254.72 410.97C254.214 418.843 253.104 426.176 251.776 434.414C250.448 442.653 248.901 451.803 247.509 463.334L246.516 463.215C246.517 463.21 246.518 463.203 246.518 463.198C248.996 442.515 249.251 427.53 246.468 414.578C243.688 401.635 237.865 390.681 228.117 378.081L227.923 377.83L228.068 377.547C228.991 375.743 229.535 374.872 229.72 373.619C229.907 372.361 229.729 370.696 229.024 367.378L229.01 367.315L229.013 367.25C229.518 357.331 231.96 352.261 235.392 349.459C237.099 348.066 239.018 347.262 240.982 346.687C242.918 346.12 244.991 345.754 246.894 345.29L247.393 345.167L247.502 345.669ZM106.375 346.429C100.242 372.993 98.6576 391.007 99.4635 407.895C100.036 419.882 101.814 431.302 104.033 444.831C103.474 434.091 104.14 424.523 106.011 415.655C108.874 402.091 114.547 390.192 122.912 378.261C122.044 376.887 121.489 375.599 121.313 373.957C121.128 372.233 121.362 370.157 122.011 367.228C121.957 359.536 120.661 355.294 118.094 352.487C115.578 349.735 111.778 348.281 106.375 346.429ZM249.251 443.799C249.781 440.442 250.3 437.285 250.789 434.254C252.116 426.019 253.219 418.727 253.722 410.907C254.723 395.359 253.357 377.682 246.63 346.378C244.802 346.806 243.024 347.132 241.263 347.647C239.37 348.201 237.59 348.956 236.024 350.234C232.918 352.77 230.521 357.482 230.015 367.24C230.706 370.504 230.924 372.317 230.71 373.765C230.505 375.146 229.905 376.174 229.102 377.723C238.793 390.295 244.644 401.322 247.447 414.368C249.296 422.977 249.814 432.448 249.251 443.799Z" fill="black"/>
<g id="Calves">
<path d="M121.513 490.275C121.948 496.633 123.731 500.386 128.513 507.275C133.802 500.883 136.92 497.382 139.013 489.275L140.013 498.275C140.108 511.291 141.315 517.251 144.013 522.54C145.723 527.912 144.373 534.518 144.013 544.775C141.653 579.232 138.67 588.032 130.077 596.775C128.322 598.462 127.589 598.528 126.822 596.775C125.511 593.794 125.097 588.823 125.513 576.275C122.14 584.188 119.65 588.279 115.513 591.633C113.384 593.115 112.199 593.475 110.135 591.275C101.275 581.34 100.015 576.256 100.513 544.775C100.924 536.05 100.947 523.089 105.013 515.275C111.9 506.804 113.822 503.133 118.013 495.775L121.513 490.275Z" fill="#D9D9D9"/>
<path d="M222.013 507.775C227.151 501.79 229.422 497.405 231.513 486.275C234.048 490.481 235.469 492.742 238.013 495.775C243.383 508.994 245.193 512.731 247.513 516.619C253.249 524.808 251.571 534.952 252.513 543.275C252.859 581.255 251.555 584.22 242.71 592.275C241.522 593.069 240.831 593.296 239.513 592.96C233.675 589.59 231.19 585.526 228.513 576.275C227.724 588.87 226.744 593.699 224.954 596.775C223.881 598.583 223.125 598.625 221.513 597.062C212.57 588.685 210.884 575.48 208.013 543.275C207.904 534.336 206.193 528.601 208.013 522.54C211.471 515.703 211.976 509.543 213.013 498.775L214.513 486.275C214.728 494.854 216.492 499.552 222.013 507.775Z" fill="#D9D9D9"/>
</g>
<path id="Calves (Stroke)" d="M231.941 486.017C234.315 489.956 235.699 492.166 237.936 494.899L238.396 495.454L238.446 495.514L238.476 495.586C243.838 508.783 245.637 512.498 247.93 516.343C250.864 520.537 251.89 525.216 252.308 529.852C252.518 532.17 252.576 534.491 252.64 536.736C252.705 538.988 252.777 541.162 253.009 543.218L253.012 543.245V543.27C253.186 562.241 252.95 572.54 251.548 579.101C250.842 582.4 249.838 584.776 248.435 586.842C247.038 588.9 245.259 590.63 243.047 592.645L243.019 592.669L242.988 592.691C242.383 593.096 241.851 593.392 241.274 593.528C240.685 593.666 240.097 593.625 239.389 593.445L239.323 593.428L239.262 593.393C236.287 591.676 234.144 589.766 232.409 587.095C231.024 584.964 229.908 582.363 228.828 579.022C228.07 589.615 227.105 594.072 225.386 597.026L225.384 597.03C225.107 597.497 224.83 597.885 224.534 598.166C224.231 598.452 223.884 598.649 223.474 598.681C223.072 598.713 222.688 598.578 222.323 598.36C221.961 598.144 221.582 597.824 221.171 597.426C216.601 593.145 213.91 587.643 211.999 579.214C210.091 570.801 208.949 559.412 207.514 543.319L207.513 543.3L207.512 543.281C207.458 538.827 207.007 535.207 206.791 531.861C206.576 528.533 206.598 525.513 207.534 522.397L207.547 522.354L207.566 522.315C210.973 515.577 211.477 509.519 212.515 498.727L212.516 498.715L214.016 486.215L215.012 486.262C215.119 490.517 215.61 493.781 216.745 496.992C217.83 500.062 219.517 503.106 222.06 506.941C224.389 504.18 226.089 501.743 227.451 498.748C228.898 495.565 229.979 491.73 231.021 486.182L231.263 484.893L231.941 486.017ZM122.011 490.241C122.226 493.374 122.771 495.847 123.843 498.381C124.863 500.79 126.368 503.271 128.549 506.445C133.581 500.374 136.523 496.922 138.529 489.15L139.509 489.219L140.512 498.246V498.271C140.608 511.263 141.814 517.129 144.458 522.313L144.476 522.349L144.489 522.388C145.372 525.163 145.458 528.232 145.289 531.849C145.204 533.659 145.054 535.623 144.904 537.764C144.754 539.908 144.602 542.237 144.512 544.792V544.8L144.511 544.809C143.331 562.037 141.994 572.898 139.864 580.552C137.725 588.238 134.786 592.697 130.433 597.125L130.424 597.135C129.977 597.564 129.577 597.91 129.212 598.151C128.852 598.388 128.476 598.559 128.088 598.565C127.67 598.572 127.324 598.388 127.046 598.096C126.782 597.819 126.564 597.431 126.364 596.975C125.675 595.408 125.238 593.354 125.021 590.146C124.835 587.394 124.81 583.767 124.937 578.833C122.043 585.268 119.621 588.946 115.828 592.021L115.813 592.033L115.798 592.043C114.744 592.778 113.796 593.334 112.799 593.334C111.767 593.335 110.83 592.747 109.77 591.617L109.762 591.608C105.301 586.605 102.711 582.773 101.326 576.208C99.9519 569.694 99.7639 560.495 100.012 544.767L100.013 544.759V544.751C100.218 540.407 100.328 534.958 100.895 529.63C101.462 524.308 102.491 519.037 104.569 515.044L104.592 514.999L104.625 514.959C111.484 506.522 113.39 502.881 117.578 495.528L117.585 495.517L117.59 495.506L121.908 488.723L122.011 490.241ZM213.509 498.834C212.479 509.548 211.967 515.802 208.481 522.718C207.607 525.651 207.577 528.519 207.789 531.796C208 535.063 208.456 538.773 208.511 543.248C209.947 559.35 211.085 570.661 212.973 578.993C214.8 587.051 217.319 592.267 221.45 596.309L221.854 596.697L221.861 596.703C222.254 597.083 222.57 597.343 222.836 597.501C223.099 597.659 223.274 597.694 223.396 597.684C223.511 597.675 223.655 597.62 223.846 597.439C224.044 597.252 224.265 596.957 224.524 596.52C226.241 593.568 227.22 588.87 228.009 576.299C224.136 554.18 222.834 538.746 221.519 507.935C218.794 503.866 216.97 500.627 215.802 497.326C215.132 495.431 214.681 493.524 214.396 491.439L213.509 498.834ZM138.793 491.834C136.698 498.352 133.681 501.816 129.01 507.457C128.772 536.076 127.952 550.877 126.011 576.313C125.805 582.572 125.806 586.924 126.019 590.079C126.22 593.04 126.606 594.914 127.166 596.302L127.28 596.574C127.464 596.994 127.625 597.256 127.769 597.407C127.899 597.543 127.99 597.566 128.071 597.565C128.181 597.563 128.366 597.51 128.661 597.316C128.95 597.125 129.299 596.829 129.73 596.415C133.966 592.103 136.812 587.791 138.901 580.284C141.001 572.738 142.334 561.969 143.514 544.741C143.605 542.174 143.756 539.836 143.906 537.694C144.057 535.543 144.206 533.597 144.29 531.802C144.457 528.223 144.362 525.313 143.545 522.723C140.812 517.344 139.609 511.292 139.512 498.307L138.793 491.834ZM231.757 487.643C230.78 492.558 229.74 496.13 228.361 499.162C226.888 502.4 225.04 504.998 222.52 507.948C223.834 538.719 225.135 554.1 229.001 576.166C230.332 580.762 231.606 584.025 233.247 586.55C234.871 589.049 236.872 590.849 239.703 592.492C240.277 592.631 240.677 592.641 241.046 592.554C241.434 592.463 241.834 592.255 242.4 591.878C244.596 589.878 246.289 588.223 247.608 586.281C248.926 584.339 249.886 582.089 250.569 578.892C251.943 572.464 252.186 562.293 252.012 543.294C251.777 541.201 251.706 538.998 251.641 536.764C251.576 534.511 251.518 532.223 251.312 529.942C250.901 525.382 249.9 520.898 247.103 516.906L247.092 516.89L247.084 516.875C244.747 512.958 242.926 509.197 237.578 496.035C235.274 493.281 233.88 491.142 231.757 487.643ZM118.438 496.036C114.258 503.377 112.316 507.078 105.434 515.547C103.46 519.364 102.451 524.462 101.889 529.736C101.326 535.024 101.219 540.418 101.012 544.798C100.764 560.542 100.958 569.621 102.304 576.001C103.64 582.332 106.11 586.01 110.508 590.942C111.508 592.005 112.193 592.335 112.799 592.334C113.442 592.334 114.147 591.972 115.215 591.23C119.232 587.967 121.677 583.985 125.02 576.152C126.955 550.779 127.773 536.002 128.01 507.426C125.665 504.039 124.027 501.38 122.923 498.771C121.976 496.534 121.426 494.346 121.144 491.783L118.438 496.036Z" fill="black"/>
<g id="Feet">
<path d="M109.513 590.775C105.833 586.216 104.211 583.244 102.013 577.275C106.199 598.296 109.105 609.716 109.513 629.775C109.331 639.734 106.665 644.432 104.513 651.275C97.817 661.031 91.7779 664.454 79.0127 668.775C77.0283 670.775 76.536 671.961 77.5127 674.275C79.1779 675.787 81.867 676.557 90.0127 677.775L103.013 678.775C108.304 679.542 112.387 680.376 114.513 681.98C119.309 684.813 121.555 685.851 124.013 685.775C127.144 685.761 128.763 685.365 131.513 684.275C133.641 682.237 135.125 681.715 136.513 675.775C137.043 671.31 137.138 667.674 133.013 656.775L132.513 649.775C131.288 638.544 131.072 631.257 132.513 615.775C133.395 606.209 134.316 600.056 138.013 585.275C135.644 590.113 134.126 592.439 131.013 595.775C128.072 599.271 127.054 598.623 126.013 594.275C125.174 588.541 125.189 584.496 125.513 576.775C120.599 586.981 118.92 588.639 116.013 591.275C113.121 593.777 111.727 593.443 109.513 590.775Z" fill="#D9D9D9"/>
<path d="M221.013 596.775C223.393 598.986 224.357 598.677 225.513 595.775C227.248 591.588 227.778 586.548 228.513 576.275C231.263 584.443 232.931 588.814 238.513 592.275C240.666 593.929 242.227 593.262 245.513 589.775C249.088 585.222 249.711 583.343 251.513 577.275C246.563 595.114 244.363 605.738 243.513 629.775C243.953 640.784 246.32 645.207 248.513 651.275C258.529 664.068 264.624 666.187 275.513 669.775C277.703 672.197 277.108 673.327 275.513 675.275C274.449 675.881 273.373 675.937 271.013 675.775C267.922 676.94 266.115 677.608 263.013 678.775C260.276 678.909 257.052 678.998 253.013 678.775C246.79 679.051 244.442 679.782 242.013 681.98C238.033 684.506 235.128 685.143 229.513 685.775C226.16 686.013 224.296 685.735 221.013 684.275C217.667 681.538 217.102 679.575 217.013 675.775C216.997 670.095 217.858 665.636 220.013 656.775L221.013 649.775C221.856 640.039 221.837 632.513 221.013 615.775C220.483 605.302 219.09 600.064 216.513 590.775C217.877 593.045 218.787 594.345 221.013 596.775Z" fill="#D9D9D9"/>
</g>
<path id="Feet (Stroke)" d="M228.986 576.116C231.655 584.039 233.262 588.228 238.279 591.533L238.776 591.85L238.797 591.863L238.818 591.878C239.323 592.267 239.759 592.492 240.165 592.585C240.562 592.677 240.962 592.651 241.414 592.484C242.358 592.135 243.492 591.186 245.133 589.447C246.899 587.196 247.921 585.627 248.724 583.883C249.534 582.124 250.13 580.174 251.033 577.132L251.994 577.409C247.055 595.212 244.861 605.797 244.013 629.783C244.45 640.631 246.763 644.986 248.952 651.025C253.917 657.357 257.892 661.024 261.95 663.552C265.519 665.775 269.172 667.133 273.682 668.641L275.669 669.3L275.795 669.341L275.884 669.44C277.005 670.68 277.524 671.704 277.43 672.748C277.34 673.752 276.682 674.636 275.9 675.591L275.841 675.664L275.761 675.709C274.571 676.388 273.369 676.432 271.087 676.28C268.061 677.42 266.251 678.091 263.189 679.243L263.115 679.27L263.037 679.274C260.296 679.408 257.061 679.498 253.011 679.275C249.921 679.413 247.835 679.663 246.232 680.136C244.644 680.604 243.514 681.296 242.348 682.351L242.317 682.379L242.28 682.402C238.207 684.987 235.214 685.636 229.568 686.272L229.559 686.273L229.548 686.274C227.852 686.395 226.503 686.387 225.152 686.155C223.801 685.923 222.472 685.471 220.81 684.732L220.748 684.705L220.696 684.662C218.99 683.266 217.947 682.031 217.333 680.624C216.722 679.223 216.558 677.701 216.513 675.787V675.776C216.497 670.035 217.369 665.528 219.522 656.676L220.516 649.715C221.355 640.021 221.337 632.52 220.514 615.8L220.404 613.906C219.809 604.717 218.445 599.606 216.031 590.909L216.942 590.517C218.286 592.756 219.175 594.029 221.366 596.421C221.944 596.957 222.41 597.313 222.793 597.518C223.177 597.723 223.428 597.748 223.606 597.706C223.785 597.662 223.998 597.525 224.251 597.174C224.505 596.822 224.764 596.303 225.048 595.59L225.051 595.583L225.206 595.197C226.781 591.171 227.301 586.213 228.014 576.239L228.986 576.116ZM126.012 576.795C125.689 584.495 125.674 588.502 126.502 594.173C126.759 595.246 127.008 596.057 127.273 596.625C127.547 597.212 127.79 597.432 127.969 597.496C128.12 597.549 128.379 597.542 128.853 597.215C129.321 596.891 129.902 596.318 130.63 595.453L130.639 595.443L130.648 595.434C133.72 592.143 135.212 589.86 137.564 585.055L138.498 585.396C134.807 600.155 133.891 606.284 133.011 615.821C131.663 630.305 131.768 637.586 132.793 647.665L133.01 649.72L133.012 649.74L133.506 656.667C135.557 662.093 136.572 665.746 137.003 668.614C137.438 671.506 137.276 673.581 137.009 675.833L137.006 675.862L136.999 675.888C136.298 678.889 135.561 680.577 134.696 681.78C133.85 682.957 132.864 683.673 131.859 684.636L131.788 684.704L131.697 684.74C128.902 685.848 127.223 686.259 124.027 686.274C121.402 686.355 119.032 685.231 114.258 682.411L114.235 682.396L114.211 682.379C113.228 681.637 111.753 681.047 109.824 680.547C107.905 680.05 105.585 679.653 102.944 679.27L89.9747 678.273L89.9562 678.272L89.9386 678.269C85.8658 677.66 83.1293 677.16 81.1974 676.617C79.2573 676.071 78.0878 675.472 77.1769 674.645L77.0949 674.571L77.0519 674.469C76.5406 673.258 76.3776 672.256 76.673 671.264C76.9602 670.301 77.659 669.429 78.6574 668.422L78.7404 668.339L78.8527 668.301C85.226 666.144 89.8766 664.224 93.7628 661.646C97.6232 659.085 100.753 655.857 104.059 651.051C106.228 644.182 108.833 639.595 109.013 629.766C108.604 609.773 105.711 598.403 101.523 577.373L102.482 577.102C104.662 583.025 106.259 585.947 109.898 590.456L110.299 590.922C111.202 591.931 111.89 592.395 112.562 592.466C113.322 592.546 114.249 592.14 115.686 590.897C117.126 589.591 118.237 588.548 119.599 586.58C120.973 584.593 122.608 581.656 125.063 576.558L126.012 576.795ZM228.83 578.75C228.18 587.398 227.6 592.037 225.977 595.959C225.683 596.697 225.389 597.306 225.063 597.758C224.736 598.212 224.341 598.558 223.838 598.678C223.333 598.799 222.824 598.669 222.322 598.401C221.823 598.134 221.278 597.704 220.672 597.141L220.657 597.127L220.644 597.113C219.413 595.77 218.58 594.763 217.85 593.751C219.89 601.248 221.042 606.452 221.512 615.75V615.75C222.179 629.304 222.319 636.835 221.9 644.394C223.015 638.828 223.414 631.719 223.513 617.771L224.513 617.779C224.382 636.32 223.723 642.914 221.501 649.886L220.508 656.845L220.504 656.87L220.498 656.893C218.346 665.744 217.499 670.153 217.513 675.763L217.535 676.447C217.604 677.987 217.786 679.161 218.25 680.224C218.772 681.419 219.671 682.522 221.277 683.844C222.869 684.549 224.097 684.959 225.321 685.169C226.559 685.382 227.816 685.393 229.469 685.276C235.03 684.649 237.845 684.026 241.711 681.579C242.963 680.453 244.215 679.689 245.949 679.177C247.679 678.667 249.871 678.414 252.99 678.276L253.016 678.274L253.04 678.276C257.018 678.496 260.201 678.41 262.91 678.279C265.973 677.127 267.767 676.464 270.836 675.307L270.939 675.269L271.047 675.276C273.348 675.433 274.293 675.366 275.188 674.881C275.96 673.931 276.378 673.293 276.435 672.658C276.488 672.06 276.224 671.334 275.224 670.206C269.849 668.434 265.582 666.994 261.421 664.401C257.219 661.783 253.149 658.008 248.119 651.583L248.069 651.52L248.042 651.445C245.856 645.396 243.457 640.895 243.013 629.794V629.757C243.71 610.032 245.318 599.31 248.602 586.253C247.912 587.413 247.059 588.616 245.906 590.083L245.892 590.101L245.877 590.118C244.24 591.855 242.956 592.981 241.762 593.422C241.144 593.651 240.545 593.7 239.941 593.56C239.353 593.424 238.793 593.117 238.229 592.686C233.061 589.475 231.162 585.471 228.83 578.75ZM124.921 579.122C123.016 582.964 121.632 585.398 120.422 587.148C118.992 589.215 117.812 590.319 116.349 591.645L116.34 591.653C114.886 592.911 113.67 593.59 112.456 593.461C111.251 593.334 110.234 592.427 109.128 591.094L109.123 591.089C106.578 587.936 105.003 585.525 103.552 582.388C107.169 600.215 109.639 611.378 110.013 629.765V629.784C109.829 639.838 107.121 644.649 104.989 651.425L104.967 651.497L104.925 651.558C101.55 656.475 98.3236 659.821 94.3156 662.48C90.3412 665.117 85.6218 667.06 79.2882 669.208C78.353 670.161 77.8362 670.862 77.631 671.55C77.4349 672.209 77.5051 672.93 77.9318 673.975C78.6773 674.626 79.6767 675.15 81.4679 675.654C83.3308 676.178 86.0073 676.67 90.0714 677.278L103.051 678.277L103.068 678.278L103.084 678.28C105.733 678.664 108.1 679.068 110.075 679.58C112.027 680.085 113.646 680.709 114.786 681.56C119.59 684.397 121.71 685.346 123.997 685.275H124.011L124.568 685.268C127.239 685.212 128.761 684.821 131.242 683.842C132.326 682.814 133.126 682.251 133.884 681.197C134.638 680.148 135.334 678.61 136.019 675.689C136.279 673.488 136.428 671.518 136.014 668.762C135.596 665.983 134.602 662.387 132.545 656.952L132.52 656.883L132.514 656.81L132.017 649.854C129.743 641.231 128.996 634.589 129.013 618.274L130.013 618.276C130.001 629.405 130.347 635.985 131.283 641.752C130.786 634.28 130.94 627.273 132.015 615.729C132.815 607.055 133.65 601.173 136.538 589.185C135.048 591.817 133.624 593.705 131.395 596.096C130.652 596.979 130.004 597.637 129.422 598.039C128.845 598.437 128.234 598.651 127.633 598.437C127.06 598.233 126.668 597.694 126.366 597.046C126.057 596.382 125.789 595.486 125.526 594.391L125.522 594.37L125.518 594.347C124.763 589.186 124.696 585.379 124.921 579.122ZM231.513 617.758C231.897 629.262 232.417 637.264 233.449 643.053C234.481 648.836 236.013 652.354 238.381 654.937L238.013 655.275L237.644 655.613C235.096 652.834 233.513 649.105 232.465 643.229C231.418 637.36 230.897 629.293 230.513 617.792L231.513 617.758ZM121.013 618.265C121.277 631.175 120.93 639.091 119.929 644.48C118.921 649.903 117.249 652.777 114.897 655.595L114.129 654.955C116.378 652.26 117.971 649.542 118.945 644.297C119.926 639.018 120.277 631.19 120.013 618.285L121.013 618.265Z" fill="black"/>
<g id="Knees">
<path d="M201.013 474.275C205.216 485.694 207.792 491.17 213.013 498.275C212.071 510.028 211.279 516.047 208.013 522.775C207.399 524.742 207.143 525.34 207.045 525.615C207.047 526.112 207.042 526.71 207.022 527.457C207.019 527.556 207.016 527.662 207.013 527.775C207.016 527.666 207.019 527.56 207.022 527.457C207.062 525.774 206.913 525.981 207.045 525.615C207.028 522.667 206.728 523.286 207.513 517.775C207.834 515.075 207.861 513.377 207.013 509.275C204.576 504.571 202.157 493.945 201.013 474.275Z" fill="#D9D9D9"/>
<path d="M245.013 474.775C242.56 486.736 240.957 490.39 238.013 495.775C241.709 504.968 244.062 510.792 246.513 515.275C249.975 519.983 250.798 527.532 252.013 533.775C251.775 520.511 252.025 515.131 246.513 499.775C244.95 496.325 244.901 489.046 245.013 474.775Z" fill="#D9D9D9"/>
<path d="M144.976 528.902C144.988 529.024 145 529.149 145.013 529.275C145 529.147 144.987 529.022 144.976 528.902C144.876 527.873 144.805 526.98 144.759 526.173C144.664 525.126 144.514 524.262 144.013 522.775C141.235 516.37 140.16 511.523 140.013 498.275C144.213 490.261 146.601 485.296 151.013 474.275C149.803 497.047 146.655 505.315 145.513 509.275C144.463 512.271 144.54 514.506 145.013 518.775C144.739 521.576 144.596 523.338 144.759 526.173C144.824 526.903 144.863 527.722 144.976 528.902Z" fill="#D9D9D9"/>
<path d="M109.013 473.775C111.794 485.427 114.014 489.204 118.013 495.775C112.45 505.502 110.903 508.308 105.513 515.275C101.362 522.996 102.252 523.73 101.513 529.275C101.785 517.274 101.949 515.654 109.013 499.775C110.522 494.305 109.002 489.282 109.013 473.775Z" fill="#D9D9D9"/>
</g>
<path id="Knees (Stroke)" d="M245.513 474.779C245.457 481.918 245.442 487.291 245.635 491.309C245.816 495.092 246.181 497.609 246.834 499.251L246.968 499.569L246.977 499.587L246.983 499.606C249.747 507.305 251.074 512.525 251.736 517.494C252.397 522.452 252.394 527.149 252.513 533.766L251.521 533.871C250.908 530.716 250.406 527.31 249.619 524.067C248.834 520.832 247.782 517.844 246.11 515.571L246.09 515.544L246.074 515.515C243.606 511 241.241 505.143 237.549 495.961L237.461 495.743L237.574 495.535C240.489 490.202 242.077 486.597 244.522 474.674L245.513 474.779ZM109.499 473.659C110.885 479.468 112.128 483.295 113.515 486.481C114.902 489.668 116.439 492.228 118.439 495.515L118.593 495.767L118.446 496.023C112.892 505.734 111.326 508.574 105.936 515.544C103.881 519.37 103.096 521.428 102.723 523.195C102.535 524.084 102.449 524.911 102.364 525.877C102.279 526.842 102.195 527.941 102.009 529.341L101.013 529.263C101.149 523.271 101.257 519.812 102.23 515.86C103.199 511.926 105.021 507.518 108.538 499.61C109.261 496.971 109.264 494.424 109.075 490.564C108.886 486.695 108.507 481.544 108.513 473.775L109.499 473.659ZM151.512 474.301C150.299 497.129 147.139 505.439 145.993 509.414L145.989 509.427L145.984 509.44C144.974 512.324 145.038 514.465 145.51 518.72L145.516 518.772L145.511 518.824C145.238 521.611 145.098 523.341 145.257 526.128L145.349 527.333C145.365 527.553 145.382 527.788 145.402 528.04L145.474 528.854C145.485 528.976 145.497 529.099 145.51 529.225L145.013 529.275L144.516 529.326L144.479 528.95L144.349 527.494C144.313 527.044 144.284 526.621 144.261 526.218L144.224 525.847C144.129 524.998 143.968 524.211 143.545 522.954C140.738 516.476 139.661 511.552 139.513 498.281L139.512 498.155L139.57 498.042C143.763 490.043 146.144 485.094 150.549 474.089L151.512 474.301ZM201.481 474.102C205.678 485.501 208.235 490.928 213.416 497.979L213.526 498.129L213.511 498.315C212.571 510.048 211.777 516.153 208.478 522.962C207.923 524.739 207.658 525.402 207.544 525.705C207.546 526.189 207.54 526.764 207.521 527.47C207.519 527.574 207.516 527.681 207.513 527.791V527.792L206.513 527.759C206.516 527.651 206.52 527.546 206.522 527.444C206.542 526.621 206.515 526.269 206.501 526.081C206.494 525.995 206.484 525.886 206.493 525.777C206.501 525.691 206.52 525.614 206.543 525.542C206.538 524.855 206.518 524.368 206.501 523.942C206.483 523.5 206.468 523.114 206.479 522.645C206.5 521.71 206.625 520.46 207.018 517.705C207.33 515.08 207.359 513.439 206.535 509.439C204.057 504.599 201.653 493.886 200.514 474.304L201.481 474.102ZM244.482 479.572C242.574 487.85 241.041 491.256 238.563 495.805C242.207 504.866 244.528 510.597 246.938 515.01C248.714 517.44 249.8 520.569 250.592 523.832C250.896 525.086 251.159 526.373 251.402 527.657C251.319 523.985 251.177 520.863 250.745 517.625C250.095 512.749 248.791 507.601 246.042 499.944H246.041C245.228 498.123 244.828 495.364 244.636 491.357C244.488 488.269 244.462 484.396 244.482 479.572ZM201.726 477.607C202.899 494.547 205.064 504.069 207.233 508.596L207.457 509.045L207.488 509.106L207.502 509.173C208.361 513.325 208.337 515.078 208.009 517.834L208.008 517.845C207.615 520.601 207.499 521.798 207.479 522.667C207.477 522.713 207.479 522.758 207.479 522.802C207.497 522.745 207.516 522.687 207.535 522.626L207.547 522.59L207.562 522.556C210.766 515.957 211.564 510.052 212.499 498.418C207.819 492.023 205.255 486.896 201.726 477.607ZM150.333 477.289C146.632 486.367 144.31 491.147 140.515 498.392C140.663 511.135 141.68 515.994 144.244 522.039C144.299 521.025 144.39 519.994 144.51 518.772C144.042 514.539 143.958 512.217 145.032 509.136C146.118 505.372 149.02 497.712 150.333 477.289ZM109.551 477.923C109.648 483.418 109.92 487.368 110.074 490.514C110.264 494.394 110.273 497.089 109.495 499.908L109.484 499.944L109.47 499.978C105.934 507.925 104.147 512.26 103.201 516.099C102.822 517.637 102.579 519.098 102.413 520.685C102.941 519.238 103.761 517.478 105.072 515.039L105.092 515.001L105.117 514.969C110.437 508.093 111.989 505.301 117.433 495.782C115.507 492.615 113.979 490.053 112.598 486.879C111.534 484.435 110.56 481.636 109.551 477.923Z" fill="black"/>
<g id="Hands">
<path d="M47.0127 360.275C53.0069 349.539 53.1527 341.842 54.5127 329.275C48.8022 326.415 44.9466 324.924 38.0127 322.275C26.5772 325.854 19.8515 327.6 17.5127 329.775C12.2093 338.069 8.75706 340.259 2.5127 343.275C1.34369 345.016 1.15657 345.92 2.5127 347.275C6.74631 348.235 9.05648 348.322 13.0127 347.275C16.8721 345.731 18.4763 344.257 21.0127 341.275L17.5127 345.775C9.98045 359.298 1.70389 371.247 0.512695 375.275C0.987078 378.021 2.11691 378.755 5.5127 378.775C7.12803 378.735 13.524 368.34 22.5127 355.275C15.3431 369.136 10.2582 378.815 10.0127 380.275C10.1937 384.071 10.8141 385.317 16.0127 384.775C17.2457 384.382 20.4287 376.31 31.0127 359.275C25.7286 373.962 22.2922 383.768 22.0127 384.775C22.3876 387.589 23.3111 388.512 27.0127 388.275C28.9034 388.043 29.5076 386.185 31.5127 382.775C32.5793 385.048 34.2466 385.737 37.0127 384.775C39.4785 381.448 41.2438 377.353 47.0127 360.275Z" fill="#D9D9D9"/>
<path d="M306.013 360.275C299.332 347.931 300.871 340.731 300.513 329.775L316.013 322.775C325.095 325.843 331.804 327.111 336.013 330.775C341.643 338.025 344.691 341.628 349.013 343.275C350.271 344.837 350.705 345.713 349.013 347.275C339.925 347.666 336.585 346.195 333.013 341.275C333.734 344.17 335.843 345.624 336.013 346.275C347.352 363.914 349.432 369.619 353.513 375.275L353.466 375.504C352.851 378.533 352.492 380.3 348.013 379.775C346.844 379.204 341.983 371.452 330.513 354.275C338.315 369.55 343.238 380.191 343.513 380.775C343.354 383.029 342.545 386.229 337.513 384.775C335.733 382.923 331.768 373.928 322.513 359.275C327.371 374.111 330.855 384.311 330.513 386.275C329.551 388.159 328.664 388.818 326.013 388.775C323.953 387.804 322.853 386.651 321.013 383.275C319.316 384.742 318.849 386.07 314.513 384.775C312.482 382.672 310.403 372.966 306.013 360.275Z" fill="#D9D9D9"/>
</g>
<path id="Hands (Stroke)" d="M316.173 322.301C318.436 323.066 320.552 323.719 322.524 324.327C324.494 324.934 326.326 325.496 328.005 326.079C331.149 327.169 333.809 328.344 335.925 330.049L336.341 330.398L336.378 330.43L336.407 330.468C341.885 337.522 344.838 340.999 348.804 342.653L349.19 342.808L349.317 342.856L349.402 342.961C349.719 343.354 350.002 343.726 350.213 344.086C350.425 344.448 350.581 344.826 350.617 345.231C350.692 346.078 350.231 346.83 349.352 347.642L349.217 347.766L349.034 347.775C344.474 347.971 341.281 347.705 338.764 346.733C337.548 346.263 336.504 345.631 335.544 344.828C335.69 344.998 335.828 345.153 335.954 345.301C336.072 345.44 336.185 345.577 336.274 345.706C336.343 345.803 336.415 345.921 336.464 346.051C342.122 354.855 345.474 360.687 347.92 365.023C350.374 369.373 351.898 372.183 353.918 374.982L354.046 375.16L354.003 375.375L353.956 375.604C353.804 376.353 353.661 377.062 353.46 377.678C353.258 378.298 352.985 378.866 352.549 379.319C351.652 380.25 350.231 380.539 347.954 380.272L347.87 380.261L347.793 380.224C347.548 380.105 347.287 379.849 347.022 379.552C346.741 379.236 346.4 378.805 345.997 378.263C345.19 377.177 344.108 375.61 342.711 373.532C340.738 370.598 338.119 366.624 334.732 361.52C340.323 372.704 343.736 380.075 343.965 380.562L344.021 380.68L344.012 380.81C343.932 381.949 343.685 383.472 342.704 384.509C341.675 385.598 339.988 386.011 337.374 385.255L337.245 385.218L337.152 385.122C336.658 384.607 336.047 383.641 335.286 382.319C334.516 380.981 333.56 379.217 332.378 377.066C330.404 373.476 327.781 368.78 324.288 363.081C326.16 368.778 327.767 373.653 328.94 377.455C329.659 379.782 330.218 381.716 330.576 383.196C330.755 383.935 330.886 384.57 330.961 385.087C331.034 385.591 331.062 386.032 331.005 386.361L330.992 386.435L330.958 386.502C330.464 387.47 329.948 388.21 329.149 388.678C328.357 389.143 327.36 389.297 326.005 389.275L325.896 389.273L325.8 389.227C324.724 388.72 323.877 388.154 323.062 387.265C322.348 386.487 321.671 385.474 320.881 384.07C320.843 384.105 320.806 384.141 320.769 384.176C320.588 384.347 320.406 384.522 320.223 384.684C319.853 385.012 319.451 385.317 318.94 385.524C317.909 385.943 316.571 385.911 314.37 385.254L314.244 385.216L314.153 385.123C313.568 384.517 313.027 383.428 312.479 382.027C311.923 380.604 311.331 378.781 310.67 376.643C309.347 372.364 307.737 366.793 305.551 360.472C298.825 348.022 300.368 340.668 300.013 329.792L300.002 329.457L315.986 322.238L316.173 322.301ZM38.1914 321.808C45.126 324.457 49.0019 325.955 54.7363 328.828L55.0469 328.983L55.0098 329.329C53.6549 341.849 53.503 349.656 47.4717 360.477C41.7229 377.494 39.9348 381.672 37.4141 385.073L37.3223 385.197L37.1768 385.248C35.7388 385.748 34.4996 385.85 33.4502 385.457C32.6446 385.154 32.0098 384.582 31.5029 383.794C31.1954 384.335 30.9209 384.83 30.666 385.285C30.2984 385.941 29.9652 386.52 29.6309 387.002C28.9532 387.979 28.219 388.631 27.0732 388.771L27.0586 388.773L27.0449 388.774C25.1852 388.893 23.8627 388.74 22.9658 388.07C22.0501 387.386 21.7063 386.265 21.5166 384.841L21.5039 384.74L21.5312 384.641C21.7867 383.721 24.5559 375.799 28.8965 363.689C25.0172 370.118 22.3293 375.025 20.4453 378.503C19.3125 380.595 18.4617 382.186 17.8184 383.275C17.4972 383.818 17.2179 384.254 16.9727 384.571C16.8498 384.729 16.7267 384.869 16.6035 384.981C16.4843 385.089 16.3382 385.196 16.165 385.251L16.1152 385.267L16.0645 385.272C14.7502 385.409 13.6926 385.437 12.8447 385.331C11.9935 385.223 11.317 384.975 10.8037 384.53C10.2883 384.082 9.99191 383.483 9.81152 382.78C9.63315 382.085 9.5591 381.251 9.51367 380.298L9.51074 380.245L9.51953 380.192C9.56068 379.947 9.6883 379.588 9.86328 379.161C10.0444 378.718 10.2952 378.158 10.6084 377.49C11.235 376.153 12.1212 374.368 13.2207 372.2C14.5796 369.52 16.2689 366.247 18.207 362.503C17.6949 363.264 17.1939 364.007 16.707 364.732C14.819 367.543 13.1237 370.072 11.6592 372.194C10.1964 374.313 8.95462 376.039 7.97363 377.24C7.48429 377.839 7.04853 378.322 6.67383 378.661C6.48664 378.83 6.30304 378.974 6.12598 379.079C5.95593 379.179 5.74918 379.269 5.52539 379.275H5.50977C3.8051 379.265 2.53487 379.082 1.63281 378.458C0.700098 377.814 0.264526 376.778 0.0195312 375.36L0 375.245L0.0332031 375.133C0.348829 374.066 1.11629 372.519 2.17578 370.624C3.24204 368.716 4.62863 366.416 6.20801 363.826C9.31644 358.728 13.1808 352.498 16.8828 345.875C15.8588 346.551 14.6877 347.143 13.1982 347.739L13.1699 347.75L13.1406 347.758C11.1343 348.289 9.52178 348.539 7.86328 348.528C6.20904 348.517 4.53257 348.245 2.40234 347.762L2.26172 347.731L2.15918 347.628C1.43956 346.91 1.03531 346.217 1.06641 345.401C1.09575 344.632 1.51481 343.865 2.09766 342.997L2.17285 342.883L2.29492 342.825C5.40972 341.32 7.78639 340.041 10.042 338.124C12.2971 336.206 14.4552 333.629 17.0918 329.505L17.126 329.452L17.1719 329.409C17.8134 328.812 18.7279 328.269 19.8848 327.735C21.0463 327.199 22.4827 326.658 24.1904 326.078C27.6007 324.919 32.1593 323.582 37.8633 321.797L38.0293 321.746L38.1914 321.808ZM301.021 330.093C301.341 340.927 299.91 347.949 306.452 360.037L306.472 360.073L306.485 360.112C308.684 366.467 310.306 372.082 311.625 376.347C312.286 378.485 312.869 380.277 313.411 381.663C313.926 382.98 314.383 383.861 314.792 384.334C316.837 384.93 317.87 384.879 318.564 384.597C318.925 384.451 319.229 384.23 319.56 383.936C319.727 383.788 319.893 383.628 320.08 383.451C320.196 383.341 320.319 383.227 320.448 383.109C318.438 375.71 316.897 370.975 314.038 362.433L314.987 362.117C317.878 370.753 319.428 375.519 321.478 383.083C322.38 384.734 323.085 385.811 323.799 386.589C324.485 387.337 325.193 387.824 326.128 388.275C327.359 388.286 328.105 388.132 328.644 387.816C329.176 387.504 329.575 386.993 330.026 386.125C330.044 385.951 330.034 385.661 329.972 385.231C329.903 384.757 329.78 384.156 329.604 383.431C329.254 381.982 328.702 380.072 327.985 377.75C326.552 373.105 324.468 366.853 322.037 359.43L322.936 359.008C327.571 366.347 330.881 372.269 333.254 376.584C334.442 378.745 335.39 380.494 336.153 381.821C336.87 383.066 337.398 383.89 337.786 384.331C340.116 384.974 341.317 384.52 341.978 383.822C342.672 383.087 342.915 381.943 343.002 380.864C342.373 379.515 337.542 369.137 330.067 354.502L330.929 353.998C336.669 362.594 340.745 368.815 343.541 372.973C344.938 375.051 346.008 376.602 346.8 377.667C347.196 378.2 347.517 378.603 347.77 378.887C347.971 379.113 348.103 379.233 348.177 379.289C350.305 379.524 351.281 379.194 351.828 378.625C352.118 378.324 352.331 377.915 352.509 377.369C352.688 376.818 352.82 376.17 352.976 375.405L352.979 375.388C350.982 372.59 349.438 369.75 347.049 365.514C344.605 361.182 341.255 355.354 335.592 346.545L335.549 346.478L335.529 346.401C335.531 346.407 335.52 346.372 335.455 346.279C335.394 346.192 335.308 346.085 335.193 345.951C334.973 345.692 334.654 345.34 334.327 344.927C333.664 344.09 332.912 342.938 332.527 341.396L333.417 340.981C335.171 343.396 336.829 344.914 339.124 345.8C341.41 346.683 344.38 346.961 348.803 346.782C349.503 346.103 349.652 345.67 349.621 345.319C349.603 345.115 349.521 344.883 349.351 344.592C349.194 344.325 348.977 344.033 348.702 343.689C344.304 341.963 341.18 338.244 335.65 331.124C333.625 329.372 330.982 328.171 327.677 327.024C326.017 326.448 324.205 325.89 322.23 325.282C320.313 324.691 318.248 324.053 316.041 323.311L301.021 330.093ZM37.9961 322.803C32.3432 324.571 27.876 325.883 24.5127 327.025C22.8173 327.601 21.4183 328.128 20.3037 328.643C19.2123 329.147 18.4217 329.626 17.8936 330.105C15.2442 334.24 13.0357 336.89 10.6895 338.885C8.36367 340.863 5.92569 342.177 2.85547 343.664C2.32076 344.474 2.08213 345.001 2.06543 345.439C2.05065 345.827 2.21289 346.237 2.76953 346.819C4.80107 347.274 6.35788 347.518 7.87012 347.528C9.40695 347.538 10.9206 347.309 12.8574 346.798C14.7401 346.043 16.0543 345.313 17.2021 344.419C18.3606 343.518 19.3685 342.436 20.6318 340.951L21.4072 341.582L17.9297 346.051C14.1632 352.811 10.2132 359.178 7.06152 364.346C5.48161 366.937 4.10472 369.223 3.04883 371.112C2.02715 372.939 1.32959 374.357 1.02832 375.305C1.25889 376.558 1.61921 377.234 2.20117 377.636C2.82963 378.07 3.81847 378.263 5.5 378.274C5.51368 378.27 5.55076 378.256 5.61621 378.217C5.71466 378.159 5.84311 378.063 6.00293 377.918C6.32227 377.63 6.7214 377.192 7.19922 376.607C8.15259 375.44 9.37446 373.743 10.8359 371.625C12.2959 369.51 13.9863 366.988 15.876 364.174C17.7649 361.362 19.8517 358.26 22.1006 354.992L22.957 355.504C19.3711 362.437 16.3092 368.319 14.1123 372.652C13.0138 374.818 12.1335 376.593 11.5137 377.915C11.2036 378.576 10.961 379.119 10.7891 379.54C10.6299 379.929 10.5463 380.18 10.5156 380.315C10.5609 381.23 10.6324 381.956 10.7803 382.532C10.9296 383.113 11.147 383.503 11.459 383.774C11.7731 384.047 12.2373 384.246 12.9697 384.338C13.6893 384.429 14.632 384.412 15.874 384.286C15.887 384.276 15.9074 384.264 15.9326 384.241C15.9966 384.183 16.0788 384.091 16.1816 383.958C16.3877 383.692 16.6423 383.3 16.958 382.766C17.589 381.698 18.4264 380.133 19.5664 378.028C21.8416 373.827 25.2886 367.541 30.5879 359.011L31.4834 359.444C26.3333 373.758 22.9513 383.406 22.5244 384.813C22.711 386.137 23.0137 386.857 23.5645 387.268C24.147 387.703 25.1339 387.892 26.9668 387.776C27.7035 387.681 28.2144 387.289 28.8086 386.432C29.1122 385.994 29.4243 385.455 29.793 384.796C30.1528 384.154 30.5643 383.404 31.0586 382.562C33.3517 376.422 35.3307 371.423 39.0479 362.09L39.9775 362.459C36.294 371.707 34.3201 376.691 32.0576 382.744C32.5399 383.698 33.1116 384.261 33.8008 384.52C34.5159 384.788 35.4484 384.763 36.7031 384.348C39.0641 381.119 40.8368 376.996 46.5391 360.115L46.5537 360.072L46.5762 360.031C52.4558 349.5 52.6504 341.96 53.9795 329.568C48.5052 326.841 44.7018 325.365 37.9961 322.803Z" fill="black"/>
<path id="Head" d="M196.013 85.2749C195.366 89.1535 195.738 92.3143 197.013 98.7749L188.513 65.7749C187.038 61.7591 186.175 60.2773 184.513 60.2749H168.013C165.522 60.0275 164.65 61.6012 163.513 65.7749L155.013 98.7749C156.205 92.2757 157.05 88.2736 156.513 85.2749C155.563 83.2609 154.698 81.8026 151.785 78.7749C149.212 75.7005 148.385 73.3531 147.513 69.0249L146.513 63.7749C144.293 63.6051 143.368 62.8349 142.513 59.7749L140.013 46.7749C140.166 43.5782 141.012 42.7852 145.513 43.7749C145.513 43.7749 145.357 32.2146 147.513 25.2749C149.326 19.4374 150.533 15.9146 154.513 11.2749C158.814 6.25976 162.171 3.63037 168.513 1.7749C174.322 0.0750345 178.203 0.0750345 184.013 1.7749C190.354 3.63037 193.711 6.25976 198.013 11.2749C201.992 15.9146 203.272 19.4153 205.013 25.2749C207.077 32.2232 206.513 43.7749 206.513 43.7749C210.818 43.3285 212.174 43.872 212.013 46.7749L209.513 59.7749C208.791 62.3864 207.887 63.3453 205.013 63.7749L204.513 69.0249C203.432 73.922 202.861 76.2871 200.74 78.7749C199.007 81.0026 197.212 82.5038 196.013 85.2749Z" fill="#D9D9D9"/>
<path id="Head (Stroke)" d="M176.263 0C178.747 0 181.219 0.436398 184.153 1.29492C187.365 2.23468 189.842 3.37743 192.064 4.93066C194.283 6.48119 196.23 8.42739 198.393 10.9492C202.44 15.6678 203.744 19.248 205.492 25.1328C206.543 28.6722 206.919 33.3516 207.036 37.1152C207.095 39.0032 207.089 40.6726 207.068 41.8701C207.059 42.4347 207.044 42.8946 207.033 43.2236C207.874 43.1499 208.606 43.1186 209.234 43.1475C209.997 43.1825 210.647 43.3064 211.167 43.5752C211.706 43.8538 212.079 44.275 212.294 44.8408C212.501 45.3871 212.554 46.0461 212.512 46.8027L212.51 46.8359L212.504 46.8691L210.004 59.8691L210 59.8887L209.995 59.9082C209.628 61.2376 209.19 62.2442 208.408 62.9619C207.694 63.6173 206.748 63.9781 205.474 64.2041L205.011 69.0723L205.008 69.1025L205.001 69.1328C203.926 74.0019 203.335 76.4904 201.134 79.0811C200.692 79.6489 200.249 80.1696 199.817 80.668C199.383 81.1691 198.965 81.6441 198.563 82.1367C197.776 83.1025 197.067 84.1166 196.496 85.4189C195.88 89.1734 196.236 92.2586 197.503 98.6777L196.528 98.8994L188.035 65.9268C187.299 63.9241 186.737 62.6151 186.173 61.8057C185.895 61.4068 185.633 61.1546 185.375 61C185.123 60.8492 184.847 60.7749 184.512 60.7744H167.988L167.963 60.7725C167.394 60.716 166.957 60.7678 166.603 60.9082C166.252 61.0468 165.944 61.2863 165.653 61.6689C165.05 62.4635 164.567 63.8042 163.996 65.8984L163.997 65.8994L155.497 98.8994L154.521 98.6846C155.118 95.4251 155.625 92.8176 155.916 90.6455C156.203 88.5054 156.272 86.8353 156.03 85.4268C155.117 83.4992 154.274 82.0825 151.425 79.1211L151.413 79.1094L151.402 79.0957C148.756 75.9341 147.904 73.4977 147.022 69.124L147.021 69.1182L146.091 64.2354C145.11 64.1207 144.308 63.852 143.653 63.2178C142.937 62.5236 142.463 61.4542 142.031 59.9092L142.025 59.8896L142.021 59.8691L139.521 46.8691L139.511 46.8105L139.514 46.751C139.553 45.9403 139.636 45.2351 139.83 44.6592C140.029 44.0695 140.352 43.5888 140.876 43.2754C141.386 42.9707 142.025 42.8612 142.786 42.877C143.408 42.8899 144.143 42.9899 145.01 43.1611C145.01 42.8357 145.014 42.3918 145.022 41.8525C145.042 40.6547 145.089 38.9846 145.205 37.0967C145.436 33.3324 145.939 28.6572 147.035 25.127C148.853 19.275 150.084 15.6697 154.133 10.9492C156.296 8.42739 158.242 6.48119 160.461 4.93066C162.684 3.37743 165.16 2.23468 168.372 1.29492C171.306 0.436399 173.778 4.4679e-07 176.263 0ZM176.263 1C173.902 1 171.529 1.41358 168.653 2.25488C165.524 3.17059 163.151 4.27092 161.034 5.75C158.914 7.23174 157.031 9.10756 154.893 11.6006C150.982 16.1595 149.799 19.6001 147.99 25.4229C146.931 28.8322 146.433 33.4075 146.203 37.1582C146.088 39.0276 146.041 40.6817 146.022 41.8682C146.013 42.4613 146.01 42.9374 146.01 43.2646C146.01 43.4281 146.011 43.5544 146.012 43.6396C146.012 43.6823 146.012 43.7148 146.013 43.7363V43.7686L146.021 44.3984L145.405 44.2637C144.292 44.0188 143.432 43.8908 142.766 43.877C142.097 43.863 141.672 43.9645 141.389 44.1338C141.12 44.2945 140.921 44.5505 140.777 44.9775C140.633 45.4076 140.554 45.9824 140.515 46.7412L143 59.6602C143.421 61.1627 143.836 62.0038 144.349 62.5C144.78 62.9177 145.329 63.1366 146.172 63.2393L146.551 63.2764L146.933 63.3057L148.003 68.9258L148.164 69.7061C148.972 73.4912 149.824 75.6506 152.164 78.4482C155.095 81.4973 155.991 82.9974 156.965 85.0615L156.993 85.1211L157.005 85.1865C157.185 86.1888 157.215 87.2862 157.138 88.5186L163.028 65.6504L163.03 65.6436L163.241 64.8906C163.73 63.1944 164.21 61.9157 164.856 61.0645C165.237 60.5633 165.685 60.1958 166.234 59.9785C166.769 59.767 167.363 59.7129 168.024 59.7744H184.514C185.009 59.7752 185.466 59.8885 185.889 60.1416C186.305 60.391 186.663 60.7608 186.993 61.2344C187.562 62.051 188.095 63.251 188.712 64.8789L188.982 65.6025L188.99 65.626L188.997 65.6504L195.219 89.8057C195.162 88.2198 195.258 86.7635 195.52 85.1924L195.529 85.1328L195.554 85.0762C196.178 83.6339 196.957 82.5258 197.789 81.5049C198.203 80.9975 198.634 80.5071 199.062 80.0137C199.491 79.5175 199.921 79.0137 200.346 78.4678L200.359 78.4502C202.383 76.0765 202.936 73.8402 204.017 68.9473L204.552 63.3379L204.938 63.2803C206.34 63.0709 207.166 62.7441 207.732 62.2246C208.298 61.7055 208.672 60.9321 209.024 59.6631L211.515 46.7139C211.55 46.0365 211.493 45.5487 211.359 45.1963C211.231 44.858 211.026 44.6272 210.708 44.4629C210.371 44.2889 209.886 44.1785 209.188 44.1465C208.495 44.1146 207.632 44.1618 206.564 44.2725L205.985 44.332L206.014 43.751V43.7432C206.014 43.7379 206.014 43.7295 206.015 43.7188C206.016 43.6972 206.017 43.6646 206.019 43.6221C206.022 43.537 206.028 43.411 206.033 43.248C206.045 42.9212 206.058 42.4451 206.068 41.8525C206.089 40.6671 206.095 39.0146 206.037 37.1465C205.92 33.3973 205.546 28.8259 204.533 25.417C202.8 19.5828 201.545 16.1614 197.633 11.6006C195.494 9.10756 193.612 7.23174 191.491 5.75C189.375 4.27092 187.002 3.17059 183.872 2.25488C180.997 1.41358 178.623 1 176.263 1Z" fill="black"/>
</g>
</svg>
