<svg width="342" height="699" viewBox="0 0 342 699" fill="none" xmlns="http://www.w3.org/2000/svg">
<g id="Female-Front">
<g id="Shoulders">
<path d="M76.0616 190.505C85.9606 187.674 95.1452 182.458 106.062 175.505C106.556 173.446 106.353 162.782 117.062 150.505C117.533 140.278 118.044 132.086 115.562 129.505C85.3462 130.913 78.5011 147.003 76.0616 190.505Z" fill="#D9D9D9"/>
<path d="M224.062 138.505L224.562 149.505C231.558 160.533 235.146 167.222 235.562 175.505C244.064 181.843 250.698 184.857 265.062 189.505C263.579 150.26 261.233 129.952 225.062 129.505C223.845 130.998 223.904 133.65 224.062 138.505Z" fill="#D9D9D9"/>
</g>
<path id="Shoulders (Stroke)" d="M115.922 129.159C116.635 129.9 117.095 130.999 117.398 132.326C117.701 133.661 117.857 135.282 117.919 137.121C118.044 140.795 117.796 145.426 117.561 150.529L117.553 150.703L117.439 150.835C112.135 156.915 109.54 162.586 108.209 166.982C107.543 169.181 107.193 171.066 106.978 172.53C106.87 173.263 106.796 173.889 106.733 174.404C106.672 174.906 106.618 175.33 106.548 175.622L106.501 175.819L106.33 175.927C95.4092 182.883 86.1727 188.133 76.1993 190.986L75.5226 191.179L75.5626 190.477C76.7817 168.737 79.1017 153.719 84.9669 143.962C87.9111 139.065 91.7474 135.493 96.7677 133.063C101.778 130.637 107.945 129.36 115.538 129.006L115.765 128.996L115.922 129.159ZM225.067 129.005C234.152 129.118 241.162 130.477 246.581 133.1C252.013 135.73 255.819 139.616 258.512 144.723C261.198 149.818 262.772 156.116 263.769 163.571C264.766 171.027 265.191 179.677 265.562 189.487L265.588 190.202L264.907 189.981C250.518 185.325 243.826 182.29 235.263 175.907L235.074 175.765L235.063 175.531C234.654 167.394 231.14 160.806 224.14 149.773L224.068 149.661L224.063 149.528L223.563 138.528L223.562 138.522C223.483 136.104 223.428 134.195 223.548 132.704C223.668 131.214 223.969 130.054 224.674 129.189L224.826 129.003L225.067 129.005ZM115.345 130.017C107.942 130.383 101.998 131.642 97.2032 133.963C92.3661 136.305 88.6731 139.739 85.8243 144.477C80.1657 153.89 77.8327 168.45 76.6017 189.825C86.1162 186.989 95.0317 181.929 105.613 175.197C105.652 174.977 105.692 174.676 105.74 174.283C105.803 173.772 105.878 173.132 105.988 172.384C106.209 170.886 106.568 168.951 107.252 166.692C108.611 162.204 111.242 156.455 116.57 150.308C116.804 145.254 117.041 140.737 116.92 137.155C116.859 135.344 116.706 133.795 116.422 132.548C116.163 131.412 115.803 130.574 115.345 130.017ZM225.309 130.01C224.886 130.629 224.649 131.498 224.545 132.785C224.43 134.207 224.483 136.052 224.562 138.489H224.561L225.054 149.35C231.934 160.202 235.567 166.95 236.045 175.242C244.263 181.34 250.77 184.325 264.533 188.806C264.169 179.291 263.743 170.925 262.777 163.703C261.787 156.298 260.235 150.133 257.628 145.189C255.028 140.258 251.372 136.53 246.145 134C240.954 131.487 234.185 130.143 225.309 130.01Z" fill="black"/>
<path id="Traps" d="M115.562 129.505C134.836 121.185 141.61 114.318 148.062 105.005C156.78 129.242 166.627 142.87 170.562 145.505C174.83 142.331 184.694 127.433 193.062 105.005C200.666 115.94 206.883 122.708 225.062 129.505C222.526 131.24 225.195 145.293 224.562 150.505C218.482 140.802 203.412 139.621 170.562 145.505C145.815 140.286 123.02 139.858 117.062 151.005C117.78 139.68 117.663 131.495 115.562 129.505Z" fill="#D9D9D9"/>
<path id="Traps (Stroke)" d="M148.532 104.836C152.882 116.927 157.51 126.363 161.535 133.099C163.548 136.467 165.407 139.157 167.003 141.163C168.443 142.973 169.651 144.202 170.547 144.879C171.525 144.077 172.804 142.676 174.302 140.691C175.943 138.517 177.828 135.673 179.843 132.223C183.873 125.325 188.419 116.019 192.593 104.831L192.927 103.936L193.472 104.72C197.266 110.176 200.691 114.556 205.413 118.42C210.135 122.283 216.181 125.65 225.236 129.037L226.139 129.375L225.344 129.919C225.167 130.039 224.976 130.316 224.816 130.837C224.661 131.347 224.558 132.017 224.501 132.821C224.387 134.428 224.461 136.481 224.597 138.67C224.73 140.821 224.93 143.185 225.05 145.24C225.171 147.315 225.222 149.213 225.058 150.566L224.888 151.967L224.138 150.771C221.213 146.103 216.105 143.423 207.556 142.658C198.993 141.891 187.068 143.056 170.649 145.998L170.554 146.015L170.458 145.995C158.104 143.389 146.27 141.987 136.799 142.617C127.289 143.249 120.35 145.914 117.503 151.241L116.563 150.974C116.922 145.316 117.071 140.462 116.87 136.782C116.77 134.941 116.582 133.411 116.297 132.229C116.008 131.03 115.635 130.263 115.218 129.869L114.667 129.347L115.363 129.046C124.976 124.897 131.446 121.121 136.309 117.237C141.167 113.357 144.441 109.353 147.65 104.72L148.203 103.922L148.532 104.836ZM147.921 106.077C144.847 110.43 141.613 114.28 136.933 118.018C132.082 121.893 125.696 125.63 116.364 129.699C116.756 130.289 117.048 131.075 117.27 131.995C117.575 133.261 117.766 134.858 117.868 136.727C118.049 140.041 117.949 144.266 117.674 149.128C121.231 144.434 128.119 142.191 136.733 141.619C145.837 141.014 157.039 142.262 168.739 144.621C167.988 143.888 167.14 142.941 166.221 141.786C164.592 139.738 162.707 137.011 160.677 133.613C156.717 126.986 152.195 117.791 147.921 106.077ZM193.193 106.066C189.092 116.911 184.66 125.961 180.706 132.728C178.676 136.203 176.771 139.081 175.101 141.294C174.041 142.697 173.065 143.844 172.207 144.709C187.755 141.99 199.249 140.91 207.645 141.662C215.642 142.377 220.903 144.763 224.153 149.04C224.177 147.972 224.133 146.695 224.051 145.298C223.928 143.198 223.737 140.963 223.599 138.732C223.463 136.54 223.385 134.428 223.504 132.75C223.563 131.911 223.673 131.158 223.859 130.546C223.95 130.249 224.065 129.965 224.214 129.716C215.46 126.389 209.492 123.049 204.779 119.194C200.178 115.429 196.797 111.194 193.193 106.066Z" fill="black"/>
<path id="Chest" d="M218.062 212.005C209.302 216.474 205.812 216.401 196.062 216.005C182.437 212.911 177.284 209.832 170.562 203.005C162.101 210.437 156.659 213.505 145.062 216.005C136.562 218.237 131.427 218.229 123.062 214.005C110.853 207.842 107.757 190.641 106.062 175.505C106.223 173.329 106.399 173.402 106.718 171.505C107.532 166.678 109.274 162.05 114.062 154.005C123.312 141.002 135.447 138.994 170.562 145.651C207.595 138.913 220.59 140.671 228.062 155.005C232.656 163.227 234.601 167.07 235.062 171.505L235.092 171.797C235.253 173.349 235.302 173.82 235.562 176.005C231.866 197.294 227.656 204.306 218.062 212.005Z" fill="#D9D9D9"/>
<path id="Chest (Stroke)" d="M170.562 145.142C189.025 141.787 201.584 140.531 210.476 141.932C214.942 142.636 218.503 144.014 221.428 146.145C224.349 148.274 226.606 151.134 228.498 154.761L230.098 157.646C233.558 163.955 235.144 167.466 235.559 171.454L235.589 171.745C235.75 173.295 235.798 173.765 236.058 175.947L236.066 176.019L236.054 176.09C234.203 186.749 232.217 193.883 229.47 199.327C226.714 204.786 223.207 208.517 218.374 212.395L218.334 212.427L218.289 212.451C213.884 214.698 210.768 215.822 207.509 216.324C204.266 216.824 200.904 216.702 196.041 216.505L195.995 216.504L195.951 216.493C189.121 214.942 184.378 213.387 180.491 211.348C176.725 209.373 173.786 206.954 170.537 203.69C166.451 207.255 163.029 209.82 159.219 211.799C155.302 213.832 151 215.234 145.185 216.489C145.182 216.49 145.179 216.491 145.177 216.492C140.912 217.611 137.444 218.181 133.975 217.924C130.497 217.667 127.056 216.582 122.836 214.452C116.571 211.289 112.682 205.311 110.149 198.29C107.615 191.268 106.413 183.133 105.565 175.561L105.56 175.515L105.563 175.468C105.725 173.274 105.923 173.22 106.226 171.423C107.053 166.512 108.827 161.823 113.632 153.75L113.643 153.732L113.654 153.715C118.35 147.114 123.812 143.278 132.538 141.961C141.195 140.654 153.055 141.827 170.562 145.142ZM170.062 168.795C151.873 158.276 139.837 153.733 130.536 154.413C121.287 155.089 114.616 160.949 107.191 171.7C106.871 173.563 106.719 173.427 106.564 175.499C107.41 183.048 108.605 191.061 111.09 197.95C113.581 204.853 117.344 210.559 123.287 213.559C127.432 215.652 130.742 216.683 134.048 216.927C137.359 217.172 140.705 216.632 144.935 215.522L144.946 215.519C144.95 215.518 144.953 215.517 144.956 215.516C144.963 215.515 144.97 215.513 144.977 215.511C150.723 214.144 154.714 212.516 157.968 209.977C161.229 207.432 163.792 203.939 166.623 198.765L170.062 192.379V168.795ZM210.034 154.463C199.942 153.801 187.404 158.353 171.062 168.78V192.379L174.502 198.768L174.508 198.781C177.194 204.115 179.817 207.578 183.14 210.066C186.457 212.55 190.514 214.092 196.134 215.507C200.992 215.705 204.239 215.816 207.358 215.336C210.461 214.857 213.46 213.788 217.79 211.582C222.53 207.773 225.913 204.154 228.577 198.876C231.251 193.578 233.215 186.58 235.057 175.989C234.805 173.865 234.754 173.385 234.595 171.848L234.576 171.675C227.837 160.971 220.092 155.122 210.034 154.463ZM167.502 199.243L167.5 199.246C164.643 204.468 162.001 208.098 158.583 210.765C158.265 211.014 157.938 211.25 157.606 211.482C157.994 211.297 158.379 211.108 158.758 210.911C162.574 208.929 166.015 206.333 170.232 202.63L170.587 202.318L170.918 202.655C174.259 206.048 177.186 208.485 180.955 210.463C181.923 210.97 182.948 211.447 184.052 211.903C183.533 211.575 183.028 211.232 182.54 210.867C179.052 208.255 176.344 204.646 173.621 199.242L170.562 193.56L167.502 199.243ZM170.062 146.066C152.731 142.797 141.109 141.678 132.688 142.95C124.263 144.222 119.032 147.886 114.481 154.278C110.497 160.973 108.653 165.264 107.689 169.261C114.66 159.608 121.314 154.085 130.463 153.416C140.013 152.717 152.156 157.329 170.062 167.64V146.066ZM210.319 142.92C201.666 141.556 189.356 142.756 171.062 146.069V167.596C187.191 157.38 199.792 152.789 210.1 153.465C219.955 154.11 227.606 159.557 234.166 169.218C233.336 165.723 231.389 161.987 227.625 155.25L227.621 155.243L227.618 155.237C225.776 151.703 223.609 148.972 220.839 146.953C218.069 144.934 214.665 143.605 210.319 142.92Z" fill="black"/>
<g id="Biceps">
<path d="M95.0616 244.005C88.8249 250.861 84.5535 255.119 73.0616 254.005C70.8733 250.294 69.9286 247.499 69.5616 240.005C68.2946 218.721 68.4366 208.157 76.0616 190.505C82.1656 188.721 85.7711 187.573 99.0616 180.005C100.469 179.126 104.465 176.546 106.062 175.505L108.562 192.005C108.984 205.279 107.028 212.18 105.062 222.005C102.42 233.964 98.6041 237.968 95.0616 244.005Z" fill="#D9D9D9"/>
<path d="M273.562 240.005C271.721 247.093 270.623 250.505 268.562 254.005C260.322 253.859 255.224 252.565 244.062 245.005C239.018 237.514 237.802 232.911 233.562 222.505C232.507 218.196 230.393 214.529 231.062 195.505C233.067 189.299 234.118 185.347 235.562 175.505L242.062 180.005C247.649 182.472 256.512 187.55 264.562 189.005C274.164 205.935 273.325 218.318 273.562 240.005Z" fill="#D9D9D9"/>
</g>
<path id="Biceps (Stroke)" d="M109.056 191.93L109.061 191.96L109.062 191.99C109.486 205.332 107.515 212.295 105.552 222.103L105.55 222.113C102.887 234.171 99.0091 238.266 95.4933 244.258L95.4669 244.303L95.4318 244.342C92.3212 247.761 89.6403 250.604 86.2706 252.433C82.8782 254.274 78.832 255.067 73.0138 254.503L72.7599 254.478L72.631 254.259C71.5225 252.379 70.7167 250.709 70.1456 248.551C69.5773 246.404 69.2468 243.793 69.0626 240.035L68.8429 236.165C68.3755 227.401 68.2496 220.449 68.9806 213.838C69.8173 206.272 71.7744 199.17 75.6027 190.307L75.6954 190.091L75.921 190.026C81.9797 188.255 85.5493 187.124 98.8087 179.574C100.222 178.69 104.196 176.124 105.788 175.086L106.44 174.663L109.056 191.93ZM242.309 179.569C243.705 180.187 245.3 180.962 247.021 181.797C248.763 182.643 250.641 183.552 252.593 184.428C256.502 186.183 260.687 187.796 264.651 188.513L264.881 188.555L264.996 188.758C274.674 205.821 273.825 218.345 274.062 240L274.063 240.067L274.046 240.131C272.205 247.22 271.093 250.693 268.992 254.259L268.845 254.51L268.553 254.505C264.405 254.432 261.012 254.068 257.243 252.757C253.484 251.45 249.377 249.209 243.781 245.42L243.701 245.365L243.647 245.285C238.566 237.737 237.323 233.061 233.099 222.694L233.085 222.66L233.076 222.625C232.564 220.533 231.752 218.457 231.171 214.597C230.588 210.723 230.227 205.017 230.562 195.488L230.565 195.419L230.586 195.352C232.582 189.173 233.626 185.248 235.067 175.433L235.184 174.635L242.309 179.569ZM96.2902 226.908C95.9485 227.46 95.4904 228.194 94.9279 229.068C93.6196 231.101 91.7549 233.898 89.5294 236.954C85.3604 242.678 79.893 249.356 74.424 253.61C79.3868 253.925 82.8702 253.141 85.7941 251.554C88.964 249.834 91.5194 247.152 94.6085 243.758C95.3243 241.042 95.862 236.887 96.1339 233.198C96.2716 231.33 96.3405 229.595 96.3322 228.24C96.3291 227.735 96.3147 227.287 96.2902 226.908ZM243.761 226.804C243.164 229.37 242.832 231.573 242.859 234.065C242.888 236.897 243.381 240.125 244.502 244.699C249.986 248.402 253.967 250.559 257.571 251.813C260.733 252.913 263.626 253.324 267.023 253.461C261.448 249.174 257.446 245.519 253.945 241.456C250.396 237.335 247.377 232.807 243.761 226.804ZM98.7355 180.763C86.047 187.963 82.3538 189.182 76.4298 190.917C72.6937 199.607 70.7909 206.559 69.9738 213.948C69.2518 220.476 69.3745 227.359 69.8409 236.108L70.0607 239.976V239.981C70.2435 243.714 70.57 246.246 71.1124 248.295C71.6049 250.157 72.281 251.637 73.215 253.272C78.7553 249.15 84.4038 242.293 88.7208 236.365C90.9324 233.328 92.7864 230.548 94.087 228.527C94.7372 227.517 95.2489 226.697 95.5978 226.129C95.7722 225.846 95.9063 225.625 95.9962 225.476C96.0366 225.409 96.0675 225.356 96.09 225.319C96.0905 225.317 96.0914 225.314 96.0919 225.312C96.1043 225.256 96.1228 225.172 96.1466 225.062C96.1942 224.842 96.2637 224.516 96.3507 224.096C96.5247 223.256 96.769 222.037 97.049 220.524C97.6089 217.498 98.3124 213.3 98.8849 208.612C100.002 199.461 100.609 188.521 98.7355 180.763ZM242.439 180.725C238.671 201.299 240.891 213.193 244.027 225.309C247.901 231.791 251.02 236.527 254.703 240.803C258.305 244.985 262.46 248.741 268.41 253.261C270.25 249.999 271.317 246.65 273.061 239.94C272.827 218.35 273.635 206.128 264.238 189.452C260.224 188.693 256.04 187.071 252.184 185.34C250.216 184.457 248.326 183.543 246.584 182.698C245.077 181.966 243.683 181.291 242.439 180.725ZM235.937 176.373C234.553 185.628 233.503 189.564 231.559 195.587C231.229 205.043 231.59 210.665 232.159 214.449C232.729 218.234 233.494 220.146 234.036 222.347C237.805 231.599 239.169 236.206 242.926 242.32C242.216 239.018 241.883 236.428 241.859 234.076C241.828 231.129 242.28 228.58 243.046 225.507C239.876 213.251 237.637 201.15 241.512 180.233L235.937 176.373ZM105.683 176.345C103.974 177.455 101.048 179.341 99.6339 180.233C101.643 188.205 101.009 199.467 99.8771 208.733C99.3015 213.447 98.595 217.665 98.0324 220.706C97.751 222.226 97.5055 223.452 97.3302 224.298C97.2426 224.722 97.1724 225.051 97.1242 225.274C97.1075 225.351 97.0924 225.415 97.0812 225.466C97.1679 225.729 97.2213 226.074 97.257 226.446C97.3036 226.932 97.3279 227.54 97.3322 228.234C97.3407 229.623 97.2699 231.386 97.131 233.271C96.9373 235.899 96.6079 238.787 96.1701 241.246C99.2508 236.388 102.328 232.061 104.573 221.898C106.541 212.068 108.478 205.231 108.062 192.046L105.683 176.345Z" fill="black"/>
<g id="Forearms">
<path d="M73.0616 254.005C85.1358 254.405 88.4283 251.274 95.0616 244.005C96.3627 247.884 96.7298 250.074 96.6699 254.005C96.1198 261.517 93.6053 266.693 92.0616 270.005L68.0616 310.505C64.8035 316.336 61.6255 318.977 54.5616 331.005L45.5616 326.73L39.5616 323.88L36.5616 322.505C50.9325 272.646 58.9973 254.11 69.5616 240.505C69.8314 244.331 70.1781 246.404 71.0616 250.005C71.7882 251.376 71.9156 252.329 73.0616 254.005Z" fill="#D9D9D9"/>
<path d="M244.062 245.005C255.712 252.549 260.682 254.14 268.562 254.005C269.485 252.551 270.217 251.014 270.938 249.005C271.742 246.768 272.532 243.947 273.562 240.005C284.486 251.439 288.389 267.284 304.562 324.005L302.062 324.967L296.062 327.582L287.062 331.505C284.285 326.776 282.317 324.52 273.562 311.005L248.562 271.005C247.065 268.066 244.47 261.664 244.062 253.005C243.842 250.012 244.297 248.716 244.062 245.005Z" fill="#D9D9D9"/>
</g>
<path id="Forearms (Stroke)" d="M273.923 239.66C279.456 245.451 283.193 252.348 287.566 264.857C291.935 277.356 296.959 295.519 305.042 323.869L305.168 324.308L302.261 325.424L302.262 325.425L286.855 332.141L286.63 331.758C285.252 329.41 284.075 327.676 282.141 324.831C280.206 321.985 277.522 318.038 273.142 311.277L273.138 311.27L248.138 271.27L248.126 271.252L248.116 271.232C246.596 268.246 243.977 261.78 243.563 253.041C243.45 251.51 243.512 250.411 243.568 249.25C243.625 248.094 243.679 246.864 243.563 245.037L243.5 244.045L244.333 244.586C250.15 248.352 254.267 250.611 257.895 251.915C261.423 253.183 264.509 253.554 268.28 253.508C269.114 252.157 269.794 250.712 270.468 248.836C271.263 246.623 272.049 243.821 273.078 239.879L273.304 239.012L273.923 239.66ZM70.0606 240.47C70.327 244.247 70.6666 246.29 71.5343 249.834C71.8912 250.517 72.1162 251.118 72.3634 251.693C72.5974 252.238 72.8717 252.806 73.3341 253.511C79.1808 253.682 82.861 253 85.8712 251.437C88.9413 249.843 91.3665 247.313 94.6925 243.669L95.2657 243.041L95.5352 243.846C96.8529 247.774 97.2309 250.021 97.17 254.013V254.028L97.1681 254.042C96.6108 261.652 94.0603 266.9 92.5147 270.216L92.504 270.239L92.4913 270.26L68.4972 310.749C66.8506 313.695 65.2213 315.842 63.1446 318.723C61.0663 321.607 58.5143 325.261 54.9923 331.258L54.7608 331.654L54.3468 331.457L39.3468 324.332L36.3536 322.96L35.962 322.781L36.0811 322.367C50.4507 272.512 58.5369 253.889 69.1671 240.199L69.9688 239.167L70.0606 240.47ZM244.654 254.47C245.259 262.229 247.587 267.971 248.977 270.717C267.611 290.876 273.375 300.345 274.051 310.841C278.384 317.528 281.045 321.44 282.967 324.268C284.795 326.957 285.962 328.678 287.266 330.871L295.34 327.35C278.767 299.547 268.021 281.846 244.654 254.47ZM96.0196 255.562C71.719 284.613 61.6415 300.11 46.2677 326.512L54.3634 330.358C57.7856 324.56 60.2879 320.977 62.3331 318.139C64.4067 315.262 65.9837 313.183 67.5802 310.339C68.3299 304.905 69.5413 300.048 72.9679 293.905C76.3993 287.753 82.0442 280.324 91.6397 269.726C93.0696 266.661 95.2734 262.072 96.0196 255.562ZM245.713 254.171C268.959 281.45 279.717 299.185 296.265 326.947L301.378 324.718C290.354 302.627 283.926 290.23 271.189 269.356L270.464 268.852C260.093 261.662 254.061 257.485 245.713 254.171ZM95.0528 255.159C83.5912 259.587 77.4149 263.189 67.4434 270.346C53.5337 295.491 48.5008 305.973 40.2257 323.642L45.3604 326.082C60.7402 299.666 70.8326 284.133 95.0528 255.159ZM273.813 241.006C272.901 244.468 272.171 247.039 271.427 249.119C270.219 258.119 270.386 262.456 272.028 268.811C284.809 289.754 291.252 302.185 302.306 324.336L303.955 323.702C295.939 295.582 290.955 277.585 286.621 265.187C282.436 253.213 278.873 246.52 273.813 241.006ZM69.1641 241.852C59.0765 255.251 51.0952 273.938 37.1612 322.231L39.3184 323.219C47.6069 305.522 52.6515 295.018 66.5958 269.812C69.2094 260.435 70.6114 256.571 70.5616 250.063C69.7884 246.904 69.4244 244.9 69.1641 241.852ZM272.862 308.945C271.722 300.248 266.53 291.63 251.897 275.399L272.862 308.945ZM89.0089 274.176C81.455 282.777 76.7996 289.088 73.8409 294.392C71.0116 299.465 69.7308 303.627 68.9561 308.015L89.0089 274.176ZM94.8516 244.972C91.8199 248.276 89.3933 250.735 86.3321 252.325C83.0629 254.022 79.1233 254.707 73.045 254.505L72.7921 254.497L72.6485 254.288C72.1039 253.491 71.7814 252.847 71.5196 252.253C71.2776 257.432 70.0096 261.384 67.9278 268.774C77.7581 261.781 84.0886 258.226 96.172 253.66C96.2025 250.273 95.8868 248.206 94.8516 244.972ZM244.608 245.951C244.657 247.32 244.614 248.344 244.567 249.298C244.515 250.375 244.462 251.35 244.54 252.65C253.763 256.081 259.951 260.349 270.757 267.839C269.564 262.813 269.344 258.822 270.018 252.454C269.696 253.088 269.356 253.687 268.983 254.273L268.839 254.501L268.57 254.505C264.587 254.573 261.312 254.204 257.557 252.855C253.994 251.575 250.019 249.418 244.608 245.951Z" fill="black"/>
<path id="Abs" d="M139.562 238.005C139.806 234.915 140.271 233.38 143.388 233.497C142.015 233.404 141.059 232.61 140.439 231.331C139.95 230.322 139.67 229.012 139.562 227.505C138.956 219.964 139.942 217.582 144.562 216.505C158.307 212.728 163.846 209.59 170.562 202.505C176.291 209.438 181.667 212.476 196.062 216.005C201.089 218.198 202.49 220.64 202.062 227.505C202.259 230.885 200.509 233.514 197.062 233.505C200.131 233.786 201.594 234.798 202.062 238.005L202.562 252.505C202.677 260.395 201.253 263.278 197.062 263.005C200.699 263.305 201.849 263.865 202.062 267.505L202.062 282.505C202.076 288.676 200.723 292.87 197.062 292.505C199.31 292.93 201.916 294.24 202.062 296.505C202.531 304.867 202.481 304.862 202.062 307.005C195.853 319.674 190.552 331.97 181.062 354.005C178.986 355.656 176.671 356.196 170.562 356.505C164.057 356.198 161.934 355.592 160.562 354.005C145.135 320.253 140.109 307.348 139.562 306.005C139.267 303.802 139.173 304.37 139.562 296.505C139.655 294.287 141.253 292.974 143.562 292.505C139.637 292.208 139.484 287.86 139.562 282.505V267.505C139.982 264.151 140.071 263.554 143.562 263.005C139.341 263.058 139.089 259.181 139.562 252.505C139.275 245.353 139.177 244.412 139.562 238.005Z" fill="#D9D9D9"/>
<path id="Abs (Stroke)" d="M170.947 202.187C173.781 205.615 176.509 208.061 180.298 210.09C183.863 212 188.387 213.553 194.859 215.191L196.181 215.52L196.222 215.53L196.262 215.547C198.815 216.661 200.545 217.879 201.549 219.769C202.54 221.636 202.774 224.073 202.562 227.51C202.658 229.274 202.253 230.893 201.322 232.084C200.846 232.693 200.242 233.175 199.523 233.504C200.026 233.695 200.473 233.947 200.861 234.278C201.74 235.027 202.248 236.122 202.508 237.627L202.557 237.933L202.561 237.961L202.562 237.988L203.062 252.488V252.499L203.067 253.224C203.076 256.79 202.741 259.364 201.87 261.046C201.412 261.933 200.797 262.582 200.004 262.995C200.449 263.148 200.835 263.347 201.163 263.617C202.106 264.392 202.453 265.636 202.561 267.476L202.562 267.491V282.504L202.559 283.082C202.525 285.941 202.183 288.405 201.397 290.161C200.975 291.103 200.412 291.872 199.672 292.378C199.528 292.476 199.378 292.562 199.224 292.638C199.722 292.85 200.203 293.104 200.636 293.406C201.597 294.077 202.372 295.011 202.536 296.226L202.561 296.473V296.477C202.795 300.65 202.901 302.758 202.895 304.089C202.888 305.45 202.763 306.022 202.552 307.101L202.539 307.167L202.511 307.225C196.309 319.88 191.013 332.165 181.521 354.204L181.471 354.319L181.373 354.397C179.16 356.157 176.694 356.695 170.587 357.004L170.563 357.006L170.538 357.004C167.283 356.851 165.082 356.621 163.513 356.219C161.921 355.812 160.95 355.219 160.184 354.333L160.137 354.278L160.107 354.213C144.676 320.452 139.648 307.54 139.099 306.194L139.074 306.135L139.066 306.072C138.921 304.99 138.818 304.54 138.806 303.384C138.794 302.25 138.868 300.408 139.062 296.485L139.076 296.255C139.174 295.123 139.641 294.195 140.387 293.487C140.79 293.105 141.267 292.794 141.801 292.547C141.478 292.384 141.187 292.179 140.927 291.934C140.275 291.32 139.855 290.49 139.58 289.541C139.037 287.664 139.023 285.163 139.062 282.505V267.474L139.066 267.443C139.17 266.613 139.257 265.919 139.386 265.353C139.516 264.783 139.697 264.293 140.021 263.89C140.33 263.505 140.74 263.235 141.272 263.029C141.102 262.94 140.94 262.84 140.788 262.725C140.067 262.181 139.608 261.386 139.322 260.421C138.762 258.527 138.827 255.807 139.061 252.499C138.775 245.366 138.677 244.399 139.063 237.975V237.966H139.064C139.184 236.444 139.362 235.145 139.99 234.259C140.326 233.787 140.766 233.457 141.324 233.253C140.801 232.854 140.378 232.312 140.048 231.666C139.78 231.468 139.541 231.298 139.344 231.176C139.234 231.108 139.147 231.06 139.081 231.03C139.005 230.995 138.996 231.002 139.032 231.004L139.091 230.006C139.231 230.015 139.364 230.063 139.468 230.109C139.261 229.329 139.129 228.464 139.063 227.542V227.541C138.761 223.78 138.84 221.18 139.646 219.378C140.482 217.507 142.055 216.579 144.429 216.023C151.288 214.138 156.067 212.421 159.959 210.306C163.843 208.196 166.866 205.677 170.198 202.162L170.587 201.752L170.947 202.187ZM143.618 293.005C142.546 293.229 141.68 293.638 141.075 294.212C140.472 294.784 140.103 295.544 140.062 296.526L140.061 296.53C139.866 300.468 139.794 302.276 139.806 303.374C139.817 304.43 139.903 304.804 140.048 305.875C140.702 307.493 145.786 320.473 160.984 353.726C161.583 354.402 162.356 354.891 163.761 355.251C165.143 355.605 167.106 355.825 170.062 355.978V296.559C169.846 295.477 169.54 294.727 169.077 294.183C168.624 293.65 167.979 293.269 166.991 293.005H143.618ZM174.109 293.005C173.085 293.17 172.479 293.548 172.055 294.095C171.612 294.667 171.33 295.469 171.062 296.568V355.976C176.68 355.667 178.796 355.125 180.654 353.685C190.095 331.765 195.391 319.484 201.582 306.847C201.782 305.825 201.889 305.323 201.895 304.085C201.901 302.792 201.797 300.722 201.563 296.538L201.546 296.366C201.432 295.514 200.886 294.799 200.064 294.225C199.197 293.62 198.073 293.211 197.01 293.005H174.109ZM170.543 290.786C170.32 291.197 170.059 291.556 169.72 291.862C169.405 292.146 169.037 292.371 168.604 292.557C169.088 292.815 169.498 293.134 169.839 293.535C170.14 293.889 170.377 294.294 170.569 294.75C170.755 294.279 170.978 293.852 171.265 293.482C171.583 293.071 171.969 292.742 172.442 292.494C172.009 292.303 171.644 292.081 171.335 291.809C171.002 291.515 170.75 291.175 170.543 290.786ZM174.139 263.505C172.339 264.071 171.545 265.876 171.062 267.577V289.424C171.316 290.21 171.584 290.696 171.996 291.059C172.422 291.435 173.054 291.725 174.128 292.005H197.086L197.111 292.008C197.922 292.089 198.573 291.917 199.108 291.551C199.65 291.18 200.111 290.583 200.484 289.752C201.233 288.076 201.569 285.572 201.562 282.506V267.522C201.456 265.732 201.122 264.878 200.528 264.389C199.901 263.873 198.871 263.657 197.042 263.505H174.139ZM143.605 263.505C141.859 263.782 141.171 264.054 140.8 264.516C140.612 264.75 140.475 265.073 140.36 265.575C140.247 266.075 140.166 266.704 140.062 267.535V282.512C140.023 285.206 140.047 287.554 140.541 289.262C140.786 290.107 141.135 290.755 141.613 291.207C142.083 291.649 142.713 291.937 143.591 292.005H167.002C168.022 291.782 168.626 291.502 169.05 291.12C169.468 290.743 169.759 290.223 170.062 289.413V267.571C169.634 265.936 168.849 264.137 166.979 263.505H143.605ZM170.52 260.969C170.296 261.44 170.037 261.864 169.712 262.225C169.365 262.611 168.956 262.912 168.464 263.132C169.511 263.841 170.153 264.888 170.57 265.918C171.006 264.854 171.662 263.775 172.722 263.079C172.026 262.77 171.506 262.381 171.113 261.918C170.861 261.62 170.671 261.299 170.52 260.969ZM174.114 234.005C172.348 234.378 171.689 235.927 171.062 237.128V259.441C171.242 260.171 171.455 260.774 171.876 261.271C172.294 261.765 172.96 262.203 174.132 262.505H197.078L197.094 262.506C198.086 262.571 198.866 262.446 199.484 262.141C200.095 261.84 200.591 261.344 200.983 260.587C201.784 259.037 202.118 256.461 202.062 252.523L201.563 238.053C201.336 236.525 200.887 235.614 200.213 235.039C199.527 234.454 198.526 234.144 197.033 234.005H174.114ZM143.349 233.996C141.881 233.944 141.199 234.284 140.806 234.838C140.363 235.462 140.184 236.473 140.06 238.035L140.061 238.036C139.678 244.416 139.776 245.337 140.062 252.486L140.063 252.513L140.061 252.541C139.823 255.895 139.78 258.441 140.281 260.136C140.527 260.968 140.892 261.55 141.391 261.926C141.888 262.302 142.577 262.518 143.556 262.505H167.021C167.947 262.37 168.533 262.041 168.969 261.556C169.416 261.059 169.738 260.364 170.062 259.42V237.141C169.679 236.5 169.332 235.829 168.849 235.226C168.36 234.616 167.784 234.158 167.009 234.005C156.862 234.028 153.382 233.975 143.564 234.005H143.549C143.483 234.004 143.418 234.001 143.354 233.997C143.352 233.997 143.35 233.996 143.349 233.996ZM170.561 231.516C170.381 231.92 170.168 232.287 169.883 232.608C169.529 233.007 169.086 233.315 168.517 233.563C168.956 233.851 169.32 234.216 169.629 234.601C169.975 235.033 170.272 235.521 170.532 235.967C170.972 235.13 171.612 234.097 172.713 233.475C172.037 233.143 171.532 232.791 171.147 232.374C170.9 232.106 170.713 231.821 170.561 231.516ZM170.062 203.742C167.003 206.857 164.096 209.197 160.437 211.185C156.444 213.354 151.58 215.095 144.694 216.988L144.685 216.99L144.675 216.993C142.44 217.514 141.216 218.315 140.559 219.786C139.869 221.328 139.756 223.688 140.06 227.465L140.061 227.469C140.163 228.89 140.421 230.094 140.843 231.011C141.111 231.213 141.394 231.429 141.671 231.643C141.987 231.887 142.297 232.126 142.582 232.338C142.869 232.552 143.121 232.731 143.322 232.855C143.423 232.917 143.502 232.96 143.561 232.987C143.581 232.996 143.596 233.001 143.606 233.004C153.361 232.974 156.913 233.028 166.999 233.005C168.135 232.737 168.74 232.39 169.135 231.945C169.541 231.487 169.777 230.872 170.062 229.927V203.742ZM171.062 229.94C171.266 230.734 171.476 231.256 171.881 231.696C172.294 232.144 172.954 232.552 174.155 233.005H197.063C198.647 233.01 199.794 232.414 200.534 231.468C201.284 230.509 201.656 229.137 201.563 227.535L201.561 227.504L201.563 227.474C201.776 224.06 201.523 221.852 200.666 220.238C199.823 218.65 198.349 217.553 195.897 216.479C188.713 214.716 183.734 213.065 179.826 210.972C176.297 209.082 173.66 206.839 171.062 203.864V229.94Z" fill="black"/>
<path id="Obliques" d="M139.562 226.505C139.114 229.151 140.531 232.748 143.395 233.408C143.61 233.428 143.833 233.461 144.062 233.505C143.831 233.491 143.609 233.458 143.395 233.408C141.288 233.211 139.843 234.222 139.562 237.505C139.381 240.664 139.552 241.231 139.562 244.005C139.571 246.605 139.408 253.386 139.562 257.005C139.392 262.886 141.495 262.935 144.532 263.005L144.562 263.005C143.683 263.12 141.498 263.134 140.562 264.005C139.863 265.128 139.657 266.022 139.562 268.005V286.005C140.103 291.182 141.248 292.55 144.122 292.52C144.275 292.507 144.422 292.502 144.562 292.505C144.411 292.514 144.264 292.518 144.122 292.52C142.48 292.655 140.151 293.686 139.562 295.505C139.45 298.451 139.336 300.291 139.562 307.005L143.562 315.505C147.043 323.158 151.711 335.412 160.562 354.005C162.163 355.798 164.389 356.334 170.562 356.505C176.525 356.094 179.343 355.704 181.062 354.005C188.38 337.879 193.271 324.705 198.062 315.505L202.062 307.005C202.606 303.631 202.649 305.302 202.062 296.505C202.216 295.025 199.998 292.994 197.562 292.505C200.476 291.945 201.277 290.835 202.062 286.005V268.005C201.963 266.62 201.641 265.158 201.062 264.505C199.173 262.794 198.652 263.317 197.062 263.005C200.343 263.188 201.645 262.091 202.562 257.005V244.005L202.062 238.005C201.386 234.403 199.809 233.707 197.062 233.505C201.025 233.781 202.485 229.902 202.062 226.505C202.174 220.517 200.789 218.272 196.062 216.005C200.727 217.488 215.235 215.4 218.062 212.005C220.357 211.745 228.958 201.364 231.062 195.505V203.005V208.005C231.141 223.315 228.901 230.357 224.637 243.768L224.562 244.005L219.562 271.005C217.366 278.634 220.099 286.817 224.562 301.005C203.99 325.281 196.666 351.125 174.562 371.005C171.55 372.452 169.717 372.582 166.062 371.005C143.827 350.656 134.324 325.278 116.062 301.005L116.264 300.429C121.339 285.956 124.247 277.665 122.062 271.005L116.062 244.005C110.257 229.916 108.49 221.797 108.062 206.955C108.105 206.31 108.528 203.695 108.562 203.005C108.701 200.164 108.589 196.416 108.562 192.505C110.719 198.597 112.415 207.347 123.062 214.005C130.105 217.444 136.93 218.346 144.674 216.119C144.801 216.08 144.93 216.043 145.062 216.005C144.932 216.044 144.803 216.082 144.674 216.119C139.892 217.586 139.001 220.28 139.562 226.505Z" fill="#D9D9D9"/>
<path id="Obliques (Stroke)" d="M109.033 192.338C111.206 198.473 112.854 207.019 123.301 213.565C130.238 216.948 136.93 217.825 144.536 215.638C144.585 215.624 144.634 215.61 144.684 215.595C144.764 215.572 144.844 215.547 144.926 215.524L145.205 216.484C145.202 216.485 145.199 216.485 145.196 216.486C145.068 216.522 144.944 216.56 144.821 216.597C142.506 217.307 141.237 218.278 140.568 219.736C139.878 221.24 139.78 223.352 140.06 226.461L140.066 226.525L140.055 226.588C139.85 227.8 140.072 229.254 140.684 230.478C141.291 231.693 142.251 232.623 143.486 232.916C143.706 232.938 143.929 232.97 144.156 233.014L144.029 234.004C143.788 233.989 143.555 233.954 143.328 233.904C142.373 233.818 141.657 234.012 141.141 234.511C140.606 235.029 140.196 235.961 140.06 237.548C139.881 240.678 140.051 241.181 140.062 244.003C140.071 246.634 139.909 253.375 140.062 256.984V257.02C139.977 259.945 140.474 261.21 141.169 261.804C141.518 262.103 141.964 262.274 142.534 262.372C143.113 262.471 143.774 262.487 144.543 262.504L144.573 262.505L144.626 263.502C144.394 263.532 144.072 263.556 143.743 263.586C143.404 263.616 143.033 263.655 142.664 263.715C141.93 263.836 141.308 264.03 140.949 264.333C140.347 265.319 140.154 266.12 140.062 268.013V285.978C140.332 288.55 140.746 290.058 141.372 290.922C141.953 291.725 142.766 292.033 144.113 292.019C144.271 292.007 144.424 292.002 144.572 292.005L144.588 293.004C144.44 293.012 144.294 293.017 144.152 293.019C143.407 293.082 142.491 293.351 141.698 293.813C140.921 294.266 140.315 294.874 140.059 295.599C139.949 298.48 139.839 300.328 140.058 306.887L144.014 315.293L144.017 315.298C147.518 322.994 152.143 335.152 160.979 353.718C162.412 355.29 164.428 355.833 170.551 356.004C173.525 355.799 175.677 355.601 177.297 355.25C178.867 354.909 179.886 354.433 180.646 353.711C184.284 345.69 187.321 338.402 190.049 331.963C192.782 325.512 195.208 319.905 197.611 315.287L201.58 306.853C201.852 305.183 201.981 304.824 201.986 303.787C201.992 302.707 201.857 300.955 201.563 296.539L201.56 296.496L201.565 296.454C201.589 296.217 201.521 295.916 201.328 295.566C201.137 295.219 200.837 294.854 200.449 294.505C199.67 293.806 198.586 293.221 197.463 292.996L197.467 292.014C198.872 291.744 199.646 291.365 200.199 290.571C200.785 289.73 201.17 288.364 201.562 285.964V268.03C201.514 267.364 201.413 266.689 201.259 266.11C201.103 265.526 200.907 265.094 200.7 264.853C199.808 264.049 199.288 263.815 198.844 263.719C198.603 263.667 198.368 263.652 198.057 263.629C197.752 263.608 197.395 263.58 196.966 263.496L197.089 262.506C198.683 262.595 199.641 262.361 200.338 261.634C201.071 260.869 201.605 259.471 202.062 256.956V244.024L201.566 238.074C201.238 236.343 200.712 235.412 200.028 234.873C199.331 234.322 198.381 234.104 197.024 234.004L197.097 233.006C198.874 233.13 200.057 232.338 200.776 231.128C201.513 229.886 201.767 228.186 201.566 226.567L201.561 226.532L201.562 226.496C201.617 223.528 201.296 221.583 200.443 220.111C199.595 218.647 198.176 217.574 195.846 216.457L196.213 215.529C197.299 215.874 199.013 216.024 201.06 215.984C203.093 215.944 205.408 215.718 207.669 215.341C209.931 214.964 212.125 214.438 213.92 213.8C215.741 213.154 217.064 212.422 217.678 211.685L217.806 211.531L218.005 211.508C218.159 211.491 218.457 211.366 218.907 211.052C219.338 210.752 219.851 210.32 220.422 209.779C221.563 208.698 222.904 207.21 224.244 205.542C226.935 202.193 229.568 198.185 230.591 195.336L231.562 195.505L231.563 209.421C231.498 223.842 229.248 230.915 225.113 243.92L225.046 244.13L220.053 271.096L220.049 271.121L220.042 271.144C218.975 274.852 219.097 278.716 220.055 283.446C221.015 288.186 222.803 293.748 225.038 300.855L225.121 301.119L224.943 301.329C214.691 313.427 207.741 325.913 200.566 337.91C193.397 349.896 186.007 361.384 174.896 371.378L174.843 371.425L174.778 371.457C173.245 372.193 171.957 372.622 170.56 372.639C169.166 372.657 167.719 372.265 165.863 371.464L165.786 371.431L165.724 371.375C154.556 361.154 146.594 349.675 139.149 337.741C131.695 325.793 124.776 313.419 115.662 301.306L115.501 301.092L115.59 300.84L115.792 300.263C118.333 293.017 120.318 287.356 121.399 282.675C122.478 277.999 122.638 274.366 121.587 271.162L121.579 271.138L121.573 271.114L115.581 244.152C109.769 230.036 107.991 221.858 107.562 206.969V206.945L107.563 206.921C107.586 206.575 107.707 205.733 107.82 204.927C107.938 204.092 108.047 203.297 108.063 202.981C108.201 200.158 108.089 196.44 108.062 192.509L109.033 192.338ZM122.546 270.881C123.668 274.329 123.466 278.163 122.372 282.9C121.276 287.647 119.27 293.368 116.735 300.594L116.621 300.919C125.691 313.01 132.618 325.384 139.996 337.211C147.412 349.099 155.303 360.464 166.337 370.578C168.097 371.331 169.374 371.654 170.547 371.639C171.716 371.624 172.835 371.273 174.282 370.583C185.244 360.708 192.557 349.352 199.707 337.397C206.821 325.502 213.781 313.004 224.002 300.893C221.812 293.935 220.035 288.391 219.074 283.645C218.101 278.838 217.953 274.803 219.074 270.889L223.065 249.343C214.813 271.198 210.492 285.175 207.424 294.86C204.134 305.245 202.264 310.774 198.486 315.771C196.108 320.344 193.7 325.908 190.97 332.353C188.235 338.809 185.179 346.142 181.517 354.212L181.479 354.296L181.413 354.361C180.461 355.302 179.225 355.855 177.51 356.227C175.804 356.597 173.573 356.799 170.596 357.004L170.572 357.005H170.548C164.407 356.835 161.954 356.314 160.189 354.338L160.141 354.285L160.11 354.22C151.281 335.673 146.58 323.354 143.124 315.752C137.934 308.256 134.499 298.263 130.651 286.251C127.206 275.495 123.42 263.083 117.743 249.269L122.546 270.881ZM108.656 209.618C109.221 222.74 111.099 230.648 116.52 243.806L117.161 245.293C123.711 260.603 127.869 274.282 131.605 285.945C134.083 293.683 136.371 300.514 139.041 306.36C138.845 300.166 138.954 298.341 139.062 295.487L139.065 295.418L139.086 295.351C139.432 294.283 140.273 293.487 141.195 292.949C141.411 292.823 141.635 292.71 141.862 292.609C141.364 292.371 140.93 292.016 140.563 291.508C139.764 290.405 139.336 288.647 139.065 286.057L139.062 286.032V267.994L139.063 267.981C139.151 266.137 139.338 265.149 139.949 264.059L119.682 240.331L119.64 240.282L119.611 240.224C118.583 238.107 117.953 236.623 117.709 235.302C117.47 234.007 117.606 232.896 118.029 231.534L108.656 209.618ZM222.583 231.54C223.036 233.402 223.263 234.787 223.057 236.166C222.844 237.586 222.181 238.942 220.98 240.779L220.966 240.8L220.949 240.821L201.691 264.522C201.924 264.901 202.096 265.37 202.225 265.852C202.4 266.51 202.51 267.254 202.561 267.97L202.562 267.988V286.045L202.555 286.086C202.164 288.491 201.757 290.085 201.021 291.142C200.554 291.812 199.972 292.242 199.253 292.543C199.954 292.867 200.594 293.291 201.117 293.761C201.569 294.167 201.947 294.617 202.204 295.083C202.449 295.526 202.596 296.012 202.562 296.495C202.853 300.859 202.992 302.666 202.986 303.792C202.984 304.388 202.938 304.809 202.859 305.303C203.965 302.385 205.091 298.914 206.471 294.557C209.774 284.129 214.534 268.707 224.09 243.836L224.161 243.616C228.158 231.047 230.358 224.124 230.55 210.738L222.583 231.54ZM219.609 230.443C218.808 230.289 217.805 230.357 216.29 230.488L203.062 244.207V257.05L203.054 257.094C202.595 259.639 202.023 261.322 201.06 262.327C200.738 262.662 200.382 262.912 199.992 263.095C200.297 263.26 200.626 263.482 200.998 263.79L220.157 240.21C221.327 238.418 221.888 237.214 222.067 236.017C222.245 234.834 222.059 233.604 221.603 231.736C220.95 230.936 220.362 230.588 219.609 230.443ZM123.819 230.461C122.418 230.108 121.552 229.997 120.88 230.162C120.243 230.317 119.699 230.745 119.016 231.728C118.599 233.037 118.485 234 118.692 235.121C118.907 236.282 119.47 237.639 120.484 239.731L140.641 263.328C140.836 263.211 141.048 263.115 141.269 263.035C141.003 262.915 140.751 262.762 140.52 262.564C139.449 261.649 138.978 259.956 139.061 257.014C138.912 253.48 139.061 246.941 139.061 244.226L123.819 230.461ZM123.515 219.154C122.996 219.097 122.613 219.106 122.298 219.18C121.714 219.318 121.237 219.707 120.517 220.728C120.185 221.83 120.197 222.826 120.74 224.131C121.309 225.498 122.457 227.196 124.429 229.664L139.046 242.866C139.006 241.025 138.909 240.155 139.063 237.477L139.064 237.462C139.209 235.767 139.661 234.552 140.445 233.793C140.779 233.47 141.158 233.245 141.567 233.099C140.808 232.539 140.212 231.771 139.789 230.925C139.146 229.64 138.873 228.13 139.02 226.782L125.394 219.482C124.626 219.325 124.02 219.21 123.515 219.154ZM217.517 219.056C217.282 219.01 217.022 219.028 216.645 219.11C216.262 219.193 215.851 219.317 215.253 219.471L202.593 226.775C202.744 228.46 202.461 230.251 201.637 231.638C201.161 232.44 200.504 233.098 199.666 233.518C200.019 233.664 200.347 233.85 200.649 234.088C201.546 234.798 202.129 235.908 202.484 237.573L202.558 237.938L202.56 237.963L202.968 242.863L215.678 229.681C218.443 225.844 219.619 223.823 219.565 220.701C218.5 219.514 217.977 219.147 217.517 219.056ZM230.562 205.452C228.371 210.417 226.496 213.472 224.886 215.62C223.966 216.846 223.138 217.771 222.399 218.577C221.702 219.338 221.102 219.977 220.565 220.671C220.623 223.895 219.462 226.067 217.095 229.418C218.16 229.338 219.039 229.315 219.798 229.461C220.606 229.616 221.265 229.959 221.887 230.563L230.562 207.913V205.452ZM108.811 205.066C108.706 205.812 108.606 206.519 108.571 206.876L118.683 230.516C119.266 229.823 119.875 229.378 120.643 229.19C121.277 229.035 121.982 229.068 122.806 229.214C121.317 227.282 120.351 225.796 119.817 224.516C119.217 223.075 119.164 221.89 119.501 220.642C115.227 216.2 113.169 213.055 108.861 204.687C108.844 204.813 108.828 204.94 108.811 205.066ZM217.649 213.062C216.794 213.704 215.602 214.264 214.255 214.743C212.389 215.405 210.134 215.944 207.833 216.328C205.53 216.712 203.167 216.942 201.079 216.983C200.252 216.999 199.461 216.983 198.73 216.936C199.847 217.702 200.698 218.555 201.309 219.609C202.203 221.152 202.547 223.067 202.566 225.637L214.796 218.581C215.42 218.136 216.005 218 216.463 217.908C216.965 217.807 217.173 217.769 217.332 217.623C217.474 217.493 217.655 217.186 217.727 216.3C217.785 215.581 217.765 214.551 217.649 213.062ZM123.477 214.757C123.313 216.166 123.235 217.032 123.234 217.561C123.234 217.748 123.246 217.871 123.258 217.949C123.289 217.944 123.326 217.94 123.371 217.933C123.525 217.908 123.747 217.871 124.001 217.87C124.526 217.868 125.142 218.022 125.831 218.583L138.992 225.633C138.806 222.967 138.931 220.907 139.66 219.319C139.995 218.591 140.449 217.977 141.031 217.454C134.891 218.457 129.235 217.45 123.477 214.757ZM230.562 197.87C229.217 200.51 227.118 203.562 225.024 206.169C223.664 207.86 222.293 209.383 221.109 210.504C220.519 211.064 219.967 211.533 219.48 211.873C219.183 212.08 218.882 212.256 218.596 212.372C218.757 214.207 218.795 215.484 218.723 216.381C218.655 217.219 218.485 217.81 218.149 218.21C218.734 218.452 219.308 218.947 220.034 219.731C220.536 219.116 221.083 218.534 221.662 217.901C222.393 217.104 223.196 216.208 224.086 215.02C225.856 212.658 227.993 209.118 230.562 202.906V197.87ZM109.096 195.682C109.13 198.349 109.159 200.847 109.066 202.892C113.759 212.094 115.763 215.279 120.012 219.729C120.644 218.911 121.247 218.4 122.069 218.207C122.139 218.19 122.211 218.176 122.282 218.165C122.249 217.986 122.234 217.783 122.234 217.561C122.235 216.918 122.335 215.886 122.528 214.258C113.604 208.568 110.974 201.388 109.096 195.682Z" fill="black"/>
<g id="Quads">
<path d="M195.562 478.505C195.448 470.581 194.862 465.867 190.062 455.505C190.937 419.277 189.534 397.069 198.562 369.005C197.666 361.421 194.548 356.182 190.562 352.505L201.062 335.505L205.562 328.505L209.062 322.505C255.036 348.208 257.233 390.672 229.562 468.005C227.238 475.884 226.364 477.437 225.062 478.505C221.993 475.959 220.249 473.398 217.062 465.005C216.107 476.919 214.493 478.833 211.562 482.005C208.278 480.697 206.307 479.488 201.062 471.005C199.583 475.422 198.323 476.94 195.562 478.505Z" fill="#D9D9D9"/>
<path d="M151.062 455.505C147.282 465.327 147.115 470.023 146.562 478.505C144.193 477.07 142.877 475.563 140.562 471.005C136.225 478.663 133.824 480.452 129.562 482.005C126.479 478.463 125.08 475.576 124.562 465.005C121.808 473.19 120.05 476.095 116.562 478.505C113.819 477.106 112.423 475.365 110.562 468.005C84.9235 394.686 87.9562 352.397 130.562 322.505L134.062 329.005L138.062 335.505L149.562 352.505C146.28 355.474 143.836 361.189 142.562 369.005C152.273 405.777 150.009 422.786 151.062 455.505Z" fill="#D9D9D9"/>
</g>
<path id="Quads (Stroke)" d="M209.305 322.069C232.414 334.988 244.567 352.161 247.425 375.834C250.277 399.447 243.875 429.483 230.04 468.152C228.879 472.089 228.071 474.474 227.385 476.013C226.69 477.572 226.104 478.297 225.378 478.892L225.06 479.154L224.743 478.89C221.839 476.481 220.102 474.045 217.372 467.178C216.915 471.877 216.321 474.832 215.521 476.96C214.596 479.419 213.403 480.75 211.929 482.345L211.696 482.597L211.376 482.47C209.704 481.804 208.323 481.144 206.698 479.553C205.208 478.095 203.525 475.862 201.189 472.149C200.565 473.859 199.947 475.118 199.193 476.125C198.292 477.326 197.224 478.137 195.808 478.94L195.074 479.357L195.062 478.512C195.005 474.56 194.83 471.441 194.081 468.027C193.33 464.611 192 460.878 189.608 455.715L189.559 455.61L189.562 455.494C190.435 419.357 189.033 397.06 198.051 368.959C197.153 361.551 194.103 356.452 190.222 352.873L189.919 352.593L200.636 335.243L200.641 335.235L205.131 328.25L208.629 322.253L208.877 321.83L209.305 322.069ZM134.492 328.751L138.476 335.225L150.219 352.585L149.897 352.877C146.757 355.717 144.345 361.255 143.072 368.981C152.77 405.752 150.511 422.842 151.561 455.49L151.565 455.59L151.529 455.685C147.777 465.433 147.613 470.067 147.061 478.538L147.007 479.36L146.302 478.933C145.08 478.192 144.112 477.42 143.154 476.241C142.323 475.218 141.509 473.899 140.539 472.05C138.577 475.433 136.985 477.624 135.379 479.157C133.636 480.82 131.901 481.685 129.733 482.475L129.41 482.593L129.184 482.334C127.616 480.532 126.452 478.866 125.624 476.295C124.941 474.17 124.493 471.442 124.212 467.527C121.886 473.984 120.104 476.665 116.846 478.917L116.6 479.086L116.334 478.951C114.902 478.22 113.787 477.378 112.803 475.75C111.84 474.155 111.012 471.823 110.081 468.147C97.2613 431.479 91.5812 402.494 94.4741 378.909C97.3724 355.279 108.87 337.114 130.275 322.096L130.735 321.773L134.492 328.751ZM139.342 408.057C132.051 427.948 128.333 440.962 125.063 465.027C125.322 470.274 125.8 473.573 126.577 475.988C127.31 478.266 128.318 479.776 129.713 481.412C131.65 480.682 133.166 479.887 134.689 478.433C136.297 476.899 137.937 474.613 140.072 470.853C141.936 448.467 143.023 434.87 139.342 408.057ZM202.283 408.082C199.258 430.692 199.516 444.64 201.55 470.844C204.134 475.015 205.896 477.369 207.397 478.838C208.789 480.202 209.968 480.813 211.428 481.41C212.768 479.952 213.779 478.753 214.585 476.608C215.446 474.318 216.082 470.931 216.558 465.012C213.727 442.332 210.064 429.496 202.283 408.082ZM130.389 323.24C109.485 338.05 98.3054 355.883 95.4662 379.031C92.691 401.658 97.8788 429.405 109.854 464.428L111.034 467.84L111.04 467.861L111.046 467.882C111.975 471.555 112.775 473.769 113.659 475.232C114.464 476.565 115.349 477.286 116.525 477.919C119.705 475.642 121.401 472.817 124.072 464.888C127.448 440.045 131.304 426.911 139.04 405.97C133.147 380.269 134.276 358.758 133.564 329.136L130.389 323.24ZM206.067 328.631C207.027 352.149 208.288 376.028 202.578 405.964C210.821 428.503 214.63 441.49 217.55 464.883C220.596 472.892 222.291 475.468 225.053 477.84C225.508 477.399 225.943 476.794 226.472 475.606C227.129 474.133 227.921 471.803 229.082 467.864L229.086 467.85L229.091 467.837C242.923 429.183 249.255 399.327 246.432 375.954C243.634 352.781 231.831 335.937 209.245 323.183L206.067 328.631ZM201.55 335.669L199.06 369.043L199.056 369.102L199.038 369.159C190.047 397.105 191.435 419.197 190.564 455.403C192.942 460.547 194.291 464.324 195.057 467.812C195.772 471.067 195.973 474.052 196.044 477.63C197.014 477.013 197.754 476.375 198.392 475.524C199.178 474.476 199.833 473.077 200.554 470.939C198.456 443.915 198.24 429.85 201.567 405.936L201.568 405.924L201.571 405.912C207.17 376.646 206.076 353.202 205.125 330.106L201.55 335.669ZM134.602 330.837C135.227 359.246 134.292 380.08 139.777 404.693L140.049 405.893L140.053 405.914L140.057 405.935C144.081 434.168 142.982 447.964 141.072 470.904C142.194 473.103 143.066 474.547 143.93 475.611C144.614 476.453 145.3 477.063 146.118 477.624C146.63 469.677 146.914 464.917 150.558 455.42C149.512 422.727 151.761 405.796 142.079 369.133L142.07 369.103L142.066 369.072L137.58 335.675L134.602 330.837ZM142.646 365.882C143.977 359.785 146.112 355.151 148.909 352.432L138.84 337.548L142.646 365.882ZM191.201 352.42C194.407 355.474 197.021 359.547 198.357 365.026L200.41 337.51L191.201 352.42Z" fill="black"/>
<path id="Adductors" d="M172.562 372.005C169.279 372.189 171.924 372.228 168.562 372.005C167.196 390.145 165.041 397.836 160.562 411.505C154.795 427 153.385 436.228 151.062 455.505L151.056 454.877C150.708 418.653 150.512 398.15 142.562 368.505C144.11 360.649 146.596 354.832 149.562 352.505C161.263 365.532 165.415 372.128 168.562 372.005C171.924 372.228 169.279 372.189 172.562 372.005C177.758 369.594 180.92 364.205 190.562 352.505C194.471 355.83 197.655 361.066 198.562 368.505C191.179 390.39 190.336 412.47 190.062 455.505C187.334 436.736 185.948 425.996 180.062 411.505C176.588 400.712 174.71 393.446 172.562 372.005Z" fill="#D9D9D9"/>
<path id="Adductors (Stroke)" d="M190.886 352.125C194.896 355.534 198.136 360.887 199.058 368.445L199.071 368.557L199.035 368.666C191.683 390.461 190.837 412.459 190.562 455.508L189.566 455.578C186.838 436.799 185.458 426.119 179.599 411.694L179.591 411.676L179.586 411.659C176.126 400.908 174.245 393.635 172.113 372.534C171.592 372.566 171.275 372.592 171.073 372.612C170.853 372.633 170.711 372.655 170.606 372.658C170.482 372.661 170.348 372.645 170.099 372.623C169.886 372.603 169.556 372.577 169.022 372.54C167.65 390.374 165.484 398.089 161.037 411.661L161.033 411.67L161.03 411.68C155.285 427.119 153.879 436.299 151.558 455.565L150.562 455.51L150.556 454.882C150.209 418.656 150.01 398.211 142.078 368.635L142.049 368.523L142.071 368.409C142.85 364.456 143.867 361.001 145.071 358.232C146.271 355.473 147.676 353.35 149.253 352.112L149.621 351.823L149.934 352.171C152.863 355.433 155.32 358.291 157.405 360.741C159.493 363.193 161.201 365.228 162.644 366.854C164.089 368.483 165.244 369.674 166.222 370.45C167.207 371.231 167.937 371.529 168.542 371.505L168.568 371.504L168.595 371.506C169.439 371.562 169.908 371.602 170.189 371.628C170.491 371.655 170.531 371.659 170.577 371.658C170.641 371.656 170.664 371.647 170.976 371.617C171.239 371.591 171.671 371.556 172.432 371.512C174.892 370.35 176.91 368.477 179.514 365.415C182.166 362.295 185.325 358.073 190.176 352.187L190.499 351.795L190.886 352.125ZM190.621 353.221C186.009 358.835 182.853 363.03 180.275 366.062C177.724 369.062 175.643 371.04 173.094 372.301C175.223 393.43 177.092 400.646 180.53 411.331C185.721 424.113 187.426 434.001 189.611 448.931C189.943 410.237 191.058 389.247 198.051 368.457C197.172 361.44 194.236 356.457 190.621 353.221ZM149.512 353.202C148.255 354.332 147.059 356.17 145.988 358.631C144.832 361.29 143.841 364.632 143.074 368.488C150.498 396.215 151.15 415.988 151.487 448.015C153.363 433.488 155.101 424.743 160.093 411.331C164.517 397.827 166.659 390.191 168.023 372.469C167.238 372.344 166.443 371.903 165.6 371.234C164.548 370.4 163.344 369.151 161.896 367.518C160.444 365.882 158.724 363.833 156.644 361.389C154.638 359.033 152.291 356.304 149.512 353.202Z" fill="black"/>
<g id="Abductors">
<path d="M116.062 301.505C121.477 307.609 127.146 317.404 130.562 322.505C89.248 350.827 84.0894 393.291 110.375 468.005C108.203 476.25 106.725 478.902 103.875 482.005C86.9901 410.476 90.6436 357.758 116.062 301.505Z" fill="#D9D9D9"/>
<path d="M224.562 301.505C219.717 305.566 216.629 310.664 209.062 322.505C255.2 347.458 256.84 391.147 229.375 468.505C232.339 476.828 233.976 479.363 236.875 482.005C253.172 398.884 253.956 357.291 224.562 301.505Z" fill="#D9D9D9"/>
</g>
<path id="Abductors (Stroke)" d="M116.435 301.173C121.881 307.31 127.595 317.175 130.977 322.227L131.253 322.638L130.845 322.918C110.292 337.007 98.7614 354.584 95.614 377.925C92.4619 401.303 97.7124 430.507 110.846 467.839L110.897 467.984L110.858 468.132C109.77 472.264 108.849 475.024 107.831 477.149C106.807 479.286 105.693 480.765 104.243 482.343L103.605 483.039L103.388 482.121C86.4832 410.504 90.1349 357.67 115.606 301.299L115.924 300.596L116.435 301.173ZM225.004 301.272C239.73 329.219 246.907 353.635 248.352 381.479C249.797 409.306 245.515 440.536 237.365 482.102L237.194 482.973L236.538 482.375C233.548 479.65 231.877 477.022 228.904 468.673L228.845 468.505L228.904 468.338C242.632 429.672 249.053 399.501 246.323 375.911C243.599 352.376 231.762 335.351 208.824 322.945L208.35 322.689L208.64 322.236C216.185 310.429 219.322 305.245 224.24 301.123L224.716 300.724L225.004 301.272ZM247.599 396.108C246.135 416.227 239.973 440.12 229.905 468.503C232.586 476.005 234.156 478.661 236.557 481.015C243.204 447.003 247.22 419.994 247.599 396.108ZM94.0535 400.939C93.8869 425.476 97.2787 451.627 104.142 480.95C105.235 479.683 106.111 478.424 106.929 476.717C107.893 474.703 108.785 472.055 109.851 468.024C100.722 442.047 95.3822 419.935 94.0535 400.939ZM224.408 302.295C219.963 306.179 216.898 311.164 209.77 322.324C230.59 333.716 242.322 348.992 246.342 369.512C243.675 346.81 236.736 325.812 224.408 302.295ZM116.199 302.423C106.388 324.282 99.871 345.618 96.5789 367.755C101.405 349.136 112.394 334.464 129.875 322.373C126.52 317.3 121.287 308.354 116.199 302.423Z" fill="black"/>
<g id="Calves">
<path d="M125.062 598.505C143.533 532.453 144.633 519.824 139.062 509.005C117.418 522.505 112.833 545.562 118.062 602.005C120.663 618.934 119.478 622.537 123.562 630.505C123.261 613.478 122.115 606.033 125.062 598.505Z" fill="#D9D9D9"/>
<path d="M105.062 505.005L103.062 502.505C93.9738 540.712 97.3104 560.336 100.062 602.005L102.062 637.005L103.562 624.005C114.527 576.418 112.775 560.405 105.062 505.005Z" fill="#D9D9D9"/>
<path d="M221.562 602.005C230.74 540.929 222.511 524.922 202.562 509.005C198.991 515.385 202.032 539.231 215.562 598.505C217.732 604.377 216.683 616.702 215.562 634.005C219.352 624.575 219.41 618.101 221.562 602.005Z" fill="#D9D9D9"/>
<path d="M237.562 503.005C235.92 505.138 236.43 504.267 234.562 506.005C229.533 600.947 230.788 611.071 236.562 624.505C237.421 633.625 238.831 635.093 239.062 637.505L240.562 604.005C240.438 558.507 251.103 527.148 237.562 503.005Z" fill="#D9D9D9"/>
</g>
<path id="Calves (Stroke)" d="M237.998 502.761C244.843 514.965 245.552 528.966 244.593 545.526C243.631 562.124 241 581.27 241.062 604.004V604.028L239.562 637.528L238.563 637.553C238.51 636.995 238.389 636.485 238.214 635.878C238.043 635.282 237.809 634.556 237.564 633.651C237.07 631.822 236.502 629.167 236.071 624.628C233.173 617.871 231.417 611.901 231.011 595.834C230.603 579.732 231.548 553.446 234.062 505.979L234.073 505.777L234.221 505.639C235.159 504.767 235.551 504.504 235.821 504.273C236.088 504.045 236.342 503.77 237.165 502.701L237.627 502.1L237.998 502.761ZM105.538 504.8L105.557 504.936C109.412 532.628 111.785 550.517 111.816 567.434C111.848 584.357 109.538 600.292 104.056 624.086L102.559 637.063L101.562 637.034L99.5625 602.039L99.3037 598.197C96.6163 559.144 93.751 539.488 102.575 502.39L102.812 501.393L105.538 504.8ZM202.873 508.615C212.897 516.613 220.03 524.68 223.47 538.45C226.898 552.175 226.646 571.526 222.057 602.071C219.912 618.113 219.846 624.685 216.025 634.192L215.062 633.973C215.624 625.313 216.165 617.922 216.296 611.958C216.427 605.975 216.141 601.514 215.093 598.678L215.081 598.648L215.074 598.617C208.309 568.977 204.163 548.18 202.154 533.99C201.15 526.896 200.678 521.438 200.684 517.345C200.689 513.273 201.166 510.475 202.125 508.761L202.413 508.248L202.873 508.615ZM237.488 503.911C237 504.525 236.75 504.795 236.472 505.033C236.138 505.318 235.865 505.488 235.049 506.238C232.542 553.583 231.605 579.777 232.011 595.808C232.391 610.836 233.951 616.894 236.498 623.069L237.021 624.308L237.052 624.38L237.06 624.459C237.487 628.993 238.05 631.612 238.53 633.39C238.594 633.626 238.656 633.846 238.716 634.053L240.062 604.006C239.999 581.242 242.639 561.959 243.594 545.468C244.533 529.243 243.847 515.695 237.488 503.911ZM103.312 503.621C94.8166 539.902 97.6359 559.393 100.301 598.128L100.561 601.972V601.977L102.229 631.183L103.064 623.948L103.068 623.92L103.074 623.893C108.553 600.118 110.848 584.259 110.816 567.436C110.785 550.628 108.431 532.841 104.585 505.211L103.312 503.621ZM139.506 508.777C142.357 514.313 143.468 520.292 141.572 533.116C139.679 545.918 134.777 565.619 125.543 598.64L125.536 598.665L125.527 598.688C124.086 602.371 123.638 606.046 123.594 610.948C123.55 615.875 123.911 621.949 124.062 630.497L123.116 630.734C121.043 626.688 120.305 623.738 119.76 619.682C119.213 615.617 118.87 610.557 117.567 602.082L117.565 602.067L117.563 602.051C114.949 573.826 114.78 553.884 117.996 539.295C121.221 524.666 127.853 515.408 138.797 508.582L139.258 508.294L139.506 508.777ZM202.734 509.787C202.07 511.32 201.689 513.753 201.684 517.346C201.678 521.371 202.143 526.775 203.145 533.849C205.146 547.991 209.282 568.746 216.042 598.367C217.153 601.403 217.426 606.029 217.296 611.98C217.182 617.161 216.76 623.411 216.286 630.595C218.897 622.814 219.164 616.173 221.066 601.939L221.067 601.931C225.655 571.405 225.877 552.217 222.499 538.692C219.187 525.431 212.401 517.576 202.734 509.787ZM138.863 509.724C128.44 516.369 122.098 525.333 118.973 539.509C115.793 553.931 115.945 573.733 118.558 601.939C119.855 610.387 120.219 615.59 120.751 619.549C121.185 622.78 121.738 625.26 123.012 628.185C122.845 620.887 122.554 615.409 122.594 610.938C122.638 605.989 123.088 602.183 124.586 598.346C133.818 565.33 138.701 545.696 140.583 532.969C142.404 520.653 141.403 514.878 138.863 509.724Z" fill="black"/>
<g id="Feet">
<path d="M136.062 511.505C141.536 506.296 147.436 502.426 146.562 478.505C144.189 477.221 142.879 475.356 140.562 471.005C135.897 478.925 133.569 480.546 129.562 482.005C126.851 479.625 125.749 475.559 124.062 466.505C121.792 473.233 120.085 475.66 116.562 478.505C113.663 477.058 112.305 475.066 110.562 468.505C107.349 477.62 106.033 479.823 104.062 481.505C101.359 493.673 102.128 497.048 102.562 500.005C102.882 502.253 103.377 503.38 105.172 505.005C114.699 572.532 110.712 594.582 103.562 623.005L102.562 633.505C101.485 637.996 102.587 641.015 103.562 645.505C103.267 646.277 99.0163 648.834 97.0616 652.005L90.0616 666.505C87.2361 673.956 84.0533 678.021 74.5616 685.005C72.8727 688.773 72.0337 690.907 74.5616 695.505C80.8398 697.992 83.9464 697.717 89.0616 695.505C95.1832 700.366 100.143 699.041 110.562 692.505C114.882 680.482 116.211 672.614 125.562 667.505C128.399 660.267 129.183 655.443 124.062 645.505C125.51 639.684 126.027 636.128 124.062 631.005C120.21 625.035 120.852 620.575 118.062 602.005C115.206 553.405 112.942 528.476 136.062 511.505Z" fill="#D9D9D9"/>
<path d="M205.062 511.505C200.091 505.641 194.063 502.704 195.562 478.505C198.075 477.152 199.315 475.665 201.062 471.005C205.354 477.781 207.687 480.617 211.562 482.005C215.071 478.828 216.156 474.927 217.062 465.505C220.555 473.685 222.295 476.438 225.062 478.505C226.316 477.466 227.277 475.42 229.562 468.505C232.116 476.07 233.623 479.272 236.562 481.505C239.593 492.88 239.543 498.81 238.062 501.505C237.118 503.546 236.338 504.52 234.562 506.093C229.214 591.825 230.515 608.42 236.562 624.505C237.226 628.575 237.12 628.395 238.062 633.505C239.402 639.605 239.467 642.701 238.062 645.505L243.562 654.005C246.105 662.519 246.859 662.843 249.062 666.505C252.446 672.416 251.052 674.108 264.562 685.005C266.958 689.937 267.856 692.548 264.562 695.505C260.702 697.457 257.716 697.553 250.562 695.505C246.129 700.456 240.956 698.865 229.562 692.505C228.736 685.881 231.294 682.931 216.062 669.005C213.769 664.907 212.755 661.625 216.062 647.505C214.224 643.44 213.123 638.715 216.062 631.005C219.651 622.43 218.975 618.613 221.562 602.005C228.454 549.087 226.883 528.661 205.062 511.505Z" fill="#D9D9D9"/>
</g>
<path id="Feet (Stroke)" d="M124.553 466.414C125.397 470.943 126.089 474.191 126.901 476.598C127.663 478.855 128.519 480.335 129.672 481.428C131.504 480.742 132.95 480.005 134.471 478.565C136.085 477.037 137.805 474.7 140.131 470.752L140.583 469.983L141.003 470.77C143.176 474.85 144.411 476.632 146.393 477.833L146.8 478.066L147.051 478.202L147.062 478.487C147.5 490.48 146.244 497.516 144.15 502.225C142.051 506.944 139.119 509.286 136.406 511.868L136.383 511.889L136.358 511.909C124.928 520.299 119.769 530.64 117.817 544.961C115.858 559.325 117.13 577.64 118.559 601.957C119.255 606.593 119.739 610.35 120.131 613.468C120.524 616.596 120.824 619.07 121.157 621.151C121.821 625.293 122.606 627.827 124.482 630.734L124.51 630.778L124.528 630.827C126.529 636.041 126.013 639.699 124.591 645.445C127.109 650.366 128.205 654.087 128.296 657.504C128.388 660.961 127.452 664.053 126.027 667.688L125.961 667.857L125.801 667.944C121.23 670.441 118.626 673.603 116.623 677.635C114.599 681.709 113.209 686.616 111.032 692.674L110.974 692.837L110.827 692.929C105.621 696.195 101.699 698.213 98.2814 698.772C94.8917 699.326 92.0433 698.438 88.9874 696.078C86.5267 697.123 84.4713 697.732 82.256 697.767C79.9619 697.803 77.5448 697.225 74.3771 695.97L74.2101 695.904L74.1232 695.747C72.8321 693.398 72.3682 691.618 72.4816 689.911C72.5934 688.227 73.2674 686.671 74.1056 684.801L74.1593 684.681L74.2657 684.603C78.9995 681.12 82.1291 678.385 84.4259 675.611C86.7162 672.845 88.1941 670.019 89.5939 666.328L89.6017 666.308L89.6114 666.288L96.6114 651.788L96.6222 651.765L96.6359 651.743C97.6583 650.084 99.2644 648.609 100.612 647.473C100.952 647.188 101.277 646.921 101.574 646.677C101.873 646.433 102.143 646.215 102.374 646.019C102.606 645.823 102.79 645.658 102.922 645.525C102.968 645.478 103.001 645.438 103.026 645.408C102.078 641.095 100.989 637.966 102.066 633.428L103.064 622.958L103.067 622.92L103.076 622.883C106.648 608.684 109.424 596.105 110.121 578.649C110.818 561.215 109.443 538.902 104.701 505.251C103.853 504.466 103.273 503.763 102.868 502.964C102.444 502.127 102.23 501.221 102.067 500.078C101.851 498.604 101.543 496.978 101.636 494.193C101.729 491.417 102.218 487.498 103.573 481.397L103.609 481.234L103.737 481.126C105.591 479.544 106.87 477.472 110.09 468.339L110.629 466.811L111.045 468.378C111.915 471.65 112.675 473.727 113.555 475.161C114.357 476.468 115.268 477.249 116.5 477.907C118.105 476.586 119.303 475.35 120.36 473.692C121.479 471.939 122.458 469.695 123.588 466.345L124.201 464.527L124.553 466.414ZM217.522 465.309C220.869 473.148 222.569 475.893 225.032 477.848C225.474 477.393 225.921 476.712 226.47 475.503C227.14 474.024 227.945 471.806 229.087 468.348L229.557 466.927L230.035 468.345C232.516 475.691 233.972 478.785 236.606 480.905L236.864 481.107L237.001 481.211L237.045 481.377C238.565 487.081 239.319 491.444 239.503 494.732C239.685 497.985 239.312 500.245 238.516 501.715L238.334 502.099C237.46 503.901 236.649 504.892 235.048 506.327C229.88 589.244 230.957 607.282 236.481 622.83L237.029 624.33L237.047 624.376L237.055 624.424C237.722 628.508 237.613 628.31 238.554 633.415C239.854 639.334 239.989 642.567 238.634 645.469L243.982 653.734L244.021 653.794L244.041 653.862C245.311 658.112 246.125 660.29 246.889 661.855C247.466 663.039 248.007 663.865 248.717 664.994L249.49 666.248L249.495 666.257C250.353 667.755 250.911 668.991 251.463 670.141C252.015 671.292 252.566 672.37 253.425 673.599C255.039 675.91 257.763 678.788 263.654 683.623L264.875 684.617L264.962 684.686L265.011 684.787C266.2 687.235 267.074 689.209 267.194 690.961C267.32 692.788 266.63 694.321 264.896 695.878L264.847 695.921L264.787 695.952C262.805 696.954 261.017 697.493 258.8 697.505C256.665 697.518 254.157 697.039 250.723 696.069C249.634 697.229 248.477 698.039 247.177 698.492C245.792 698.974 244.284 699.037 242.586 698.739C239.219 698.148 235.005 696.117 229.317 692.942L229.097 692.819L229.066 692.567C228.859 690.908 228.856 689.399 228.747 688.037C228.636 686.644 228.41 685.274 227.752 683.684C226.429 680.485 223.331 676.328 215.725 669.375L215.664 669.32L215.625 669.25C214.457 667.161 213.593 665.238 213.462 662.034C213.333 658.889 213.91 654.527 215.536 647.553C214.635 645.529 213.91 643.314 213.772 640.648C213.63 637.913 214.106 634.735 215.595 630.828L215.597 630.82L215.601 630.812C217.376 626.571 218.095 623.515 218.693 619.445C218.994 617.401 219.263 615.109 219.62 612.275C219.977 609.448 220.419 606.094 221.066 601.941C224.512 575.476 225.831 557.209 223.586 543.425C221.349 529.69 215.571 520.404 204.753 511.899L204.713 511.868L204.68 511.829C202.255 508.968 199.407 506.662 197.427 502.08C195.441 497.483 194.311 490.607 195.063 478.474L195.08 478.197L195.324 478.065C196.536 477.413 197.412 476.746 198.199 475.696C198.998 474.631 199.725 473.147 200.594 470.83L200.946 469.889L201.484 470.738C205.674 477.351 207.919 480.069 211.446 481.428C214.625 478.429 215.677 474.674 216.564 465.458L217.522 465.309ZM123.916 468.421C123.016 470.882 122.169 472.716 121.203 474.23C120.015 476.093 118.665 477.45 116.876 478.894L116.626 479.096L116.338 478.953C114.82 478.194 113.679 477.275 112.702 475.684C111.899 474.375 111.217 472.622 110.503 470.159C107.734 477.854 106.414 480.101 104.516 481.769C103.195 487.747 102.725 491.557 102.636 494.226C102.569 496.238 102.716 497.608 102.886 498.793L103.057 499.933V499.935C103.214 501.038 103.408 501.818 103.76 502.512C104.11 503.203 104.635 503.843 105.505 504.631C108.113 506.833 111.339 507.569 116.603 508.007L116.521 509.003C111.818 508.612 108.522 507.976 105.834 506.137C110.464 539.247 111.813 561.349 111.12 578.689C110.419 596.228 107.629 608.877 104.056 623.085L103.06 633.553L103.056 633.587L103.048 633.622C102.005 637.973 103.063 640.849 104.05 645.399L104.082 645.545L104.028 645.684C103.95 645.889 103.782 646.079 103.634 646.228C103.469 646.394 103.258 646.582 103.02 646.783C102.78 646.985 102.504 647.21 102.207 647.452C101.909 647.695 101.589 647.958 101.256 648.238C99.9216 649.362 98.4311 650.745 97.4982 652.251L90.5216 666.701C89.0978 670.452 87.5729 673.378 85.1964 676.249C82.8404 679.094 79.6636 681.864 74.965 685.328C74.1427 687.166 73.5755 688.533 73.4796 689.977C73.3856 691.394 73.746 692.94 74.9142 695.106C77.9389 696.291 80.171 696.8 82.2403 696.767C84.3454 696.734 86.3306 696.141 88.8634 695.046L89.1378 694.927L89.3722 695.114C92.3485 697.477 94.9807 698.299 98.1193 697.786C101.286 697.268 105.012 695.385 110.148 692.172C112.258 686.279 113.688 681.295 115.728 677.19C117.783 673.053 120.48 669.754 125.158 667.157C126.533 663.628 127.381 660.731 127.296 657.531C127.209 654.282 126.159 650.668 123.617 645.735L123.531 645.567L123.576 645.384C125.013 639.61 125.501 636.181 123.61 631.227C121.657 628.184 120.843 625.509 120.17 621.309C119.833 619.207 119.53 616.711 119.139 613.593C118.747 610.472 118.264 606.716 117.567 602.08L117.564 602.057L117.563 602.035C116.136 577.76 114.85 559.316 116.825 544.827C118.805 530.302 124.068 519.697 135.74 511.12C138.494 508.502 141.24 506.304 143.235 501.819C145.225 497.346 146.477 490.557 146.07 478.799C143.863 477.526 142.534 475.693 140.537 472.016C138.418 475.543 136.764 477.77 135.158 479.291C133.544 480.819 132 481.615 130.15 482.317C131.445 487.762 132.042 491.998 131.451 496.032C130.843 500.183 128.988 504.065 125.463 508.804L124.66 508.207C128.129 503.543 129.887 499.815 130.462 495.887C131.034 491.981 130.445 487.824 129.109 482.27C127.731 481.013 126.771 479.339 125.954 476.918C125.233 474.78 124.613 472.029 123.916 468.421ZM217.363 467.459C216.496 475.446 215.332 479.201 212.012 482.268C210.554 488.153 210.309 492.547 211.028 496.49C211.754 500.468 213.467 504.032 215.99 508.249L215.133 508.762C212.588 504.51 210.802 500.824 210.044 496.67C209.304 492.611 209.554 488.147 210.972 482.316C207.331 480.873 204.986 478.057 201.172 472.106C200.438 473.953 199.763 475.277 198.999 476.295C198.159 477.415 197.227 478.144 196.044 478.807C195.33 490.703 196.463 497.328 198.345 501.682C200.238 506.064 202.874 508.161 205.409 511.143C216.388 519.786 222.296 529.285 224.573 543.264C226.845 557.212 225.503 575.617 222.058 602.07L222.056 602.083C221.41 606.228 220.968 609.575 220.612 612.4C220.257 615.221 219.985 617.533 219.683 619.59C219.075 623.725 218.337 626.865 216.523 631.199C215.078 634.994 214.636 638.028 214.77 640.596C214.903 643.167 215.615 645.301 216.518 647.299L216.587 647.455L216.548 647.62C214.897 654.671 214.338 658.966 214.462 661.993C214.583 664.952 215.358 666.713 216.462 668.695C224.043 675.632 227.268 679.898 228.676 683.302C229.386 685.018 229.627 686.499 229.744 687.958C229.857 689.37 229.854 690.653 230.029 692.193C235.619 695.304 239.625 697.205 242.759 697.754C244.332 698.03 245.661 697.961 246.849 697.547C248.036 697.134 249.123 696.362 250.19 695.171L250.399 694.939L250.699 695.025C254.265 696.046 256.744 696.517 258.794 696.505C260.801 696.494 262.422 696.017 264.275 695.088C265.798 693.705 266.296 692.466 266.197 691.03C266.094 689.525 265.338 687.755 264.158 685.322C257.457 679.91 254.401 676.744 252.605 674.171C251.7 672.877 251.121 671.742 250.561 670.573C250.001 669.405 249.465 668.216 248.633 666.762C247.556 664.972 246.783 663.921 245.989 662.294C245.193 660.661 244.365 658.435 243.103 654.216L237.486 645.537L237.614 645.282C238.935 642.646 238.912 639.705 237.573 633.613L237.571 633.604L237.569 633.596C236.63 628.498 236.73 628.64 236.075 624.629C230.022 608.499 228.733 591.792 234.002 507.033C231.305 508.584 228 509.182 223.542 509.005L223.581 508.005C228.382 508.196 231.655 507.46 234.255 505.695C235.97 504.173 236.702 503.254 237.608 501.295L237.623 501.264C238.297 500.039 238.684 497.995 238.505 494.788C238.328 491.623 237.602 487.384 236.12 481.795C233.328 479.611 231.803 476.529 229.566 470.062C228.661 472.745 227.977 474.6 227.381 475.915C226.685 477.45 226.093 478.3 225.381 478.89L225.077 479.141L224.763 478.906C222.094 476.912 220.369 474.304 217.363 467.459Z" fill="black"/>
<g id="Hands">
<path d="M43.0616 362.505C49.0558 351.77 53.2016 343.573 54.5616 331.005L36.5616 322.505C25.1261 326.084 19.4004 329.331 17.0616 331.505C12.3543 338.127 7.94455 340.697 1.06161 345.505C-0.107401 347.246 0.705477 347.651 2.06161 349.005C5.97842 350.276 8.2612 349.89 12.5616 348.505C16.421 346.961 18.0252 345.487 20.5616 342.505L17.0616 347.505C9.0276 360.8 1.92603 372.829 1.06161 377.005C1.27249 378.382 1.68707 378.969 4.06161 379.505C5.90861 380.17 12.3742 369.987 21.0616 356.005C13.8921 369.866 9.30709 379.546 9.06161 381.005C8.84132 384.817 11.0616 385.505 13.0616 385.005C15.0616 384.505 19.2749 374.559 28.0616 360.005C22.6111 372.868 20.1748 382.175 20.0616 385.005C20.8808 386.667 21.4395 387.474 23.5616 387.505C25.4523 387.274 26.5565 386.416 28.5616 383.005C29.6282 385.278 30.7955 385.968 33.5616 385.005C35.9026 380.92 36.9437 378.599 43.0616 362.505Z" fill="#D9D9D9"/>
<path d="M298.562 362.005C291.881 349.662 287.42 342.462 287.062 331.505L304.562 324.005C313.644 327.074 318.353 328.841 322.562 332.505C328.192 339.756 332.24 343.858 336.562 345.505C337.82 347.067 336.754 348.443 335.062 350.005C330.835 350.187 327.635 349.534 325.062 348.287C337.901 365.639 338.165 369.623 341.062 375.505C341.338 379.774 340.049 380.247 336.562 379.505C333.878 377.836 329.928 370.52 320.062 354.505C328.586 369.515 332.337 380.719 332.062 381.505C331.903 383.759 331.594 385.96 326.562 384.505C323.89 382.609 321.244 373.079 313.562 358.505C318.42 373.342 320.562 384.505 319.062 387.005C317.562 389.505 314.041 389.585 311.562 383.005C310.529 385.947 309.516 386.907 306.062 386.005C303.562 385.166 302.332 376.368 298.562 362.005Z" fill="#D9D9D9"/>
</g>
<path id="Hands (Stroke)" d="M304.722 323.532C313.506 326.499 318.29 328.276 322.485 331.784L322.89 332.128L322.927 332.161L322.957 332.199C328.417 339.23 332.315 343.195 336.349 344.882L336.74 345.039L336.866 345.086L336.951 345.192C337.311 345.638 337.526 346.1 337.592 346.581C337.657 347.062 337.566 347.522 337.377 347.956C337.01 348.797 336.244 349.594 335.4 350.373L335.267 350.497L335.083 350.505C331.653 350.653 328.865 350.257 326.524 349.434C332.26 357.281 335.3 362.258 337.233 365.966C338.258 367.932 338.97 369.536 339.604 371.013C340.161 372.308 340.654 373.492 341.249 374.744L341.511 375.285L341.555 375.374L341.56 375.473C341.631 376.559 341.605 377.442 341.454 378.141C341.302 378.846 341.013 379.405 340.528 379.78C340.048 380.151 339.446 380.286 338.78 380.294C338.117 380.301 337.339 380.182 336.458 379.995L336.372 379.976L336.298 379.93C335.548 379.464 334.753 378.633 333.843 377.452C332.926 376.262 331.863 374.675 330.583 372.652C329.583 371.072 328.446 369.214 327.136 367.061C328.189 369.31 329.084 371.354 329.824 373.149C330.812 375.545 331.526 377.502 331.977 378.914C332.203 379.618 332.365 380.194 332.463 380.625C332.511 380.839 332.545 381.028 332.562 381.182C332.571 381.259 332.576 381.337 332.575 381.41C332.574 381.451 332.569 381.504 332.559 381.563C332.519 382.118 332.468 382.712 332.327 383.255C332.183 383.81 331.935 384.354 331.473 384.768C330.535 385.607 328.957 385.718 326.423 384.986L326.342 384.962L326.272 384.913C325.5 384.364 324.787 383.317 324.043 381.928C323.288 380.521 322.46 378.678 321.483 376.461C320.03 373.159 318.234 368.995 315.837 364.092C317.35 369.151 318.483 373.632 319.187 377.287C319.667 379.778 319.95 381.899 320.017 383.564C320.051 384.396 320.032 385.126 319.951 385.737C319.872 386.341 319.728 386.866 319.49 387.262C318.651 388.661 317.169 389.471 315.512 388.881C314.118 388.386 312.737 386.939 311.57 384.34C311.162 385.243 310.68 385.947 309.979 386.374C308.982 386.98 307.689 386.947 305.935 386.489L305.919 386.485L305.902 386.479C305.469 386.333 305.103 386.029 304.786 385.635C304.469 385.241 304.181 384.731 303.909 384.127C303.365 382.919 302.851 381.258 302.305 379.205C301.757 377.147 301.17 374.667 300.486 371.813C299.805 368.971 299.027 365.752 298.093 362.19C291.448 349.916 286.924 342.606 286.561 331.522L286.551 331.18L286.864 331.045L304.54 323.47L304.722 323.532ZM287.576 331.829C288.009 342.451 292.371 349.517 299.001 361.767L299.03 361.82L299.045 361.878C299.989 365.474 300.774 368.721 301.459 371.58C302.144 374.441 302.728 376.906 303.271 378.948C303.816 380.994 304.313 382.588 304.821 383.715C305.075 384.279 305.323 384.706 305.566 385.009C305.805 385.307 306.021 385.46 306.21 385.527C307.897 385.965 308.832 385.901 309.46 385.519C310.086 385.138 310.54 384.365 311.037 382.982C309.009 375.489 307.96 371.246 305.088 362.664L306.036 362.347C308.935 371.01 309.988 375.283 312.036 382.846C313.258 386.08 314.682 387.525 315.847 387.939C316.944 388.329 317.972 387.85 318.633 386.749C318.77 386.52 318.888 386.149 318.96 385.606C319.03 385.07 319.051 384.402 319.018 383.604C318.954 382.009 318.68 379.943 318.205 377.476C317.255 372.546 315.512 366.067 313.087 358.661L314.004 358.272C317.855 365.577 320.444 371.62 322.398 376.058C323.377 378.282 324.192 380.088 324.925 381.456C325.639 382.789 326.24 383.63 326.786 384.048C329.224 384.74 330.297 384.479 330.806 384.023C331.069 383.787 331.244 383.45 331.359 383.003C331.476 382.553 331.523 382.036 331.562 381.47L331.567 381.404L331.575 381.38C331.575 381.362 331.574 381.334 331.569 381.294C331.558 381.19 331.532 381.042 331.487 380.845C331.399 380.454 331.246 379.909 331.025 379.218C330.584 377.839 329.88 375.909 328.899 373.53C326.938 368.773 323.878 362.239 319.627 354.753L320.487 354.243C325.428 362.263 328.872 368.08 331.428 372.118C332.704 374.134 333.747 375.69 334.635 376.842C335.494 377.957 336.18 378.654 336.758 379.034C337.578 379.205 338.239 379.299 338.769 379.294C339.317 379.287 339.674 379.176 339.917 378.989C340.155 378.805 340.356 378.491 340.476 377.93C340.595 377.381 340.627 376.634 340.567 375.632C339.858 374.183 339.302 372.842 338.685 371.409C338.055 369.942 337.355 368.363 336.347 366.428C334.337 362.573 331.094 357.287 324.729 348.679C323.187 347.917 321.866 346.949 320.686 345.828C319.995 345.313 319.316 344.744 318.766 344.139C318.321 343.651 317.943 343.117 317.717 342.55C315.847 342.781 314.572 342.955 313.578 342.962C312.471 342.971 311.675 342.777 310.746 342.26C309.859 341.767 308.83 340.967 307.266 339.801C305.685 338.624 303.512 337.036 300.288 334.923L300.561 334.505L300.836 334.087C304.082 336.215 306.272 337.814 307.863 339C309.47 340.197 310.42 340.935 311.231 341.386C312.001 341.814 312.626 341.97 313.571 341.962C314.56 341.955 315.86 341.771 318.001 341.509L318.293 341.473L318.467 341.711C319.359 342.941 320.293 344.068 321.332 345.062C322.246 345.739 323.207 346.339 323.973 346.828C324.353 347.071 324.695 347.293 324.948 347.479C325.074 347.572 325.191 347.665 325.285 347.756C325.319 347.79 325.366 347.838 325.412 347.899C327.837 349.044 330.858 349.66 334.856 349.51C335.635 348.781 336.201 348.149 336.46 347.555C336.591 347.254 336.636 346.98 336.6 346.715C336.568 346.476 336.465 346.212 336.247 345.918C331.84 344.184 327.749 339.996 322.199 332.853C318.113 329.308 313.536 327.568 304.582 324.541L287.576 331.829ZM36.7753 322.053L54.7753 330.553L55.0966 330.706L55.0585 331.059C53.6886 343.718 49.5076 351.984 43.5165 362.715C37.4122 378.772 36.3574 381.132 33.995 385.254L33.9023 385.417L33.7255 385.478C32.3056 385.972 31.1708 386.09 30.2245 385.677C29.5122 385.367 28.9821 384.787 28.5302 384.022C27.729 385.314 27.0453 386.212 26.3485 386.824C25.4962 387.572 24.6469 387.876 23.622 388.002L23.5888 388.005H23.5546C22.4316 387.989 21.6338 387.765 21.0068 387.254C20.4039 386.763 20.0184 386.048 19.6132 385.226L19.5566 385.113L19.5624 384.986C19.6218 383.5 20.2774 380.41 21.5819 376.122C22.4448 373.285 23.5997 369.907 25.0663 366.088C22.3531 370.82 20.1861 374.867 18.455 378.016C17.2553 380.198 16.257 381.961 15.4306 383.211C15.0177 383.835 14.6371 384.348 14.286 384.725C13.9487 385.088 13.5803 385.391 13.1825 385.491C12.1068 385.76 10.8738 385.735 9.92765 385.022C8.96423 384.296 8.44716 382.97 8.56241 380.976L8.56437 380.95L8.56827 380.922C8.60802 380.686 8.72353 380.333 8.88566 379.904C9.05247 379.462 9.28344 378.902 9.57316 378.234C10.153 376.897 10.9758 375.11 12.0136 372.94C12.9995 370.878 14.1805 368.467 15.5331 365.761C13.6292 368.749 11.9078 371.38 10.4071 373.534C8.93776 375.643 7.66784 377.314 6.64152 378.42C6.13059 378.971 5.65996 379.403 5.23917 379.678C4.8559 379.929 4.38551 380.132 3.92863 379.987C2.74531 379.718 1.94169 379.418 1.41495 378.942C0.856343 378.437 0.677429 377.801 0.567297 377.082L0.553625 376.992L0.57218 376.904C0.801485 375.796 1.43068 374.215 2.34464 372.29C3.26406 370.353 4.49025 368.032 5.93644 365.432C8.82905 360.232 12.617 353.894 16.6337 347.247L16.6425 347.232L16.6523 347.218L17.0146 346.7C15.852 347.55 14.527 348.257 12.747 348.969L12.7314 348.976L12.7148 348.981C10.5602 349.675 8.86481 350.134 7.20206 350.25C5.5264 350.366 3.91133 350.131 1.90714 349.481L1.79288 349.444L1.70792 349.359C1.40133 349.053 1.05119 348.728 0.810461 348.481C0.553263 348.217 0.311357 347.935 0.161047 347.611C0.0014229 347.267 -0.0446218 346.899 0.0458126 346.489C0.13209 346.097 0.338605 345.686 0.646399 345.227L0.698156 345.149L0.775305 345.095C7.68199 340.27 12.0078 337.751 16.6542 331.215L16.6835 331.174L16.7216 331.139C19.1462 328.885 24.9621 325.611 36.412 322.028L36.5985 321.97L36.7753 322.053ZM36.5253 323.041C25.2834 326.574 19.6967 329.757 17.4345 331.841C12.6974 338.488 8.22632 341.114 1.42863 345.859C1.18562 346.232 1.0672 346.501 1.02238 346.704C0.978862 346.901 1.00133 347.046 1.06827 347.19C1.1446 347.354 1.28727 347.537 1.52726 347.784C1.76219 348.025 1.99946 348.242 2.32316 348.562C4.1843 349.156 5.64131 349.356 7.13273 349.253C8.66145 349.147 10.2536 348.722 12.3905 348.035C14.2816 347.277 15.5999 346.546 16.7509 345.65C17.9094 344.748 18.9172 343.666 20.1806 342.181L20.3671 341.962L20.6493 342.013C23.1171 342.455 25.0743 342.274 27.8085 341.04C30.5846 339.786 34.1367 337.46 39.7792 333.593L40.0614 334.005L40.3446 334.418C34.7235 338.27 31.0939 340.654 28.2206 341.951C25.4218 343.214 23.3177 343.455 20.7909 343.049L17.4775 347.784C13.4647 354.424 9.6894 360.74 6.80948 365.918C5.36801 368.509 4.15425 370.809 3.24796 372.718C2.3621 374.584 1.78918 376.043 1.5712 377.023C1.67043 377.621 1.80521 377.946 2.08585 378.2C2.36893 378.456 2.85143 378.687 3.75675 378.919L4.17179 379.018L4.20206 379.025L4.23038 379.035C4.23063 379.034 4.35371 379.063 4.6923 378.841C5.01245 378.632 5.41855 378.269 5.90909 377.74C6.88598 376.687 8.12214 375.063 9.58585 372.961C12.51 368.764 16.2912 362.735 20.6366 355.742L21.5058 356.235C17.9226 363.162 14.9861 369.043 12.9159 373.372C11.8807 375.536 11.064 377.31 10.4911 378.631C10.2045 379.292 9.9801 379.836 9.8212 380.257C9.66587 380.669 9.58481 380.932 9.55851 381.068C9.46135 382.863 9.94221 383.78 10.5302 384.223C11.139 384.682 12.0163 384.751 12.9403 384.52C13.0426 384.495 13.2437 384.378 13.5536 384.045C13.8501 383.726 14.1959 383.265 14.5966 382.659C15.3971 381.448 16.3763 379.721 17.578 377.535C19.9762 373.173 23.2336 367.034 27.6337 359.747L28.5224 360.201C25.8034 366.617 23.8369 372.143 22.538 376.413C21.2726 380.572 20.6534 383.501 20.5683 384.9C20.9532 385.672 21.2463 386.159 21.6386 386.479C22.0218 386.791 22.5576 386.985 23.5351 387.003C24.3835 386.895 25.0239 386.655 25.6884 386.072C26.3822 385.463 27.1194 384.465 28.1054 382.793L35.0898 362.84L36.0331 363.17L29.1025 382.97C29.5919 383.966 30.0597 384.514 30.6239 384.76C31.1933 385.009 31.9781 384.999 33.2226 384.588C35.4742 380.645 36.5592 378.204 42.5946 362.328L42.6073 362.294L42.6249 362.261C48.5556 351.639 52.635 343.568 54.0224 331.303L36.5253 323.041Z" fill="black"/>
<path id="Head" d="M207.062 48.5054C206.245 56.6552 205.106 59.8469 202.562 64.5054C200.962 66.0819 199.997 66.2872 198.062 64.5054C196.949 76.273 193.432 79.6275 190.062 83.5054L193.062 104.505C193.062 104.505 182.062 135.505 170.562 145.505C159.062 135.505 148.062 104.505 148.062 104.505L151.062 83.5054C148.235 80.1687 144.934 76.0011 144.062 64.5054C142.426 66.7239 140.868 66.9818 138.562 64.5054C135.848 58.722 134.85 55.2257 134.062 48.5054C135.716 45.2948 136.894 44.4306 139.562 45.0054C139.912 34.3091 137.478 28.1182 142.062 19.0054C146.219 10.7402 151.552 6.38355 159.062 2.50544C168.39 -0.263647 173.402 -0.0724804 182.062 2.50544C190.895 7.27754 195.38 10.5948 199.562 19.0054C204.095 28.1241 201.589 35.7657 201.562 45.0054C203.975 45.0106 205.185 45.7506 207.062 48.5054Z" fill="#DADADA"/>
<path id="Head (Stroke)" d="M170.816 0.000651503C174.384 0.0250057 177.854 0.730912 182.204 2.02604L182.254 2.04069L182.299 2.0651C186.721 4.45425 190.096 6.49992 192.891 9.01921C195.694 11.5462 197.896 14.5328 200.009 18.7829C202.322 23.435 202.836 27.7104 202.772 31.9674C202.74 34.089 202.564 36.213 202.397 38.3659C202.241 40.3706 202.092 42.4055 202.066 44.5192C203.099 44.5705 203.963 44.7853 204.78 45.3014C205.709 45.888 206.527 46.8327 207.475 48.2243L207.577 48.3747L207.559 48.5553C207.149 52.6444 206.656 55.5144 205.939 57.9557C205.22 60.4019 204.281 62.3991 203 64.7448L202.965 64.8102L202.912 64.862C202.111 65.6518 201.348 66.2308 200.456 66.2643C199.791 66.2893 199.15 66.0076 198.462 65.4928C197.871 70.8929 196.749 74.482 195.353 77.193C193.923 79.9672 192.215 81.7985 190.589 83.6608L193.557 104.434L193.574 104.556L193.533 104.673L193.062 104.506L193.532 104.674C193.532 104.674 193.531 104.677 193.53 104.678C193.529 104.682 193.527 104.688 193.524 104.696C193.519 104.711 193.511 104.734 193.5 104.763C193.479 104.823 193.447 104.912 193.405 105.027C193.322 105.258 193.197 105.597 193.035 106.032C192.711 106.902 192.235 108.155 191.628 109.689C190.415 112.758 188.676 116.955 186.577 121.466C184.479 125.977 182.017 130.808 179.355 135.142C176.697 139.47 173.822 143.333 170.89 145.882L170.562 146.168L170.233 145.882C167.302 143.333 164.426 139.47 161.769 135.142C159.107 130.808 156.644 125.977 154.546 121.466C152.447 116.955 150.709 112.758 149.495 109.689C148.888 108.155 148.412 106.902 148.088 106.032C147.926 105.597 147.802 105.258 147.718 105.027C147.676 104.912 147.645 104.823 147.623 104.763C147.612 104.734 147.604 104.711 147.599 104.696C147.596 104.688 147.594 104.682 147.593 104.678C147.592 104.677 147.591 104.675 147.591 104.674L147.59 104.673L147.549 104.556L147.566 104.434L150.534 83.6559C149.152 82.0188 147.645 80.1299 146.372 77.2682C145.149 74.5164 144.152 70.8874 143.665 65.737C143.041 66.3503 142.359 66.7369 141.581 66.7653C140.469 66.8058 139.37 66.1071 138.195 64.8464L138.143 64.7887L138.108 64.7174C135.372 58.884 134.359 55.3354 133.565 48.5641L133.547 48.4118L133.617 48.276C134.447 46.6669 135.205 45.541 136.158 44.9176C137.007 44.3629 137.947 44.2434 139.076 44.4089C139.134 41.9871 139.055 39.7956 138.956 37.736C138.849 35.5193 138.721 33.439 138.725 31.4108C138.733 27.3304 139.28 23.4234 141.615 18.7809C145.832 10.3982 151.255 5.97424 158.832 2.0612L158.874 2.03971L158.919 2.02604C163.609 0.633859 167.246 -0.0236922 170.816 0.000651503ZM148.574 104.452C148.595 104.509 148.623 104.587 148.658 104.685C148.741 104.913 148.864 105.25 149.025 105.682C149.348 106.547 149.821 107.794 150.425 109.322C151.633 112.378 153.364 116.556 155.452 121.045C157.541 125.534 159.985 130.328 162.62 134.619C164.97 138.445 167.458 141.845 169.964 144.274C167.991 118.459 166.178 104.617 156.17 89.3278L151.415 84.5661L148.574 104.452ZM184.966 89.3073C176.607 104.448 174.51 118.655 171.233 144.203C173.714 141.778 176.176 138.407 178.503 134.619C181.138 130.328 183.582 125.534 185.671 121.045C187.759 116.556 189.49 112.378 190.698 109.322C191.302 107.794 191.776 106.547 192.098 105.682C192.259 105.25 192.382 104.913 192.465 104.685C192.5 104.587 192.527 104.509 192.548 104.452L189.707 84.5661L184.966 89.3073ZM182.82 91.2116C182.127 91.7846 181.292 92.4411 180.361 93.0993C177.732 94.959 174.251 96.9174 171.076 97.0124C167.72 97.1126 163.979 95.1524 161.144 93.2487C160.227 92.633 159.394 92.013 158.685 91.4577C166.945 105.246 168.915 118.486 170.685 140.63C173.556 118.505 175.763 104.983 182.82 91.2116ZM170.809 1.00065C167.386 0.977307 163.865 1.60361 159.248 2.97135C151.829 6.80889 146.598 11.098 142.508 19.2301C140.26 23.7004 139.733 27.4455 139.725 31.4128C139.721 33.4083 139.847 35.4511 139.955 37.6882C140.063 39.9191 140.15 42.3278 140.062 45.0221L140.042 45.6208L139.456 45.4938C138.187 45.2203 137.382 45.3123 136.705 45.7546C136.01 46.2089 135.37 47.0819 134.577 48.5993C135.354 55.141 136.338 58.5747 138.982 64.2214C140.086 65.3926 140.903 65.7897 141.545 65.7663C142.187 65.7427 142.862 65.2897 143.659 64.2087L144.458 63.1247L144.561 64.4674C144.994 70.1723 146.026 74.0299 147.285 76.862C148.54 79.6839 150.03 81.5136 151.433 83.1696L156.91 88.654C156.914 88.6573 156.92 88.6628 156.927 88.6696C156.942 88.6834 156.964 88.704 156.993 88.7311C157.053 88.7858 157.142 88.8671 157.257 88.9704C157.488 89.1768 157.826 89.4722 158.251 89.8268C159.103 90.537 160.304 91.4814 161.7 92.4186C164.521 94.3125 168.031 96.1026 171.047 96.0124C173.902 95.9269 177.171 94.1316 179.784 92.2829C181.078 91.3678 182.187 90.457 182.973 89.7751C183.365 89.4345 183.676 89.152 183.889 88.9548C183.995 88.8561 184.076 88.7784 184.131 88.7262C184.158 88.7002 184.179 88.6807 184.192 88.6676L184.211 88.6491L184.212 88.6481L189.697 83.1618C191.392 81.2126 193.062 79.4567 194.464 76.735C195.867 74.0118 197.012 70.2971 197.564 64.4587L197.658 63.4548L198.4 64.1374C199.355 65.0164 199.95 65.2829 200.419 65.2653C200.884 65.2477 201.39 64.9472 202.159 64.1969C203.403 61.9145 204.295 60.0019 204.98 57.6735C205.662 55.3525 206.141 52.6004 206.544 48.6383C205.664 47.3657 204.968 46.603 204.246 46.1471C203.515 45.6851 202.713 45.508 201.561 45.5055L201.06 45.5046L201.062 45.0036C201.069 42.6732 201.232 40.4465 201.399 38.2887C201.568 36.1254 201.741 34.0363 201.773 31.9528C201.835 27.7996 201.335 23.6946 199.114 19.2282C197.046 15.0676 194.914 12.1897 192.221 9.76237C189.529 7.33635 186.259 5.34277 181.872 2.97135C177.585 1.69757 174.231 1.024 170.809 1.00065Z" fill="black"/>
</g>
</svg>
