<svg width="355" height="699" viewBox="0 0 355 699" fill="none" xmlns="http://www.w3.org/2000/svg">
<g id="Male-Front">
<g id="Traps">
<path d="M122.009 129.505C134.215 119.292 141.687 112.612 154.509 105.005C161.08 121.213 164.562 128.347 170.509 138.505H125.509C125.087 133.313 125.334 131.052 122.009 129.505Z" fill="#D9D9D9"/>
<path d="M227.509 138.505H183.009C189.718 127.992 193.345 120.805 199.509 105.005C213.016 113.092 219.569 119.698 231.509 129.505C228.973 131.24 228.142 133.293 227.509 138.505Z" fill="#D9D9D9"/>
</g>
<path id="Traps (Stroke)" d="M154.972 104.818C161.537 121.01 165.01 128.12 170.94 138.253L171.381 139.005H125.048L125.011 138.545C124.904 137.225 124.842 136.141 124.754 135.171C124.666 134.213 124.557 133.434 124.367 132.777C124.18 132.128 123.916 131.608 123.524 131.165C123.131 130.719 122.585 130.325 121.798 129.959L121.084 129.627L121.688 129.122C133.883 118.916 141.39 112.207 154.254 104.576L154.754 104.279L154.972 104.818ZM199.766 104.577C213.315 112.688 219.916 119.336 231.826 129.119L232.341 129.542L231.791 129.919C230.59 130.74 229.815 131.616 229.254 132.901C228.681 134.211 228.321 135.966 228.005 138.566L227.952 139.005H182.097L182.587 138.237C189.275 127.757 192.889 120.6 199.043 104.824L199.258 104.273L199.766 104.577ZM199.757 105.74C193.864 120.797 190.26 127.991 183.916 138.005H227.069C227.375 135.62 227.738 133.871 228.337 132.501C228.893 131.228 229.645 130.298 230.694 129.481C219.189 119.999 212.696 113.551 199.757 105.74ZM154.266 105.733C141.988 113.073 134.622 119.589 122.902 129.408C123.454 129.729 123.906 130.087 124.273 130.503C124.784 131.08 125.109 131.741 125.328 132.5C125.545 133.251 125.661 134.107 125.75 135.081C125.827 135.927 125.889 136.914 125.973 138.005H169.641C164.008 128.324 160.541 121.179 154.266 105.733Z" fill="black"/>
<g id="Shoulders">
<path d="M227.509 138.505C228.157 133.859 228.717 131.498 231.509 129.505C252.871 130.709 263.808 135.085 274.009 158.505C278.155 177.017 275.168 183.65 274.009 190.505C262.171 188.548 254.124 185.328 245.509 178.505C234.289 164.371 231.395 156.968 227.509 138.505Z" fill="#D9D9D9"/>
<path d="M122.009 129.505C124.616 129.852 125.129 133.099 126.009 139.005C120.42 155.22 116.554 164.468 107.509 177.505C95.5441 186.632 86.3722 189.764 77.5088 191.005C74.2613 185.911 74.7756 172.96 77.5088 164.005C84.2065 142.063 93.8654 130.353 122.009 129.505Z" fill="#D9D9D9"/>
</g>
<path id="Shoulders (Stroke)" d="M122.074 129.009C122.837 129.111 123.462 129.431 123.97 129.959C124.467 130.475 124.834 131.172 125.128 132.003C125.712 133.653 126.066 135.999 126.503 138.932L126.522 139.052L126.482 139.169C120.886 155.404 117.001 164.7 107.919 177.791L107.874 177.855L107.812 177.903C95.7823 187.079 86.5308 190.247 77.5783 191.501L77.2599 191.545L77.0871 191.274C76.2256 189.923 75.6333 188.086 75.2619 185.984C74.8894 183.875 74.7334 181.466 74.7658 178.947C74.8306 173.91 75.6489 168.386 77.0304 163.86C80.3884 152.859 84.5125 144.334 91.3918 138.464C98.2794 132.588 107.857 129.431 121.993 129.005L122.034 129.004L122.074 129.009ZM231.537 129.006C242.234 129.609 250.417 131.008 257.209 135.251C263.798 139.366 269.012 146.113 273.987 157.217L274.467 158.306L274.487 158.349L274.497 158.396C276.579 167.691 276.874 174.028 276.496 178.916C276.121 183.767 275.068 187.24 274.502 190.588L274.419 191.08L273.927 190.999C262.021 189.03 253.892 185.781 245.198 178.897L245.153 178.862L245.117 178.816C239.494 171.732 235.937 166.31 233.301 160.331C230.667 154.355 228.964 147.846 227.02 138.608L227.001 138.523L227.014 138.436C227.337 136.119 227.644 134.309 228.24 132.824C228.847 131.313 229.747 130.148 231.218 129.098L231.362 128.997L231.537 129.006ZM121.976 130.006C107.995 130.434 98.6856 133.556 92.0412 139.225C85.3809 144.908 81.3273 153.21 77.9875 164.151C76.6359 168.579 75.8295 174.009 75.7658 178.96C75.734 181.434 75.8883 183.778 76.2472 185.81C76.5806 187.697 77.0869 189.287 77.7648 190.461C86.4233 189.204 95.4206 186.083 107.143 177.155C116.098 164.236 119.945 155.053 125.495 138.959C125.061 136.046 124.722 133.854 124.186 132.337C123.916 131.575 123.609 131.026 123.249 130.652C122.907 130.297 122.501 130.083 121.976 130.006ZM231.658 130.015C230.423 130.929 229.683 131.916 229.169 133.197C228.632 134.535 228.336 136.203 228.016 138.488C229.95 147.667 231.634 154.07 234.216 159.927C236.798 165.785 240.289 171.121 245.863 178.148C254.266 184.791 262.119 187.978 273.603 189.928C274.203 186.605 275.145 183.418 275.499 178.838C275.868 174.075 275.585 167.85 273.529 158.656C268.455 147.02 263.229 140.189 256.68 136.098C250.15 132.02 242.235 130.622 231.658 130.015Z" fill="black"/>
<path id="Chest" d="M246.009 179.005C240.788 194.99 236.907 201.271 227.509 205.505C217.73 208.617 212.259 208.901 202.509 208.505C193.024 205.839 187.346 202.209 177.009 194.505C168.557 201.306 162.978 204.351 151.509 208.505C138.306 209.36 133.297 207.949 125.009 205.505C117.056 199.696 113.653 192.478 108.009 178.005C108.137 177.785 108.265 177.565 108.393 177.347C115.817 164.613 120.014 156.976 126.009 138.505H171.009L177.009 145.505L183.509 138.505H227.509C231.237 156.142 234.867 165.198 244.287 176.911C244.857 177.595 245.431 178.293 246.009 179.005Z" fill="#D9D9D9"/>
<path id="Chest (Stroke)" d="M171.238 138.005L171.389 138.18L177.023 144.754L183.143 138.166L183.291 138.005H227.914L227.998 138.402C231.716 155.988 235.32 164.963 244.677 176.597C244.694 176.619 244.711 176.64 244.729 176.662C245.281 177.325 245.838 178 246.397 178.69L246.568 178.902L246.484 179.161C243.872 187.159 241.579 192.784 238.738 196.944C235.883 201.126 232.487 203.811 227.714 205.961L227.688 205.973L227.66 205.982C217.81 209.116 212.277 209.403 202.488 209.005L202.43 209.003L202.373 208.987C192.894 206.322 187.175 202.692 177.019 195.135C168.686 201.806 163.055 204.854 151.679 208.975L151.612 209L151.541 209.004C144.918 209.433 140.328 209.295 136.346 208.738C132.366 208.181 129.008 207.206 124.867 205.985L124.784 205.961L124.714 205.909C116.63 200.003 113.184 192.651 107.543 178.187L107.455 177.962L107.576 177.754C107.705 177.533 107.833 177.312 107.962 177.093C115.374 164.38 119.553 156.777 125.533 138.351L125.646 138.005H171.238ZM176.509 146C156.334 145.761 142.923 147.745 132.833 152.689C122.68 157.664 115.823 165.665 108.824 177.597L108.825 177.598C108.738 177.747 108.65 177.897 108.562 178.047C114.141 192.335 117.503 199.375 125.234 205.05C129.341 206.261 132.614 207.205 136.484 207.747C140.365 208.29 144.864 208.431 151.406 208.01C162.7 203.915 168.226 200.907 176.509 194.263V146ZM177.509 194.253C187.684 201.828 193.288 205.386 202.587 208.007C212.252 208.398 217.657 208.112 227.327 205.038C231.94 202.956 235.177 200.385 237.912 196.379C240.637 192.389 242.874 186.957 245.446 179.111C244.914 178.473 244.397 177.845 243.897 177.224C243.897 177.223 243.895 177.222 243.895 177.221C233.976 165.315 225.274 157.681 215.067 152.937C204.963 148.241 193.337 146.353 177.509 146.016V194.253ZM178.132 145.03C193.718 145.403 205.335 147.311 215.489 152.031C223.52 155.764 230.606 161.243 238.01 169.058C232.713 160.651 229.92 152.23 227.104 139.005H183.727L178.132 145.03ZM126.371 139.005C122.39 151.228 119.188 158.698 115.291 166.101C120.17 159.851 125.539 155.15 132.394 151.792C142.595 146.794 156.027 144.802 175.911 144.994L170.778 139.005H126.371Z" fill="black"/>
<g id="Biceps">
<path d="M68.5088 211.505C70.1446 203.215 72.4707 198.781 77.5088 191.005C85.2099 189.996 90.7126 188.354 103.31 180.505C104.775 179.592 106.337 178.595 108.009 177.505C110.125 183.447 111.382 186.691 114.009 192.005C114.431 205.279 112.975 211.68 111.009 221.505C107.386 231.123 104.223 236.857 97.5088 246.005C91.1855 251.921 85.9244 254.292 74.5088 254.005C71.3946 249.646 70.0784 246.699 68.5088 240.505C67.0014 229.18 67.4491 222.831 68.5088 211.505Z" fill="#D9D9D9"/>
<path d="M273.509 190.505C281.318 200.405 283.791 205.091 285.009 212.005C285.983 223.38 286.151 229.662 285.009 240.505C283.168 247.593 282.07 250.505 280.009 254.005C271.769 253.859 266.671 252.565 255.509 245.005C249.705 237.884 246.521 233.503 241.509 222.005C239.584 211.235 239.853 204.397 241.509 191.505C243.316 186.877 244.298 184.133 246.009 179.005L250.009 182.005C259.869 187.642 264.623 188.64 273.312 190.464L273.509 190.505Z" fill="#D9D9D9"/>
</g>
<path id="Biceps (Stroke)" d="M108.479 177.337C110.592 183.269 111.842 186.494 114.457 191.784L114.505 191.881L114.509 191.99C114.933 205.324 113.466 211.772 111.499 221.603L111.491 221.643L111.476 221.681C107.836 231.346 104.651 237.12 97.912 246.301L97.8846 246.338L97.8504 246.371C94.6618 249.354 91.7092 251.473 88.0907 252.801C84.4766 254.128 80.2374 254.65 74.4959 254.505L74.2469 254.499L74.1024 254.296C70.9462 249.879 69.6064 246.872 68.0243 240.628L68.0174 240.6L68.0135 240.572C66.4987 229.191 66.9497 222.797 68.0106 211.459L68.0135 211.433L68.0184 211.409C69.6714 203.032 72.0332 198.536 77.0887 190.734L77.2147 190.54L77.4442 190.509C81.2702 190.008 84.529 189.353 88.3924 187.854C92.2637 186.352 96.7582 183.997 103.045 180.081C104.507 179.17 106.066 178.175 107.736 177.086L108.267 176.741L108.479 177.337ZM250.287 181.588C260.062 187.173 264.757 188.158 273.414 189.975L273.789 190.053L273.901 190.196C281.728 200.118 284.262 204.883 285.501 211.919L285.505 211.941L285.507 211.962C286.482 223.358 286.652 229.674 285.506 240.558L285.502 240.595L285.493 240.631C283.648 247.736 282.535 250.7 280.439 254.259L280.292 254.51L280 254.505C275.852 254.432 272.459 254.068 268.69 252.757C264.931 251.45 260.824 249.209 255.228 245.419L255.168 245.378L255.121 245.321C249.294 238.171 246.084 233.752 241.051 222.206L241.027 222.151L241.016 222.093C239.079 211.254 239.354 204.36 241.013 191.442L241.02 191.38L241.043 191.324C242.846 186.704 243.825 183.968 245.534 178.847L245.754 178.189L250.287 181.588ZM98.1024 226.239C90.5456 239.486 85.2714 245.604 75.8621 253.525C80.8515 253.558 84.5728 253.026 87.7459 251.862C91.1471 250.614 93.9561 248.625 97.0418 245.754C98.1922 238.684 98.5015 234.183 98.1024 226.239ZM254.713 226.317C253.509 231.788 253.838 236.101 255.949 244.699C261.433 248.402 265.414 250.559 269.019 251.813C272.181 252.912 275.073 253.324 278.47 253.461C267.189 244.779 261.932 238.281 254.713 226.317ZM102.84 181.383C96.9068 185.046 92.5535 187.313 88.7537 188.787C84.8706 190.293 81.5817 190.964 77.8045 191.468C72.8759 199.089 70.6097 203.456 69.0047 211.573C67.9484 222.864 67.5056 229.168 69.0008 240.416C70.5004 246.326 71.7608 249.218 74.6053 253.273C84.6473 244.894 89.9343 238.759 98.0506 224.298C99.9934 218.728 101.417 214.154 102.24 207.811C103.048 201.587 103.278 193.644 102.84 181.383ZM250.526 182.872C250.899 202.48 251.696 212.263 254.973 224.807C262.623 237.605 267.838 244.127 279.859 253.262C281.704 250.033 282.772 247.124 284.514 240.418C285.647 229.643 285.481 223.397 284.512 212.07C283.32 205.322 280.921 200.726 273.226 190.957L273.209 190.954C264.724 189.173 259.94 188.165 250.526 182.872ZM107.751 178.266C106.367 179.165 105.059 180 103.819 180.775C104.286 193.382 104.062 201.538 103.231 207.939C102.398 214.363 100.955 219.004 99.0125 224.577C99.4949 232.848 99.3066 237.477 98.3231 244.032C104.183 235.875 107.153 230.315 110.526 221.366C112.482 211.596 113.92 205.25 113.512 192.127C110.995 187.026 109.733 183.811 107.751 178.266ZM246.263 179.821C244.689 184.52 243.714 187.227 241.997 191.628C240.355 204.429 240.092 211.206 241.99 221.855C246.555 232.319 249.588 236.837 254.512 242.976C252.684 235.039 252.563 230.773 253.993 225.008C250.661 212.238 249.881 202.284 249.514 182.259L246.263 179.821Z" fill="black"/>
<g id="Forearms">
<path d="M74.5088 254.005C86.583 254.405 91.8754 251.773 98.5088 244.505C98.4915 247.983 98.3656 251.103 98.117 254.005C97.6182 259.831 96.6251 264.783 95.0233 270.005C93.7534 274.146 92.1009 278.456 90.0088 283.505C86.8869 289.187 81.4442 298.108 69.5088 310.505C66.2507 316.336 63.0727 318.977 56.0088 331.005L47.0088 326.73L41.0088 323.88L36.0088 321.505C48.7381 267.786 55.861 245.826 68.5088 240.005C69.3449 243.812 70.1244 246.457 71.7406 249.505C72.4671 250.876 73.3628 252.329 74.5088 254.005Z" fill="#D9D9D9"/>
<path d="M255.509 245.005C267.159 252.549 272.13 254.14 280.009 254.005C280.932 252.551 281.664 251.014 282.385 249.005C283.189 246.768 283.98 243.947 285.009 240.005C296.332 244.537 303.3 263.867 318.009 323.005L313.509 324.967L307.509 327.582L298.509 331.505C295.732 326.776 293.764 324.52 285.009 311.005C275.929 303.867 272.37 297.474 264.509 286.005C262.336 280.344 259.779 276.035 258.631 271.505C257.154 265.683 255.936 258.825 255.509 253.005C255.289 250.012 255.745 248.716 255.509 245.005Z" fill="#D9D9D9"/>
</g>
<path id="Forearms (Stroke)" d="M285.194 239.542C291.067 241.892 295.705 248.043 300.705 260.846C305.714 273.672 311.141 293.32 318.494 322.884L318.596 323.294L298.302 332.141L298.077 331.758C296.699 329.41 295.522 327.676 293.588 324.831C291.66 321.994 288.987 318.065 284.632 311.343C275.528 304.167 271.917 297.697 264.097 286.288L264.063 286.24L264.042 286.184C262.962 283.371 261.789 280.898 260.729 278.536C259.674 276.182 258.732 273.939 258.146 271.628C256.664 265.784 255.439 258.895 255.01 253.042C254.897 251.511 254.959 250.411 255.016 249.25C255.072 248.094 255.126 246.864 255.01 245.037L254.947 244.045L255.78 244.586C261.598 248.352 265.714 250.611 269.342 251.915C272.87 253.183 275.956 253.554 279.728 253.508C280.561 252.157 281.241 250.712 281.915 248.836C282.71 246.623 283.496 243.821 284.525 239.879L284.668 239.331L285.194 239.542ZM68.9971 239.898C69.8288 243.685 70.5968 246.279 72.1826 249.271C72.8676 250.563 73.7085 251.934 74.7783 253.511C80.6476 253.686 84.8391 253.127 88.3574 251.669C91.9228 250.193 94.8463 247.777 98.1396 244.169L99.0156 243.209L99.0088 244.508C98.9914 247.996 98.8652 251.13 98.6152 254.048C98.1133 259.909 97.1129 264.897 95.501 270.152C94.2242 274.315 92.5651 278.642 90.4707 283.697L90.46 283.722L90.4473 283.747C87.3111 289.454 81.8518 298.396 69.9131 310.805C68.2772 313.723 66.6553 315.86 64.5918 318.723C62.5135 321.607 59.9615 325.261 56.4395 331.258L56.208 331.654L55.7939 331.457L35.7939 321.957L35.4287 321.784L35.5225 321.39C41.886 294.535 46.8557 275.583 51.8223 262.615C56.7817 249.665 61.7843 242.55 68.2998 239.551L68.8643 239.292L68.9971 239.898ZM256.138 254.513C256.643 259.901 257.756 265.996 259.084 271.259C268.415 281.353 274.851 288.637 279.033 294.696C283.201 300.734 285.154 305.592 285.498 310.841C289.831 317.528 292.492 321.44 294.414 324.268C296.242 326.957 297.409 328.678 298.713 330.871L306.787 327.35C290.223 299.561 279.479 281.865 256.138 254.513ZM97.4648 255.564C73.1655 284.614 63.0883 300.111 47.7148 326.512L55.8105 330.358C59.2328 324.56 61.7351 320.977 63.7803 318.139C65.8541 315.262 67.4307 313.182 69.0273 310.338C70.5489 299.377 75.4581 290.868 94.5762 269.753C96.0008 265.087 96.9354 260.635 97.4648 255.564ZM257.16 254.171C280.406 281.45 291.165 299.185 307.712 326.947L312.825 324.718C301.801 302.627 295.373 290.23 282.636 269.356L281.911 268.852C271.54 261.662 265.508 257.485 257.16 254.171ZM96.5 255.159C85.0384 259.587 78.8621 263.189 68.8906 270.346C54.9808 295.491 49.948 305.973 41.6729 323.642L46.8076 326.082C62.1874 299.666 72.2798 284.133 96.5 255.159ZM285.343 240.691C284.392 244.312 283.64 246.976 282.874 249.119C281.666 258.119 281.833 262.456 283.476 268.811C296.253 289.748 302.695 302.178 313.743 324.318L317.421 322.715C310.117 293.371 304.733 273.907 299.773 261.21C294.942 248.839 290.562 243.029 285.343 240.691ZM68.1602 240.729C62.2877 243.701 57.5512 250.451 52.7559 262.972C47.8409 275.806 42.9087 294.572 36.5879 321.227L40.7686 323.213C49.0552 305.52 54.1008 295.016 68.043 269.814C70.6283 260.525 71.2895 256.13 71.2402 249.627C69.7228 246.737 68.9421 244.19 68.1602 240.729ZM259.738 273.448C260.261 274.972 260.916 276.509 261.642 278.127C262.684 280.451 263.866 282.946 264.953 285.771C272.543 296.847 276.081 303.103 284.412 309.886C283.909 305.252 282.035 300.804 278.21 295.263C274.283 289.574 268.323 282.768 259.738 273.448ZM93.832 272.073C76.8113 291.026 71.9174 299.321 70.248 309.006C81.3724 297.258 86.5506 288.757 89.5586 283.285C91.2716 279.149 92.6827 275.517 93.832 272.073ZM97.9971 245.785C94.9933 248.941 92.1659 251.175 88.7402 252.593C84.986 254.148 80.5638 254.707 74.4922 254.505L74.2393 254.497L74.0957 254.288C73.3876 253.252 72.7735 252.297 72.2334 251.393C72.1521 256.81 71.4471 261.121 69.3623 268.783C79.2064 261.779 85.5392 258.224 97.6436 253.651C97.8437 251.215 97.9597 248.621 97.9971 245.785ZM256.055 245.951C256.105 247.32 256.061 248.344 256.015 249.298C255.962 250.375 255.91 251.35 255.987 252.65C265.211 256.081 271.398 260.349 282.204 267.839C281.012 262.813 280.791 258.822 281.465 252.454C281.143 253.088 280.803 253.687 280.431 254.273L280.286 254.501L280.018 254.505C276.034 254.573 272.759 254.204 269.004 252.855C265.441 251.575 261.467 249.418 256.055 245.951Z" fill="black"/>
<path id="Abs" d="M151.509 208.505C155.814 206.99 158.296 206.061 163.509 203.505C168.841 200.511 171.761 198.58 176.81 194.638C179.316 196.354 181.932 198.115 190.009 203.505C197.65 207.313 199.097 207.541 202.509 208.505C209.236 212.792 212.147 216.612 211.509 226.505C211.124 229.438 210.395 230.188 208.509 230.505H206.509C209.578 230.786 211.041 231.298 211.509 234.505C212.059 241.653 212.033 245.47 211.509 252.005C210.959 258.315 209.297 259.109 206.009 260.005C209.646 260.305 210.796 261.365 211.009 265.005V282.505C210.433 286.459 209.118 287.797 206.009 289.505C208.257 289.93 208.863 290.74 209.009 293.005C209.478 301.367 209.428 303.862 209.009 306.005C209.618 308.618 204.426 319.997 187.509 354.005C185.433 355.656 183.119 356.196 177.009 356.505C170.504 356.198 168.381 355.592 167.009 354.005C150.988 319.889 145.035 307.028 145.009 306.005C144.714 303.802 144.62 300.87 145.009 293.005C145.102 290.786 145.7 289.974 148.009 289.505C144.521 288.473 143.576 286.775 143.009 282.505V265.005C143.429 261.651 144.519 260.554 148.009 260.005C144.813 258.972 143.383 257.784 143.009 252.005C142.723 244.853 142.625 240.912 143.009 234.505C143.552 231.924 144.592 231.12 147.509 230.615C146.859 230.581 146.194 230.545 145.509 230.505C144.111 229.68 143.55 228.82 143.009 226.505C142.579 217.637 144.128 213.136 151.509 208.505Z" fill="#D9D9D9"/>
<path id="Abs (Stroke)" d="M176.955 194.426L177.093 194.225C179.594 195.938 182.205 197.696 190.262 203.073C194.059 204.964 196.306 205.96 198.021 206.603C199.739 207.247 200.926 207.538 202.645 208.024L202.715 208.044L202.778 208.084C206.163 210.241 208.66 212.323 210.21 215.163C211.762 218.006 212.33 221.542 212.008 226.538L212.007 226.554L212.004 226.571C211.81 228.048 211.52 229.087 210.965 229.794C210.63 230.221 210.22 230.5 209.743 230.692C209.929 230.781 210.105 230.882 210.271 230.998C211.24 231.674 211.76 232.765 212.003 234.433L212.006 234.45L212.007 234.467C212.559 241.641 212.533 245.484 212.007 252.045V252.048C211.73 255.221 211.169 257.129 210.173 258.351C209.606 259.048 208.918 259.495 208.132 259.834C208.956 260.053 209.624 260.385 210.144 260.897C211.052 261.792 211.4 263.131 211.508 264.976L211.509 264.991V282.542L211.503 282.578C211.209 284.598 210.718 286.013 209.858 287.149C209.206 288.01 208.362 288.68 207.303 289.333C207.874 289.543 208.333 289.829 208.681 290.245C209.17 290.83 209.379 291.599 209.474 292.553L209.508 292.973V292.977L209.66 295.847C209.955 301.857 209.88 304.088 209.517 306.003C209.588 306.413 209.556 306.92 209.446 307.514C209.323 308.174 209.095 308.991 208.759 309.985C208.086 311.974 206.957 314.722 205.287 318.437C201.946 325.87 196.414 337.225 187.956 354.228L187.907 354.328L187.82 354.397C185.606 356.156 183.14 356.695 177.034 357.004L177.01 357.006L176.986 357.004C173.731 356.851 171.529 356.621 169.96 356.219C168.368 355.812 167.397 355.219 166.631 354.333L166.585 354.281L166.556 354.218C158.546 337.16 153.051 325.414 149.556 317.804C147.809 314 146.56 311.226 145.745 309.337C145.338 308.394 145.038 307.667 144.837 307.14C144.737 306.878 144.66 306.659 144.607 306.486C144.565 306.349 144.525 306.201 144.513 306.071C144.212 303.819 144.12 300.847 144.509 292.981C144.557 291.852 144.734 290.951 145.294 290.279C145.588 289.926 145.967 289.664 146.43 289.459C145.379 288.981 144.59 288.364 144.001 287.502C143.187 286.31 142.798 284.714 142.513 282.571L142.509 282.539V264.974L142.513 264.943C142.727 263.236 143.122 261.983 144.004 261.1C144.577 260.526 145.322 260.143 146.262 259.869C145.37 259.447 144.624 258.904 144.041 258.072C143.155 256.805 142.698 254.945 142.51 252.038L142.509 252.025C142.223 244.867 142.124 240.906 142.51 234.475L142.512 234.439L142.52 234.403C142.801 233.066 143.231 232.091 144.046 231.4C144.331 231.158 144.655 230.959 145.02 230.792C144.391 230.391 143.905 229.95 143.515 229.331C143.087 228.652 142.796 227.792 142.522 226.62L142.512 226.575L142.509 226.53C142.293 222.073 142.568 218.635 143.873 215.712C145.184 212.777 147.505 210.427 151.243 208.082L151.29 208.052L151.343 208.034C155.635 206.523 158.098 205.601 163.288 203.056C168.584 200.081 171.481 198.164 176.502 194.244L176.517 194.232L176.532 194.222L176.732 194.089L176.955 194.426ZM148.065 290.005C146.967 290.233 146.394 290.521 146.062 290.919C145.723 291.325 145.554 291.938 145.508 293.026V293.03C145.119 300.893 145.216 303.785 145.504 305.939L145.508 305.966L145.509 305.993C145.511 306.004 145.522 306.061 145.562 306.191C145.606 306.335 145.675 306.531 145.772 306.785C145.964 307.291 146.258 308.002 146.663 308.941C147.473 310.818 148.718 313.583 150.465 317.386C153.953 324.981 159.435 336.702 167.428 353.722C168.028 354.4 168.801 354.89 170.208 355.251C171.59 355.605 173.553 355.825 176.509 355.978V293.06C176.295 291.989 175.996 291.383 175.562 290.972C175.12 290.553 174.478 290.278 173.441 290.005H148.065ZM180.553 290.005C179.478 290.177 178.876 290.456 178.469 290.883C178.053 291.321 177.776 291.979 177.509 293.065V355.976C183.138 355.666 185.252 355.124 187.113 353.677C195.542 336.73 201.05 325.424 204.375 318.027C206.042 314.32 207.154 311.607 207.812 309.665C208.141 308.693 208.351 307.927 208.462 307.332C208.575 306.726 208.574 306.344 208.522 306.119L208.497 306.014L208.518 305.91C208.923 303.84 208.98 301.409 208.51 293.038L208.478 292.642C208.39 291.77 208.214 291.244 207.914 290.886C207.582 290.489 207.023 290.211 205.958 290.005H180.553ZM176.99 287.786C176.767 288.197 176.506 288.556 176.167 288.862C175.872 289.128 175.531 289.342 175.132 289.521C175.559 289.713 175.932 289.945 176.249 290.246C176.569 290.548 176.818 290.906 177.017 291.331C177.208 290.892 177.441 290.513 177.744 290.194C178.042 289.881 178.393 289.641 178.806 289.456C178.409 289.273 178.071 289.065 177.782 288.81C177.449 288.516 177.198 288.175 176.99 287.786ZM180.582 260.505C179.559 260.81 178.907 261.099 178.454 261.476C178.021 261.837 177.732 262.312 177.509 263.079V286.424C177.763 287.21 178.032 287.696 178.444 288.059C178.87 288.435 179.501 288.725 180.575 289.005H205.877C207.357 288.185 208.354 287.477 209.06 286.545C209.775 285.602 210.227 284.379 210.509 282.462V265.022C210.403 263.235 210.069 262.228 209.442 261.609C208.81 260.986 207.777 260.655 205.987 260.505H180.582ZM148.053 260.505C146.352 260.776 145.351 261.166 144.711 261.806C144.075 262.444 143.716 263.41 143.509 265.041V282.473C143.791 284.58 144.158 285.959 144.826 286.937C145.472 287.882 146.442 288.511 148.084 289.005H173.449C174.469 288.782 175.074 288.502 175.497 288.12C175.915 287.743 176.206 287.223 176.509 286.413V263.074C176.311 262.334 176.038 261.878 175.608 261.521C175.153 261.144 174.487 260.845 173.429 260.505H148.053ZM176.975 258.385C176.74 258.833 176.467 259.211 176.117 259.517C175.839 259.761 175.525 259.947 175.171 260.095C175.585 260.288 175.942 260.5 176.245 260.752C176.565 261.016 176.815 261.316 177.015 261.662C177.225 261.296 177.485 260.982 177.815 260.708C178.135 260.44 178.511 260.221 178.946 260.028C178.388 259.797 177.947 259.534 177.601 259.21C177.333 258.959 177.133 258.682 176.975 258.385ZM180.559 231.005C179.526 231.212 178.881 231.414 178.431 231.672C178.029 231.903 177.76 232.193 177.509 232.636V256.943C177.685 257.65 177.891 258.111 178.283 258.479C178.693 258.863 179.362 259.195 180.576 259.505H205.94C207.555 259.063 208.624 258.669 209.398 257.72C210.192 256.745 210.736 255.1 211.01 251.965C211.531 245.461 211.558 241.672 211.011 234.561C210.786 233.033 210.342 232.268 209.698 231.818C209.016 231.341 208.017 231.147 206.483 231.005H180.559ZM173.458 231.005C163.334 231.029 157.342 231.083 147.558 231.114C146.138 231.362 145.273 231.671 144.693 232.163C144.128 232.641 143.767 233.352 143.505 234.577C143.125 240.93 143.223 244.849 143.508 251.973L143.546 252.497C143.751 255.044 144.185 256.532 144.861 257.498C145.556 258.491 146.557 259.004 148.091 259.505H173.47C174.451 259.364 175.038 259.133 175.458 258.765C175.877 258.398 176.191 257.843 176.509 256.919V232.652C176.183 232.145 175.86 231.832 175.444 231.601C174.985 231.347 174.38 231.175 173.458 231.005ZM177.008 227.693C176.878 228.072 176.721 228.422 176.525 228.744C176.136 229.381 175.616 229.888 174.937 230.322C175.304 230.433 175.632 230.562 175.928 230.726C176.346 230.958 176.685 231.248 176.988 231.615C177.241 231.295 177.543 231.029 177.933 230.805C178.259 230.618 178.64 230.466 179.089 230.332C178.458 229.926 177.947 229.437 177.552 228.82C177.333 228.478 177.154 228.104 177.008 227.693ZM176.316 195.649C171.723 199.198 168.821 201.095 163.754 203.941L163.729 203.955C158.517 206.51 156.014 207.448 151.731 208.957C148.115 211.232 145.983 213.441 144.786 216.121C143.584 218.814 143.296 222.046 143.506 226.434C143.77 227.552 144.027 228.268 144.361 228.797C144.671 229.291 145.066 229.649 145.662 230.013C146.296 230.05 146.913 230.083 147.516 230.114C157.292 230.083 163.301 230.029 173.399 230.005C174.548 229.496 175.23 228.947 175.671 228.223C176.132 227.468 176.367 226.465 176.508 224.978L176.316 195.649ZM177.508 224.987C177.623 226.488 177.906 227.519 178.395 228.281C178.865 229.015 179.561 229.55 180.615 230.005H208.462C209.334 229.855 209.83 229.621 210.178 229.177C210.554 228.698 210.82 227.899 211.011 226.452C211.324 221.565 210.756 218.25 209.332 215.642C207.913 213.043 205.61 211.081 202.301 208.966C200.645 208.499 199.413 208.193 197.669 207.54C195.902 206.877 193.611 205.859 189.785 203.953L189.758 203.939L189.732 203.921C182.49 199.089 179.637 197.171 177.316 195.587L177.508 224.987Z" fill="black"/>
<path id="Obliques" d="M114.009 192.505C118.884 200.199 121.259 202.893 125.009 205.505C126.786 206.069 128.434 206.55 130.009 206.955C136.975 208.746 142.507 209.051 151.509 208.505C144.015 213.401 142.586 217.564 143.009 226.505C143.654 229.361 144.382 230.304 146.509 230.505C143.538 231.798 143.004 232.988 143.009 235.505C142.828 238.664 142.749 241.231 142.759 244.005C142.769 246.605 142.856 249.386 143.009 253.005C143.735 257.294 144.663 258.729 147.009 260.005C145.68 260.384 144.815 260.833 144.219 261.505C143.598 262.206 143.268 263.149 143.009 264.505C143.014 269.893 143.015 273.515 143.013 278.005C143.012 279.536 143.011 281.168 143.009 283.005C143.728 287.14 144.959 288.387 148.009 289.505C146.159 289.978 145.451 290.488 145.009 292.005C144.721 298.917 144.672 302.305 145.009 306.505C145.758 308.486 147.031 311.439 149.009 315.787C152.49 323.44 158.158 335.412 167.009 354.005C168.611 355.798 170.837 356.334 177.009 356.505C182.972 356.094 185.79 355.704 187.509 354.005C195.983 336.784 202.412 323.798 205.947 315.787C208.003 311.127 209.08 308.151 209.009 307.005C209.518 303.331 209.496 299.954 209.009 292.005C208.425 290.28 207.746 289.761 206.009 289.505C208.967 287.836 210.273 286.596 211.009 283.005V278.005V264.505C210.818 263.145 210.534 262.184 210.047 261.505C209.364 260.553 208.283 260.159 206.509 260.005C208.346 259.371 209.807 258.552 211.009 256.005C211.587 251.306 211.856 247.783 211.866 244.005C211.873 241.308 211.748 238.481 211.509 235.005C211.268 231.654 210.073 230.89 207.009 230.505C210.192 230.423 211.189 229.561 211.509 226.505C211.754 217.495 210.275 213.295 202.509 208.505C211.237 208.591 218.015 208.275 223.509 206.876C231.286 204.897 236.49 200.749 241.009 192.505C240.686 196.348 240.448 199.629 240.303 202.505C239.95 209.472 240.137 214.065 240.97 218.505C241.127 219.339 241.306 220.168 241.509 221.005L239.109 237.005L237.459 248.005C237.01 249.798 236.569 251.536 236.134 253.223C233.575 263.638 233.19 267.76 234.009 271.005C241.109 301.466 238.278 308.22 235.009 315.505C214.437 339.781 203.113 351.125 181.009 371.005C177.997 372.452 176.164 372.582 172.509 371.005C150.275 350.656 137.271 339.778 119.009 315.505C115.488 308.229 114.684 302.046 121.509 271.005C121.764 268.283 120.626 263.123 117.996 253.019C117.561 251.382 117.122 249.711 116.679 248.005L114.369 237.005L111.009 221.005C111.172 220.32 111.329 219.656 111.479 219.005C112.604 214.121 113.349 210.067 113.725 204.505C113.769 203.86 113.807 203.195 113.841 202.505C113.98 199.664 114.036 196.416 114.009 192.505Z" fill="#D9D9D9"/>
<path id="Obliques (Stroke)" d="M114.431 192.238C119.267 199.871 121.601 202.509 125.233 205.051C126.976 205.603 128.591 206.074 130.133 206.47C137.032 208.244 142.509 208.55 151.479 208.006L153.361 207.892L151.782 208.924C148.075 211.347 145.933 213.546 144.747 216.193C143.56 218.842 143.299 222.007 143.506 226.436C143.824 227.834 144.145 228.665 144.583 229.176C144.995 229.658 145.563 229.913 146.556 230.007L146.708 230.964C145.252 231.598 144.485 232.169 144.062 232.819C143.64 233.466 143.507 234.268 143.509 235.504V235.519L143.508 235.534C143.327 238.684 143.25 241.241 143.26 244.003C143.269 246.586 143.355 249.351 143.507 252.953C143.866 255.065 144.267 256.413 144.833 257.382C145.389 258.334 146.127 258.956 147.248 259.566L148.323 260.151L147.146 260.486C145.855 260.853 145.098 261.269 144.594 261.837C144.071 262.427 143.763 263.247 143.509 264.556C143.514 269.916 143.515 273.53 143.513 278.005C143.512 279.524 143.511 281.142 143.509 282.961C143.863 284.975 144.33 286.209 145.024 287.073C145.718 287.935 146.686 288.488 148.181 289.036L149.693 289.59L148.133 289.99C147.221 290.223 146.671 290.447 146.296 290.752C145.948 291.034 145.707 291.422 145.506 292.09C145.222 298.915 145.174 302.271 145.501 306.392C146.248 308.356 147.508 311.281 149.464 315.581C152.939 323.218 158.593 335.165 167.425 353.717C168.859 355.29 170.874 355.833 176.998 356.004C179.972 355.799 182.125 355.601 183.744 355.25C185.319 354.908 186.339 354.43 187.1 353.704C195.557 336.516 201.966 323.571 205.489 315.586C206.516 313.259 207.293 311.363 207.804 309.912C208.059 309.186 208.246 308.578 208.363 308.088C208.483 307.59 208.523 307.247 208.51 307.037L208.507 306.987L208.514 306.937C209.014 303.327 208.997 300.002 208.514 292.106C208.24 291.314 207.968 290.873 207.624 290.59C207.27 290.3 206.776 290.124 205.937 290.001L204.491 289.788L205.763 289.07C207.231 288.241 208.228 287.551 208.954 286.66C209.668 285.784 210.151 284.672 210.509 282.948V264.543C210.321 263.221 210.051 262.368 209.641 261.796C209.09 261.028 208.201 260.654 206.466 260.503L206.346 259.533C207.242 259.223 208.003 258.883 208.683 258.334C209.346 257.797 209.957 257.039 210.522 255.86C211.092 251.216 211.356 247.733 211.366 244.004C211.373 241.324 211.249 238.511 211.01 235.042L210.955 234.462C210.803 233.192 210.477 232.47 209.979 232.009C209.393 231.469 208.474 231.193 206.946 231.002L206.996 230.005C208.572 229.964 209.456 229.727 210.001 229.246C210.537 228.772 210.851 227.965 211.009 226.473C211.13 221.995 210.817 218.796 209.562 216.136C208.31 213.485 206.088 211.301 202.246 208.931L200.717 207.988L202.514 208.005C211.238 208.091 217.96 207.773 223.386 206.392C227.216 205.417 230.392 203.914 233.164 201.653C235.939 199.389 238.333 196.347 240.57 192.265L241.507 192.547C241.184 196.387 240.947 199.662 240.802 202.531C240.45 209.477 240.639 214.027 241.462 218.414C241.617 219.238 241.794 220.058 241.995 220.888L242.018 220.983L242.003 221.08L237.953 248.08L237.949 248.103L237.943 248.127C237.495 249.918 237.053 251.655 236.619 253.341L236.62 253.342C234.137 263.449 233.734 267.52 234.424 270.589L234.493 270.883L234.496 270.892C238.05 286.136 239.129 295.491 238.897 301.963C238.665 308.465 237.11 312.045 235.465 315.711L235.436 315.775L235.391 315.829C214.803 340.123 203.462 351.483 181.343 371.378L181.29 371.425L181.226 371.457C179.692 372.193 178.404 372.622 177.007 372.639C175.614 372.657 174.166 372.265 172.311 371.464L172.233 371.431L172.171 371.375C149.945 351.032 136.905 340.122 118.609 315.806L118.58 315.767L118.559 315.723C116.766 312.018 115.665 308.573 115.88 302.15C116.094 295.769 117.605 286.433 121.012 270.934C121.127 269.652 120.921 267.75 120.344 264.878C119.765 262.001 118.827 258.196 117.512 253.144C117.49 253.061 117.467 252.977 117.445 252.893C117.032 251.337 116.616 249.75 116.195 248.131L116.191 248.12L116.189 248.108L110.52 221.108L110.496 220.999L110.522 220.889C110.686 220.205 110.842 219.542 110.991 218.893C112.113 214.025 112.853 209.998 113.227 204.471C113.27 203.829 113.308 203.167 113.342 202.481C113.48 199.652 113.536 196.413 113.509 192.509L113.497 190.763L114.431 192.238ZM233.18 266.124C228.848 281.454 225.148 291.415 221.443 298.47C216.808 307.299 212.172 311.568 206.353 316.104C202.802 324.136 196.387 337.094 187.957 354.226L187.92 354.302L187.86 354.361C186.908 355.302 185.672 355.855 183.957 356.227C182.251 356.597 180.02 356.799 177.043 357.004L177.02 357.005H176.995C170.854 356.835 168.401 356.314 166.636 354.338L166.588 354.285L166.558 354.22C157.774 335.768 152.123 323.832 148.633 316.168C142.155 313.362 136.907 307.044 132.041 296.827C128.619 289.642 125.368 280.487 122.005 269.186C122.056 269.899 122.057 270.517 122.007 271.052L122.004 271.083L121.997 271.113C118.585 286.632 117.089 295.898 116.879 302.183C116.671 308.406 117.722 311.69 119.438 315.245C137.635 339.422 150.592 350.27 172.782 370.578C174.543 371.331 175.821 371.654 176.994 371.639C178.164 371.624 179.283 371.273 180.73 370.583C202.766 350.762 214.072 339.435 234.581 315.236C236.194 311.639 237.674 308.203 237.898 301.928C238.125 295.588 237.068 286.334 233.521 271.119C233.171 269.724 233.037 268.182 233.18 266.124ZM118.354 252.416C118.396 252.574 118.438 252.732 118.479 252.89C123.524 271.859 128.072 286.165 132.944 296.396C137.503 305.967 142.311 311.895 148.002 314.769C146.336 311.079 145.224 308.486 144.541 306.682L144.516 306.616L144.511 306.545C144.171 302.313 144.221 298.899 144.509 291.985L144.512 291.924L144.528 291.866C144.766 291.05 145.096 290.438 145.666 289.975C145.927 289.764 146.228 289.594 146.571 289.447C145.624 288.995 144.857 288.46 144.245 287.7C143.387 286.633 142.881 285.187 142.517 283.091L142.509 283.048V283.005C142.51 281.236 142.511 279.656 142.512 278.174L121.771 251.019C120.207 251.079 119.024 250.418 117.535 249.299C117.822 250.386 118.095 251.424 118.354 252.416ZM236.671 249.056C234.782 250.13 233.408 250.575 231.296 250.959L211.509 278.168V283.056L211.499 283.106C211.122 284.947 210.586 286.24 209.729 287.292C209.097 288.068 208.306 288.689 207.329 289.303C207.676 289.429 207.985 289.593 208.259 289.818C208.826 290.283 209.18 290.95 209.482 291.845L209.504 291.909L209.508 291.975C209.993 299.894 210.019 303.32 209.509 307.031C209.521 307.384 209.456 307.822 209.336 308.322C209.207 308.858 209.009 309.5 208.747 310.244C208.367 311.323 207.847 312.631 207.197 314.159C212.267 310.08 216.402 305.92 220.558 298.005C225.147 289.266 229.766 275.941 235.65 253.098C235.958 251.845 236.298 250.5 236.671 249.056ZM124.507 242.707C124.321 242.896 124.079 243.154 123.824 243.456C123.269 244.113 122.701 244.922 122.488 245.646C122.271 246.384 122.264 247.555 122.325 248.598C122.355 249.108 122.399 249.569 122.437 249.902C122.455 250.068 122.472 250.202 122.484 250.294C122.485 250.298 122.485 250.302 122.485 250.306L142.512 276.526C142.513 272.682 142.514 269.29 142.509 264.506V264.459L142.518 264.412C142.742 263.237 143.03 262.298 143.552 261.547L124.507 242.707ZM210.672 261.557C211.093 262.296 211.338 263.248 211.504 264.436L211.509 264.47V276.467L230.58 250.245C230.918 249.616 231.141 249.082 231.285 248.4C231.432 247.705 231.501 246.837 231.508 245.537C231.342 244.36 230.81 243.714 230.119 243.302C229.447 242.902 228.604 242.712 227.693 242.548L210.672 261.557ZM127.272 230.963C125.908 230.626 125.053 230.63 124.393 230.891C123.725 231.155 123.162 231.716 122.464 232.726C122.078 233.968 122.173 235.154 122.624 236.558C123.085 237.994 123.9 239.608 124.922 241.711L144.221 260.803C144.659 260.424 145.191 260.125 145.835 259.872C145.07 259.342 144.46 258.727 143.97 257.887C143.307 256.752 142.881 255.247 142.516 253.088L142.511 253.058L142.509 253.027C142.36 249.509 142.275 246.777 142.262 244.232L127.272 230.963ZM227.702 230.38C226.728 230.138 225.545 230.328 223.798 230.935L212.363 244.193C212.345 247.926 212.075 251.432 211.505 256.067L211.495 256.146L211.461 256.219C210.834 257.547 210.126 258.453 209.312 259.111C208.98 259.379 208.634 259.6 208.278 259.793C208.992 259.989 209.579 260.289 210.052 260.75L227.114 241.696C227.703 240.798 228.283 239.984 228.78 239.25C229.292 238.495 229.728 237.808 230.06 237.124C230.7 235.804 230.959 234.481 230.544 232.718C229.519 231.306 228.661 230.619 227.702 230.38ZM117.13 247.723C119.049 249.238 120.104 249.978 121.444 250.022C121.444 250.019 121.444 250.016 121.443 250.013C121.405 249.668 121.357 249.189 121.326 248.657C121.275 247.787 121.265 246.716 121.42 245.849C121.251 245.774 121.083 245.678 120.923 245.573C120.579 245.347 120.208 245.042 119.826 244.69C119.062 243.985 118.219 243.054 117.416 242.09C116.694 241.224 115.993 240.314 115.403 239.502L117.13 247.723ZM238.227 239.512C236.258 242.763 234.772 244.472 232.503 245.794C232.489 246.988 232.42 247.864 232.264 248.606C232.169 249.054 232.043 249.447 231.887 249.827C233.737 249.436 235.011 248.92 236.998 247.701L238.227 239.512ZM111.521 221.011L114.843 236.831C115.227 237.582 116.626 239.582 118.184 241.451C118.973 242.398 119.786 243.291 120.505 243.955C120.865 244.287 121.191 244.553 121.472 244.737C121.56 244.795 121.64 244.84 121.71 244.878C122.042 244.11 122.587 243.369 123.06 242.81C123.352 242.464 123.628 242.173 123.831 241.967C123.855 241.943 123.878 241.92 123.899 241.898C122.947 239.944 122.14 238.323 121.672 236.864C121.213 235.434 121.066 234.119 121.422 232.739C120.291 232.039 119.174 230.983 117.709 229.114C116.215 227.208 114.337 224.43 111.693 220.276C111.636 220.519 111.579 220.764 111.521 221.011ZM240.749 219.931C236.32 227.861 234.402 230.107 231.561 232.679C231.971 234.598 231.665 236.104 230.959 237.56C230.594 238.312 230.126 239.047 229.608 239.81C229.209 240.4 228.786 240.997 228.345 241.65C229.126 241.807 229.937 242.029 230.631 242.443C231.427 242.917 232.05 243.632 232.355 244.717C234.631 243.29 236.1 241.311 238.628 236.839L241 221.027C240.912 220.661 240.828 220.296 240.749 219.931ZM131.814 219.477C130.293 219.172 129.307 219.157 128.542 219.417C127.802 219.668 127.194 220.205 126.488 221.196C126.261 222.856 126.253 224.174 126.479 225.53C126.708 226.9 127.179 228.33 127.93 230.211L142.26 242.896C142.272 240.524 142.352 238.228 142.509 235.493C142.507 234.218 142.64 233.171 143.225 232.273C143.625 231.659 144.213 231.154 145.029 230.684C144.562 230.496 144.163 230.222 143.823 229.826C143.236 229.139 142.879 228.144 142.566 226.809L131.814 219.477ZM224.426 219.297C223.666 219.085 222.867 219.181 221.727 219.466L211.979 226.778C211.807 228.217 211.46 229.291 210.664 229.995C210.363 230.261 210.013 230.46 209.612 230.609C210.007 230.781 210.356 230.997 210.657 231.275C211.405 231.966 211.784 232.964 211.949 234.351L212.008 234.969V234.971C212.209 237.887 212.328 240.352 212.357 242.669L223.118 230.192C225.888 226.349 227.065 224.327 227.012 221.203C225.964 220.044 225.176 219.508 224.426 219.297ZM114.224 204.54C113.85 210.057 113.115 214.101 112.012 218.912C114.935 223.529 116.939 226.51 118.496 228.497C119.885 230.269 120.899 231.224 121.867 231.839C122.516 230.953 123.171 230.299 124.024 229.961C124.787 229.66 125.648 229.635 126.704 229.821C126.11 228.266 125.706 226.969 125.493 225.695C125.252 224.251 125.26 222.86 125.482 221.177C121.199 216.724 118.563 212.732 114.234 204.365C114.231 204.423 114.228 204.482 114.224 204.54ZM239.675 205.707C237.384 211.275 234.064 215.151 228.012 221.208C228.059 224.303 226.977 226.433 224.776 229.585C225.972 229.268 226.999 229.176 227.943 229.411C229.13 229.706 230.098 230.494 231.08 231.765C233.823 229.26 235.741 226.942 240.446 218.417C239.766 214.709 239.53 210.884 239.675 205.707ZM130.44 207.576C130.059 210.901 129.973 213.171 130.245 214.846C130.524 216.566 131.179 217.65 132.313 218.608L142.47 225.533C142.341 221.534 142.64 218.448 143.834 215.784C144.952 213.288 146.831 211.213 149.755 209.102C141.971 209.491 136.746 209.142 130.44 207.576ZM223.061 207.501C217.978 208.708 211.849 209.043 204.218 209.016C207.298 211.109 209.275 213.186 210.466 215.71C211.723 218.372 212.077 221.474 212.027 225.49L221.209 218.605L221.215 218.6C221.72 218.234 222.117 217.837 222.426 217.335C222.736 216.83 222.972 216.196 223.125 215.338C223.42 213.687 223.395 211.273 223.061 207.501ZM240.33 194.671C238.359 197.898 236.232 200.441 233.797 202.427C230.995 204.713 227.809 206.243 224.043 207.251C224.392 211.122 224.434 213.698 224.109 215.514C223.94 216.464 223.668 217.223 223.278 217.858C223.203 217.98 223.122 218.096 223.039 218.208C223.605 218.155 224.149 218.182 224.695 218.335C225.638 218.599 226.519 219.218 227.522 220.282C234.414 213.37 237.575 209.418 239.806 202.415C239.923 200.115 240.1 197.56 240.33 194.671ZM114.514 194.223C114.516 197.329 114.461 200.003 114.347 202.393C119.046 211.604 121.672 215.721 125.961 220.229C126.629 219.371 127.324 218.775 128.221 218.47C128.913 218.235 129.688 218.188 130.604 218.279C129.916 217.397 129.477 216.359 129.258 215.007C128.958 213.164 129.067 210.735 129.463 207.327C128.006 206.943 126.484 206.498 124.857 205.982L124.785 205.96L124.723 205.916C121.141 203.42 118.795 200.846 114.514 194.223Z" fill="black"/>
<g id="Quads">
<path d="M202.009 478.505C201.895 470.581 201.309 465.867 196.509 455.505C197.384 419.277 195.981 397.069 205.009 369.005C204.113 361.421 202.811 358.182 198.825 354.505C203.475 350.086 207.904 345.72 212.526 340.882C214.118 339.217 215.733 337.495 217.388 335.695C219.054 333.884 220.76 331.995 222.524 330.005C260.825 371.403 256.655 404.467 236.009 468.005C233.685 475.884 232.812 477.437 231.509 478.505C228.44 475.959 226.697 473.398 223.509 465.005C222.554 476.919 220.941 478.833 218.009 482.005C214.725 480.697 212.754 479.488 207.509 471.005C206.03 475.422 204.77 476.939 202.009 478.505Z" fill="#D9D9D9"/>
<path d="M157.509 455.505C153.729 465.327 153.562 470.023 153.009 478.505C150.64 477.07 149.324 475.563 147.009 471.005C142.672 478.663 140.271 480.452 136.009 482.005C132.927 478.463 131.527 475.576 131.009 465.005C128.255 473.19 126.497 476.095 123.009 478.505C120.266 477.106 118.87 475.365 117.009 468.005C95.8969 400.786 93.5531 367.831 130.347 330.005C131.953 331.844 133.663 333.73 135.509 335.695C137.072 337.36 138.732 339.083 140.509 340.882C144.525 344.952 149.135 349.416 154.556 354.505C151.274 357.474 150.284 361.189 149.009 369.005C158.72 405.777 156.456 422.786 157.509 455.505Z" fill="#D9D9D9"/>
</g>
<path id="Quads (Stroke)" d="M222.891 329.666C242.101 350.428 250.699 369.149 251.871 390.675C253.041 412.162 246.806 436.394 236.484 468.16C235.324 472.092 234.518 474.475 233.833 476.013C233.138 477.572 232.551 478.297 231.826 478.892L231.507 479.154L231.189 478.89C228.286 476.481 226.548 474.046 223.818 467.18C223.362 471.877 222.768 474.832 221.968 476.96C221.043 479.419 219.85 480.75 218.376 482.345L218.143 482.597L217.824 482.47C216.151 481.804 214.769 481.144 213.144 479.553C211.654 478.095 209.972 475.862 207.636 472.15C207.012 473.859 206.395 475.118 205.64 476.125C204.74 477.326 203.671 478.137 202.256 478.94L201.521 479.357L201.508 478.512C201.452 474.56 201.278 471.441 200.528 468.027C199.778 464.611 198.447 460.878 196.055 455.715L196.007 455.61L196.009 455.494C196.882 419.357 195.48 397.06 204.499 368.959C204.055 365.235 203.514 362.616 202.615 360.485C201.713 358.348 200.44 356.675 198.486 354.873L198.093 354.511L198.48 354.143C203.126 349.728 207.549 345.367 212.165 340.537C213.754 338.873 215.367 337.154 217.02 335.357C218.684 333.548 220.388 331.661 222.15 329.673L222.516 329.26L222.891 329.666ZM130.723 329.676C132.325 331.51 134.032 333.391 135.874 335.353C137.434 337.015 139.091 338.734 140.865 340.531C144.876 344.594 149.48 349.055 154.898 354.141L155.294 354.512L154.891 354.877C151.77 357.7 150.789 361.22 149.519 368.983C159.217 405.753 156.958 422.842 158.008 455.49L158.011 455.59L157.975 455.685C154.224 465.433 154.06 470.067 153.507 478.538L153.454 479.36L152.75 478.933C151.527 478.192 150.559 477.42 149.601 476.241C148.771 475.218 147.955 473.9 146.985 472.051C145.023 475.433 143.432 477.624 141.826 479.157C140.083 480.82 138.348 481.685 136.18 482.475L135.857 482.593L135.632 482.334C134.064 480.532 132.899 478.866 132.071 476.294C131.387 474.17 130.94 471.442 130.659 467.527C128.332 473.984 126.551 476.665 123.293 478.917L123.048 479.086L122.782 478.951C121.35 478.22 120.235 477.378 119.251 475.75C118.285 474.152 117.456 471.815 116.524 468.128H116.523C105.973 434.533 100.084 409.417 101.465 387.951C102.848 366.438 111.528 348.635 129.989 329.657L130.367 329.268L130.723 329.676ZM145.789 408.058C138.498 427.949 134.78 440.962 131.51 465.027C131.77 470.274 132.246 473.573 133.023 475.988C133.756 478.266 134.765 479.776 136.161 481.412C138.098 480.682 139.612 479.887 141.135 478.433C142.743 476.899 144.384 474.612 146.519 470.852C148.384 448.467 149.47 434.87 145.789 408.058ZM208.73 408.082C205.705 430.692 205.964 444.64 207.998 470.844C210.582 475.015 212.343 477.369 213.844 478.838C215.237 480.202 216.415 480.813 217.875 481.41C219.214 479.952 220.225 478.753 221.032 476.608C221.893 474.319 222.529 470.933 223.006 465.017C220.175 442.334 216.512 429.497 208.73 408.082ZM130.33 330.742C112.256 349.443 103.818 366.935 102.463 388.015C101.138 408.617 106.572 432.689 116.51 464.73L117.486 467.856L117.49 467.869L117.494 467.882C118.423 471.555 119.222 473.769 120.106 475.232C120.912 476.565 121.797 477.286 122.972 477.919C126.152 475.642 127.849 472.817 130.519 464.888C133.895 440.046 137.752 426.913 145.487 405.973C139.594 380.381 135.747 365.552 135.014 335.898C133.351 334.123 131.797 332.412 130.33 330.742ZM222.529 330.751C220.942 332.536 219.402 334.242 217.894 335.882C218.825 359.414 214.729 376.165 209.025 405.963C217.268 428.501 221.076 441.488 223.996 464.879C227.042 472.891 228.737 475.468 231.5 477.84C231.955 477.399 232.39 476.794 232.92 475.606C233.576 474.133 234.367 471.803 235.529 467.864L235.533 467.851C245.857 436.079 252.031 412.009 250.873 390.73C249.724 369.629 241.358 351.223 222.529 330.751ZM216.929 336.927C215.589 338.375 214.275 339.774 212.975 341.135L205.492 369.134L205.489 369.147L205.485 369.159C196.495 397.104 197.881 419.197 197.01 455.401C199.389 460.546 200.738 464.323 201.505 467.812C202.219 471.067 202.42 474.052 202.492 477.63C203.462 477.013 204.201 476.375 204.84 475.524C205.625 474.476 206.281 473.077 207.002 470.939C204.903 443.915 204.687 429.85 208.013 405.936L208.015 405.924L208.017 405.912C213.663 376.406 217.702 359.826 216.929 336.927ZM136.045 336.99C136.844 365.846 140.658 380.537 146.496 405.893L146.501 405.914L146.504 405.935C150.528 434.168 149.43 447.964 147.519 470.904C148.641 473.103 149.512 474.547 150.377 475.611C151.06 476.453 151.747 477.063 152.564 477.624C153.077 469.677 153.361 464.917 157.006 455.42C155.96 422.727 158.207 405.796 148.525 369.133H148.524L140.065 341.144C138.655 339.714 137.318 338.333 136.045 336.99ZM148.871 366.825C149.95 360.682 151.018 357.251 153.827 354.505C149.19 350.147 145.15 346.247 141.567 342.658L148.871 366.825ZM211.543 342.625C207.52 346.789 203.616 350.632 199.551 354.503C201.372 356.247 202.63 357.946 203.537 360.095C204.277 361.85 204.774 363.889 205.17 366.465L211.543 342.625Z" fill="black"/>
<path id="Adductors" d="M181.009 371.005C177.876 372.508 176.034 372.66 172.509 371.005C173.474 414.549 167.288 428.566 157.509 455.505L157.503 454.877C157.156 418.653 156.959 398.15 149.009 368.505C150.512 361.016 151.492 357.249 154.509 354.505L172.509 371.005C176.034 372.66 177.876 372.508 181.009 371.005L199.009 354.505C202.607 358.158 203.835 361.348 205.009 368.505C197.626 390.39 196.784 412.47 196.509 455.505C187.441 430.562 181.852 417.928 181.009 371.005Z" fill="#D9D9D9"/>
<path id="Adductors (Stroke)" d="M199.365 354.155C201.2 356.018 202.447 357.78 203.379 359.998C204.306 362.202 204.913 364.837 205.502 368.424L205.522 368.547L205.482 368.666C198.13 390.461 197.284 412.459 197.009 455.508L196.039 455.676C191.51 443.217 187.831 433.786 185.186 421.604C182.569 409.551 180.966 394.817 180.523 371.776C179.234 372.342 178.103 372.672 176.913 372.689C175.707 372.707 174.485 372.405 173.023 371.783C173.458 393.141 172.154 407.373 169.527 419.587C166.87 431.944 162.863 442.222 157.979 455.676L157.009 455.51L157.003 454.882C156.656 418.656 156.457 398.211 148.525 368.635L148.495 368.522L148.519 368.407C150.014 360.955 151.013 357.009 154.173 354.135L154.51 353.829L172.787 370.583C174.484 371.373 175.729 371.706 176.898 371.689C178.067 371.672 179.217 371.303 180.729 370.584L199.026 353.811L199.365 354.155ZM154.515 355.189C151.909 357.764 150.959 361.335 149.521 368.489C157.304 397.556 157.644 417.881 157.981 452.748C162.445 440.517 166.081 430.853 168.549 419.378C171.178 407.152 172.482 392.856 172.013 371.228L154.515 355.189ZM181.513 371.22C181.94 394.534 183.545 409.332 186.163 421.391C188.605 432.638 191.928 441.516 196.029 452.736C196.324 411.598 197.279 389.924 204.494 368.465C203.915 364.96 203.327 362.454 202.457 360.385C201.639 358.44 200.565 356.863 198.987 355.203L181.513 371.22Z" fill="black"/>
<g id="Abductors">
<path d="M118.822 315.505C123.924 322.343 126.553 325.731 130.322 330.005C94.4899 367.347 94.1021 398.954 116.822 468.005C114.65 476.25 113.173 478.902 110.322 482.005C94.7645 419.445 96.1927 383.056 118.822 315.505Z" fill="#D9D9D9"/>
<path d="M234.509 316.005L222.509 330.005C260.384 370.666 256.706 403.645 235.822 468.505C238.786 476.828 240.423 479.363 243.322 482.005C254.691 416.012 257.408 379.313 234.509 316.005Z" fill="#D9D9D9"/>
</g>
<path id="Abductors (Stroke)" d="M119.223 315.207C124.323 322.041 126.942 325.416 130.697 329.674L131.001 330.02L130.683 330.351C112.822 348.964 103.837 366.1 102.113 387.155C100.386 408.247 105.939 433.329 117.297 467.849L117.343 467.99L117.306 468.132C116.217 472.264 115.295 475.024 114.277 477.149C113.254 479.286 112.14 480.765 110.69 482.343L110.062 483.029L109.837 482.127C102.052 450.82 98.5086 426.03 99.7529 400.602C100.997 375.176 107.026 349.142 118.348 315.346L118.651 314.441L119.223 315.207ZM234.979 315.836C246.442 347.528 251.502 372.582 252.266 397.983C253.029 423.375 249.5 449.091 243.814 482.09L243.66 482.99L242.985 482.375C239.996 479.65 238.324 477.023 235.351 468.673L235.294 468.513L235.346 468.352C245.789 435.919 251.9 411.54 250.701 390.209C249.505 368.917 241.021 350.612 222.143 330.346L221.839 330.019L234.688 315.029L234.979 315.836ZM251.364 405.956C249.764 423.665 244.3 443.79 236.35 468.495C239.025 475.984 240.595 478.646 242.986 480.997C247.987 451.879 251.267 428.493 251.364 405.956ZM100.751 400.651C99.5254 425.695 102.968 450.142 110.58 480.961C111.677 479.69 112.556 478.429 113.376 476.717C114.341 474.703 115.233 472.053 116.3 468.02C106.94 439.556 101.495 417.404 100.865 398.564C100.824 399.26 100.785 399.956 100.751 400.651ZM223.178 329.992C237.019 344.923 245.291 358.86 249.17 373.748C246.682 356.398 241.952 338.188 234.328 316.984L223.178 329.992ZM118.994 316.57C112.444 336.207 107.702 353.198 104.663 368.974C109.027 355.42 117.189 343.035 129.646 329.99C126.163 326.02 123.596 322.726 118.994 316.57Z" fill="black"/>
<g id="Calves">
<path d="M135.009 598.505C149.829 555.958 148.477 541.048 146.009 514.505C127.927 530.022 122.052 546.972 124.509 602.005C126.599 618.204 128.423 625.323 133.009 634.005C132.708 616.978 132.062 606.033 135.009 598.505Z" fill="#D9D9D9"/>
<path d="M111.509 505.005L108.009 500.505C96.2541 530.583 95.42 552.766 106.009 603.505C107.375 612.029 106.788 620.935 106.009 636.005C115.269 579.589 117.273 550.316 111.509 505.005Z" fill="#D9D9D9"/>
<path d="M228.009 602.005C233.328 542.911 224.655 532.084 208.009 514.505C205.278 554.205 208.068 572.544 220.509 598.505C222.679 604.377 220.63 617.202 219.509 634.505C223.299 625.075 225.857 618.101 228.009 602.005Z" fill="#D9D9D9"/>
<path d="M245.509 501.505C243.867 503.638 242.878 504.767 241.009 506.505C239.415 598.003 241.642 608.66 246.009 623.505C246.868 632.625 247.278 634.093 247.509 636.505L248.509 603.505C254.34 561.04 261.305 536.444 245.509 501.505Z" fill="#D9D9D9"/>
</g>
<path id="Calves (Stroke)" d="M245.964 501.299C261.832 536.395 254.83 561.163 249.007 603.552L248.008 636.521L247.011 636.553C246.897 635.359 246.74 634.412 246.499 632.586C246.26 630.778 245.944 628.137 245.516 623.602C241.133 608.693 238.916 597.888 240.508 506.497L240.512 506.284L240.669 506.139C242.513 504.423 243.484 503.316 245.113 501.201L245.621 500.54L245.964 501.299ZM111.904 504.699L111.988 504.806L112.005 504.942C117.778 550.318 115.768 579.644 106.503 636.086L105.509 635.98C106.29 620.898 106.87 612.059 105.519 603.608L105.031 601.249C100.072 577.087 97.786 559.46 98.1305 544.246C98.4864 528.527 101.649 515.404 107.543 500.324L107.863 499.504L111.904 504.699ZM208.372 514.162C216.701 522.957 223.106 530.133 226.726 542.546C230.338 554.931 231.167 572.491 228.506 602.05L228.505 602.072C226.346 618.218 223.774 625.233 219.972 634.692L219.009 634.473C219.29 630.142 219.629 626.091 219.945 622.364C220.261 618.634 220.554 615.232 220.744 612.187C220.934 609.142 221.021 606.467 220.926 604.195C220.832 601.925 220.557 600.088 220.045 598.693C213.817 585.693 209.994 574.576 208.075 561.731C206.156 548.885 206.144 534.334 207.51 514.471L207.589 513.335L208.372 514.162ZM146.506 514.46C147.74 527.726 148.701 538.134 147.49 550.552C146.279 562.971 142.898 577.376 135.481 598.669L135.478 598.679L135.474 598.688C134.033 602.37 133.459 606.918 133.291 612.708C133.122 618.498 133.358 625.469 133.508 633.997L132.567 634.239C127.94 625.478 126.106 618.29 124.013 602.07L124.01 602.048L124.009 602.028C122.781 574.505 123.631 556.444 127.073 543.31C130.525 530.14 136.579 521.939 145.683 514.126L146.417 513.497L146.506 514.46ZM145.6 515.522C137.033 523.034 131.339 530.977 128.041 543.563C124.64 556.538 123.781 574.463 125.007 601.961C126.936 616.899 128.632 624.05 132.464 631.838C132.317 624.308 132.137 617.995 132.292 612.678C132.461 606.857 133.038 602.169 134.544 598.323C141.942 577.079 145.293 562.76 146.494 550.455C147.665 538.447 146.79 528.334 145.6 515.522ZM208.432 515.683C207.147 534.935 207.198 549.09 209.064 561.584C210.907 573.916 214.52 584.65 220.385 597.081L220.96 598.29L220.969 598.31L220.978 598.333C221.547 599.872 221.829 601.835 221.925 604.154C222.022 606.478 221.933 609.192 221.742 612.25C221.551 615.308 221.258 618.724 220.942 622.449C220.705 625.241 220.455 628.209 220.227 631.338C223.366 623.313 225.598 616.255 227.51 601.96C230.169 572.425 229.323 555.023 225.766 542.827C222.331 531.046 216.357 524.085 208.432 515.683ZM245.39 502.47C244.064 504.159 243.099 505.23 241.505 506.724C239.967 595.186 242.015 607.875 246.088 621.99L246.489 623.365L246.502 623.411L246.506 623.459C246.78 626.367 247.011 628.495 247.202 630.123L248.009 603.49V603.463L248.013 603.437C253.811 561.218 260.673 536.846 245.39 502.47ZM108.156 501.509C102.5 516.162 99.4757 528.977 99.1295 544.269C98.7877 559.372 101.057 576.911 106.01 601.046L106.499 603.403L106.503 603.426C107.574 610.108 107.449 617.021 106.976 626.847C114.957 576.32 116.448 547.882 111.029 505.203L108.156 501.509Z" fill="black"/>
<path id="Head" d="M213.509 48.5054C212.692 56.6552 211.553 59.8469 209.009 64.5054C207.409 66.0819 206.444 66.2872 204.509 64.5054C205.024 74.2849 203.83 77.9652 199.509 83.0054V104.505C199.509 104.505 188.509 135.505 177.009 145.505C165.509 135.505 154.509 104.505 154.509 104.505V83.0054C150.768 77.2429 150.292 73.1089 150.509 64.5054C148.873 66.7239 147.315 66.9818 145.009 64.5054C142.296 58.722 141.297 55.2257 140.509 48.5054C142.163 45.2948 143.341 44.4306 146.009 45.0054C146.359 34.3091 143.925 28.1182 148.509 19.0054C152.666 10.7402 158 6.38355 165.509 2.50544C174.837 -0.263647 179.849 -0.0724804 188.509 2.50544C197.342 7.27754 201.827 10.5948 206.009 19.0054C210.543 28.1241 208.036 35.7657 208.009 45.0054C210.422 45.0106 211.632 45.7506 213.509 48.5054Z" fill="#DADADA"/>
<path id="Head (Stroke)" d="M155.009 104.417C155.01 104.419 155.011 104.422 155.012 104.425C155.033 104.484 155.064 104.571 155.105 104.685C155.188 104.913 155.312 105.25 155.473 105.682C155.795 106.547 156.268 107.794 156.872 109.322C158.08 112.378 159.811 116.556 161.899 121.045C163.988 125.534 166.433 130.328 169.067 134.619C171.359 138.351 173.783 141.679 176.227 144.095L171.02 117.11C167.935 105.66 165.569 99.7896 160.845 89.8014L155.009 84.1803V104.417ZM194.431 89.7799C189.868 99.2271 187.54 105.125 183.991 117.133L177.858 144.026C180.279 141.616 182.68 138.316 184.95 134.619C187.585 130.328 190.029 125.534 192.118 121.045C194.207 116.556 195.937 112.378 197.146 109.322C197.75 107.794 198.223 106.547 198.545 105.682C198.706 105.25 198.829 104.913 198.912 104.685C198.954 104.571 198.985 104.484 199.006 104.425C199.007 104.422 199.008 104.419 199.009 104.417V84.3708L194.431 89.7799ZM192.827 90.8122C185.108 95.4883 181.321 97.0837 177 97.0055H176.989C172.454 96.8318 168.813 94.9814 162.459 90.8815C166.46 99.4278 168.731 105.136 171.415 114.77L171.991 116.876L171.996 116.893L172 116.911L177.049 143.078L183.021 116.894L183.024 116.879L183.029 116.864C186.408 105.429 188.692 99.4881 192.827 90.8122ZM199.509 104.506L199.979 104.674V104.674C199.979 104.675 199.978 104.677 199.978 104.678C199.976 104.682 199.974 104.688 199.972 104.696C199.966 104.711 199.958 104.734 199.947 104.763C199.926 104.823 199.894 104.912 199.853 105.027C199.769 105.258 199.645 105.597 199.482 106.032C199.158 106.902 198.682 108.155 198.075 109.689C196.862 112.758 195.123 116.955 193.024 121.466C190.926 125.977 188.464 130.808 185.802 135.142C183.144 139.47 180.269 143.333 177.337 145.882L177.009 146.168L176.681 145.882C173.749 143.333 170.874 139.47 168.216 135.142C165.554 130.808 163.092 125.977 160.993 121.466C158.894 116.955 157.156 112.758 155.942 109.689C155.336 108.155 154.859 106.902 154.535 106.032C154.373 105.597 154.249 105.258 154.165 105.027C154.123 104.912 154.092 104.823 154.07 104.763C154.06 104.734 154.051 104.711 154.046 104.696C154.043 104.688 154.041 104.682 154.04 104.678C154.039 104.677 154.038 104.675 154.038 104.674V104.674L154.037 104.673L154.009 104.591V83.1501C152.161 80.2789 151.1 77.7781 150.534 74.9176C150.025 72.3444 149.92 69.4976 149.98 65.862C149.392 66.4023 148.752 66.7389 148.028 66.7653C146.917 66.8058 145.817 66.1071 144.643 64.8464L144.59 64.7887L144.556 64.7174C141.819 58.884 140.806 55.3354 140.012 48.5641L139.994 48.4118L140.064 48.276C140.894 46.6669 141.652 45.541 142.605 44.9176C143.454 44.3629 144.394 44.2434 145.523 44.4089C145.581 41.9871 145.503 39.7956 145.403 37.736C145.297 35.5193 145.168 33.439 145.172 31.4108C145.18 27.3304 145.728 23.4234 148.062 18.7809C152.279 10.3982 157.702 5.97424 165.279 2.0612L165.321 2.03971L165.366 2.02604C170.056 0.633859 173.694 -0.0236922 177.263 0.000651502C180.831 0.0250057 184.301 0.730912 188.651 2.02604L188.701 2.04069L188.746 2.0651C193.168 4.45425 196.543 6.49992 199.338 9.01921C202.141 11.5462 204.343 14.5328 206.456 18.7829C208.769 23.435 209.283 27.7104 209.219 31.9674C209.187 34.0891 209.011 36.213 208.844 38.3659C208.688 40.3706 208.54 42.4055 208.514 44.5192C209.546 44.5705 210.411 44.7853 211.228 45.3014C212.156 45.888 212.974 46.8327 213.922 48.2243L214.024 48.3747L214.006 48.5553C213.596 52.6444 213.103 55.5144 212.386 57.9557C211.667 60.4019 210.728 62.3991 209.447 64.7448L209.412 64.8102L209.359 64.862C208.558 65.6518 207.795 66.2308 206.903 66.2643C206.287 66.2874 205.691 66.0448 205.06 65.5993C205.236 69.9148 205.038 73.0364 204.304 75.6667C203.518 78.4814 202.128 80.695 200.009 83.1881V104.591L199.98 104.673L199.509 104.506ZM177.256 1.00065C173.833 0.977307 170.312 1.60361 165.695 2.97135C158.276 6.80889 153.045 11.098 148.955 19.2301C146.707 23.7004 146.18 27.4455 146.172 31.4128C146.168 33.4083 146.295 35.4511 146.402 37.6882C146.51 39.9191 146.597 42.3278 146.509 45.0221L146.489 45.6208L145.903 45.4938C144.634 45.2203 143.829 45.3123 143.152 45.7546C142.457 46.2089 141.817 47.0819 141.024 48.5993C141.801 55.141 142.785 58.5747 145.429 64.2214C146.534 65.3926 147.35 65.7897 147.992 65.7663C148.634 65.7427 149.309 65.2897 150.106 64.2087L151.049 62.9303L151.009 64.5182C150.9 68.8163 150.967 71.9527 151.515 74.7233C152.057 77.4638 153.075 79.8679 154.897 82.6852L161.573 89.1139C168.859 93.8837 172.477 95.8313 177.028 96.0055H177.027C181.264 96.0797 185.004 94.4569 193.678 89.1217L199.127 82.6823L199.129 82.6803C201.263 80.1917 202.593 78.0752 203.341 75.3981C204.093 72.7056 204.267 69.4066 204.01 64.5319L203.945 63.3063L204.848 64.1374C205.803 65.0164 206.397 65.2829 206.866 65.2653C207.331 65.2477 207.837 64.9472 208.606 64.1969C209.85 61.9145 210.743 60.0019 211.427 57.6735C212.109 55.3525 212.588 52.6004 212.991 48.6383C212.112 47.3657 211.415 46.603 210.693 46.1471C209.962 45.6851 209.16 45.508 208.008 45.5055L207.507 45.5046L207.509 45.0036C207.516 42.6732 207.679 40.4465 207.847 38.2887C208.015 36.1254 208.188 34.0363 208.22 31.9528C208.282 27.7996 207.782 23.6946 205.562 19.2282C203.493 15.0676 201.361 12.1897 198.668 9.76237C195.977 7.33635 192.706 5.34277 188.319 2.97135C184.033 1.69757 180.678 1.024 177.256 1.00065Z" fill="black"/>
<g id="Hands">
<path d="M47.0088 361.005C53.003 350.27 54.6488 343.573 56.0088 331.005L36.0088 322.005C24.5733 325.584 19.8476 328.331 17.5088 330.505C12.8015 337.127 9.39173 339.197 2.50879 344.005C1.33978 345.746 1.15266 346.651 2.50879 348.005C6.4256 349.276 8.70838 349.39 13.0088 348.005C16.8681 346.461 18.4724 344.987 21.0088 342.005L17.5088 346.505C9.47478 359.8 1.37321 371.829 0.508789 376.005C0.983172 378.751 2.113 379.486 5.50879 379.505C7.35579 380.17 13.8214 369.987 22.5088 356.005C15.3392 369.866 10.2543 379.546 10.0088 381.005C10.1898 384.802 10.8102 386.048 16.0088 385.505C18.6833 383.121 22.2221 374.559 31.0088 360.005C25.5583 372.868 22.122 382.675 22.0088 385.505C22.3837 388.319 23.3072 389.242 27.0088 389.005C28.8995 388.774 29.5037 386.916 31.5088 383.505C32.5754 385.778 34.2427 386.468 37.0088 385.505C40.7337 381.356 42.8895 377.007 47.0088 361.005Z" fill="#D9D9D9"/>
<path d="M306.009 361.005C299.328 348.662 298.867 342.462 298.509 331.505L318.009 323.005C327.091 326.074 331.8 327.841 336.009 331.505C341.639 338.756 344.687 342.358 349.009 344.005C350.267 345.567 350.701 346.443 349.009 348.005C339.921 348.397 336.581 346.925 333.009 342.005C333.73 344.901 335.839 346.354 336.009 347.005C348.848 364.357 350.612 370.123 353.509 376.005L353.462 376.235C352.847 379.263 352.488 381.031 348.009 380.505C345.325 378.836 340.375 371.02 330.509 355.005C339.033 370.015 343.784 380.719 343.509 381.505C343.35 383.759 342.541 386.96 337.509 385.505C334.837 383.609 330.191 374.579 322.509 360.005C327.367 374.842 330.851 385.041 330.509 387.005C329.547 388.889 328.66 389.548 326.009 389.505C323.949 388.535 322.849 387.382 321.009 384.005C319.313 385.472 318.845 386.8 314.509 385.505C312.009 384.666 309.779 375.368 306.009 361.005Z" fill="#D9D9D9"/>
</g>
<path id="Hands (Stroke)" d="M318.169 322.532C326.953 325.499 331.737 327.276 335.933 330.784L336.337 331.128L336.374 331.161L336.403 331.199C341.881 338.253 344.834 341.73 348.8 343.383L349.187 343.539L349.313 343.586L349.398 343.692C349.715 344.085 349.998 344.457 350.209 344.817C350.421 345.179 350.577 345.556 350.613 345.961C350.689 346.809 350.227 347.561 349.348 348.373L349.213 348.497L349.03 348.505C344.47 348.702 341.277 348.436 338.76 347.463C337.544 346.994 336.5 346.362 335.54 345.558C335.686 345.728 335.824 345.883 335.95 346.032C336.068 346.17 336.181 346.308 336.271 346.436C336.336 346.53 336.406 346.643 336.455 346.767C342.857 355.422 346.509 361.204 348.925 365.564C351.339 369.92 352.527 372.881 353.957 375.785L354.033 375.938L353.952 376.335C353.8 377.084 353.657 377.793 353.456 378.409C353.254 379.029 352.981 379.596 352.545 380.049C351.648 380.981 350.227 381.27 347.95 381.003L347.84 380.989L347.745 380.93C347.001 380.467 346.145 379.611 345.143 378.385C344.133 377.15 342.944 375.502 341.538 373.415C340.606 372.031 339.576 370.45 338.436 368.664C339.308 370.384 340.085 371.96 340.76 373.374C341.872 375.704 342.711 377.595 343.257 378.958C343.529 379.637 343.731 380.194 343.857 380.612C343.92 380.819 343.967 381.004 343.994 381.158C344.007 381.234 344.017 381.313 344.02 381.389C344.021 381.439 344.019 381.507 344.004 381.583C343.921 382.717 343.669 384.216 342.7 385.24C341.671 386.328 339.984 386.741 337.37 385.986L337.288 385.962L337.22 385.913C336.476 385.385 335.643 384.402 334.708 383.055C333.764 381.696 332.684 379.919 331.453 377.756C329.615 374.526 327.427 370.41 324.838 365.5C326.473 370.475 327.881 374.765 328.937 378.185C329.655 380.512 330.214 382.447 330.572 383.926C330.751 384.666 330.882 385.3 330.957 385.818C331.03 386.322 331.058 386.763 331.001 387.091L330.988 387.166L330.954 387.233C330.46 388.201 329.944 388.941 329.146 389.409C328.353 389.873 327.357 390.027 326.001 390.005L325.893 390.003L325.796 389.958C324.72 389.451 323.873 388.885 323.058 387.996C322.344 387.217 321.667 386.204 320.877 384.8C320.839 384.836 320.802 384.871 320.765 384.907C320.584 385.078 320.402 385.252 320.219 385.415C319.85 385.742 319.447 386.047 318.937 386.254C317.905 386.673 316.567 386.642 314.366 385.985L314.357 385.982L314.35 385.979C313.918 385.834 313.539 385.524 313.199 385.124C312.858 384.721 312.53 384.196 312.211 383.57C311.572 382.318 310.932 380.597 310.259 378.478C308.916 374.249 307.415 368.335 305.54 361.189C302.204 355.017 300.405 350.351 299.4 345.844C298.394 341.331 298.188 336.998 298.009 331.522L297.998 331.182L298.309 331.047L317.809 322.547L317.986 322.47L318.169 322.532ZM36.2139 321.549L56.2139 330.549L56.5449 330.699L56.5059 331.059C55.1431 343.652 53.4857 350.416 47.4766 361.192C43.3665 377.147 41.189 381.598 37.3809 385.839L37.2949 385.935L37.1729 385.978C35.7349 386.478 34.4957 386.581 33.4463 386.187C32.6406 385.885 32.0059 385.312 31.499 384.525C31.1915 385.065 30.917 385.56 30.6621 386.015C30.2945 386.672 29.9613 387.251 29.627 387.733C28.9492 388.71 28.2151 389.361 27.0693 389.502L27.0547 389.503L27.041 389.504C25.1813 389.623 23.8588 389.47 22.9619 388.8C22.0462 388.117 21.7024 386.995 21.5127 385.572L21.5078 385.529L21.5088 385.486C21.5396 384.715 21.7911 383.522 22.2148 382.002C22.6421 380.469 23.2568 378.564 24.0361 376.351C25.0349 373.516 26.3077 370.167 27.8105 366.433C25.265 370.874 23.2753 374.583 21.6562 377.558C20.4984 379.686 19.5235 381.446 18.6699 382.825C17.8216 384.195 17.0679 385.231 16.3418 385.878L16.2207 385.986L16.0605 386.003C14.7463 386.14 13.6887 386.168 12.8408 386.061C11.9896 385.954 11.3131 385.706 10.7998 385.26C10.2843 384.813 9.988 384.213 9.80762 383.51C9.62924 382.815 9.55519 381.982 9.50977 381.029L9.50684 380.975L9.51562 380.922C9.55677 380.678 9.68439 380.319 9.85938 379.891C10.0405 379.449 10.2913 378.888 10.6045 378.22C11.2311 376.884 12.1173 375.099 13.2168 372.93C14.1717 371.047 15.2891 368.871 16.542 366.445C14.8108 369.151 13.2385 371.546 11.8535 373.534C10.3842 375.643 9.11513 377.314 8.08887 378.42C7.57791 378.971 7.10733 379.403 6.68652 379.678C6.31811 379.919 5.8688 380.118 5.42871 380.003C3.76282 379.988 2.5173 379.803 1.62891 379.189C0.696192 378.545 0.26062 377.508 0.015625 376.09L0 375.997L0.0195312 375.904C0.251362 374.784 0.950767 373.194 1.95703 371.272C2.97089 369.335 4.32232 367.014 5.89258 364.417C7.46336 361.818 9.25803 358.934 11.1602 355.873C12.9904 352.927 14.9193 349.814 16.8496 346.626C15.8326 347.293 14.6696 347.879 13.1943 348.469L13.1787 348.476L13.1621 348.481C10.9845 349.182 9.28179 349.515 7.61035 349.501C5.93941 349.486 4.33418 349.123 2.35449 348.481L2.24023 348.444L2.15527 348.359C1.43566 347.64 1.0314 346.947 1.0625 346.131C1.09184 345.362 1.51091 344.595 2.09375 343.727L2.14551 343.649L2.22266 343.595C9.11241 338.782 12.4514 336.756 17.1016 330.215L17.1309 330.174L17.168 330.139C19.5928 327.885 24.4098 325.111 35.8594 321.528L36.041 321.471L36.2139 321.549ZM299.021 331.827C299.197 337.145 299.413 341.306 300.376 345.627C301.358 350.031 303.123 354.623 306.448 360.767L306.478 360.82L306.492 360.878C308.38 368.07 309.876 373.966 311.212 378.175C311.88 380.281 312.501 381.939 313.102 383.116C313.402 383.704 313.689 384.155 313.962 384.477C314.232 384.795 314.464 384.958 314.655 385.026C316.788 385.663 317.851 385.616 318.561 385.328C318.921 385.182 319.225 384.96 319.556 384.667C319.723 384.518 319.889 384.358 320.076 384.181C320.192 384.071 320.315 383.957 320.444 383.839C318.434 376.44 316.893 371.705 314.034 363.164L314.983 362.847C317.874 371.484 319.424 376.25 321.474 383.813C322.376 385.465 323.081 386.541 323.795 387.32C324.481 388.068 325.189 388.555 326.124 389.005C327.355 389.016 328.101 388.862 328.64 388.546C329.172 388.234 329.572 387.723 330.022 386.855C330.04 386.681 330.03 386.391 329.968 385.961C329.899 385.487 329.776 384.886 329.601 384.162C329.25 382.713 328.698 380.802 327.981 378.48C326.548 373.836 324.464 367.584 322.033 360.161L322.951 359.772C326.795 367.064 329.872 372.955 332.322 377.262C333.547 379.416 334.611 381.162 335.529 382.485C336.422 383.771 337.152 384.612 337.733 385.047C340.096 385.711 341.309 385.255 341.974 384.552C342.695 383.789 342.931 382.585 343.01 381.47L343.015 381.404L343.018 381.395C343.016 381.38 343.014 381.358 343.009 381.329C342.992 381.232 342.958 381.091 342.9 380.902C342.786 380.525 342.596 379.998 342.328 379.33C341.794 377.995 340.964 376.124 339.857 373.804C337.644 369.166 334.331 362.748 330.074 355.253L330.935 354.743C335.869 362.752 339.568 368.701 342.367 372.855C343.767 374.932 344.936 376.552 345.917 377.753C346.857 378.902 347.6 379.631 348.184 380.02C350.305 380.253 351.278 379.924 351.824 379.356C352.114 379.055 352.327 378.646 352.505 378.099C352.684 377.549 352.816 376.9 352.972 376.135L352.985 376.07C351.555 373.146 350.41 370.308 348.05 366.048C345.655 361.727 342.017 355.966 335.606 347.303L335.55 347.225L335.525 347.131C335.527 347.138 335.517 347.103 335.451 347.009C335.39 346.922 335.304 346.816 335.189 346.681C334.969 346.423 334.65 346.07 334.323 345.658C333.723 344.899 333.05 343.883 332.643 342.552C328.712 343.032 326.627 343.251 324.014 342.293C322.678 341.802 321.216 341.011 319.296 339.826C317.375 338.64 314.964 337.04 311.734 334.923L312.283 334.087C315.523 336.211 317.915 337.798 319.821 338.975C321.728 340.152 323.12 340.9 324.358 341.354C326.8 342.25 328.69 342.029 332.948 341.509L333.24 341.473L333.413 341.711C335.167 344.127 336.825 345.644 339.12 346.531C341.406 347.414 344.376 347.691 348.799 347.512C349.499 346.834 349.648 346.4 349.617 346.049C349.599 345.845 349.517 345.613 349.347 345.323C349.19 345.056 348.973 344.764 348.698 344.419C344.299 342.693 341.176 338.973 335.646 331.852C331.56 328.308 326.983 326.567 318.03 323.541L299.021 331.827ZM35.9785 322.54C24.7409 326.07 20.1333 328.763 17.8809 330.842C13.152 337.481 9.68072 339.606 2.87305 344.36C2.32267 345.189 2.07845 345.726 2.06152 346.169C2.0466 346.561 2.21145 346.976 2.78125 347.567C4.66126 348.171 6.1256 348.487 7.61914 348.501C9.13968 348.514 10.7248 348.214 12.8398 347.534C14.7297 346.776 16.0477 346.045 17.1982 345.15C18.3567 344.248 19.3646 343.166 20.6279 341.681L20.8145 341.462L21.0967 341.513C23.584 341.959 25.8017 341.893 28.7861 340.777C31.8 339.65 35.5988 337.45 41.2266 333.593L41.791 334.418C36.155 338.28 32.2723 340.541 29.1367 341.713C26.0912 342.853 23.7538 342.963 21.2197 342.546L17.9219 346.788C15.9164 350.106 13.9079 353.345 12.0098 356.4C10.1064 359.463 8.3149 362.341 6.74805 364.933C5.18063 367.526 3.84212 369.827 2.84277 371.736C1.86738 373.599 1.24101 375.046 1.02051 376.015C1.25088 377.281 1.61213 377.963 2.19727 378.367C2.7488 378.748 3.57796 378.943 4.90918 378.993L5.51172 379.005L5.59766 379.006L5.67773 379.035C5.67839 379.034 5.80153 379.062 6.13965 378.841C6.4598 378.632 6.8659 378.269 7.35645 377.74C8.33332 376.687 9.56953 375.062 11.0332 372.961C13.9574 368.764 17.7385 362.735 22.084 355.742L22.9531 356.235C19.3672 363.168 16.3053 369.05 14.1084 373.382C13.0099 375.549 12.1296 377.323 11.5098 378.645C11.1997 379.306 10.9571 379.85 10.7852 380.27C10.626 380.659 10.5424 380.911 10.5117 381.045C10.5569 381.96 10.6285 382.686 10.7764 383.262C10.9257 383.844 11.1431 384.234 11.4551 384.504C11.7692 384.777 12.2334 384.977 12.9658 385.069C13.6695 385.158 14.5864 385.142 15.7881 385.024C16.3708 384.468 17.0306 383.574 17.8203 382.298C18.657 380.947 19.618 379.21 20.7773 377.08C23.0933 372.824 26.1808 367.035 30.5811 359.747L31.4688 360.201C28.7463 366.626 26.5286 372.283 24.9785 376.683C24.2033 378.884 23.5969 380.766 23.1777 382.27C22.7642 383.754 22.5442 384.834 22.5107 385.483C22.6966 386.845 23.0014 387.581 23.5605 387.999C24.1431 388.434 25.13 388.622 26.9629 388.506C27.6996 388.412 28.2105 388.019 28.8047 387.163C29.1083 386.725 29.4204 386.185 29.7891 385.527C30.149 384.884 30.5603 384.134 31.0547 383.292L39.043 362.824L39.9746 363.187L32.0557 383.478C32.5375 384.43 33.1086 384.992 33.7969 385.251C34.517 385.521 35.4575 385.493 36.7256 385.07C40.3079 381.049 42.4403 376.745 46.5244 360.88L46.541 360.818L46.5723 360.761C52.4682 350.202 54.1233 343.599 55.4707 331.311L35.9785 322.54Z" fill="black"/>
<g id="Feet">
<path d="M146.509 514.005C151.983 508.796 153.883 502.426 153.009 478.505C150.636 477.221 149.327 475.356 147.009 471.005C142.344 478.925 140.016 480.546 136.009 482.005C133.298 479.625 132.197 475.559 130.509 466.505C128.239 473.233 126.532 475.66 123.009 478.505C120.111 477.058 118.752 475.066 117.009 468.505C113.796 477.62 112.48 479.823 110.509 481.505C107.806 493.673 107.576 497.548 108.009 500.505C109.161 502.451 110.319 503.905 111.619 505.005C117.996 559.63 114.002 581.951 108.009 623.005L106.009 636.005C104.933 640.496 105.034 643.015 106.009 647.505C105.714 648.277 105.464 648.834 103.509 652.005L96.5088 666.505C93.6833 673.956 90.5005 678.021 81.0088 685.005C79.3199 688.773 78.4809 690.907 81.0088 695.505C87.287 697.992 90.3936 697.717 95.5088 695.505C101.63 700.366 106.59 699.041 117.009 692.505C121.329 680.482 123.658 673.614 133.009 668.505C135.846 661.266 138.13 657.443 133.009 647.505C134.458 641.684 134.974 638.628 133.009 633.505C129.157 627.535 127.299 620.575 124.509 602.005C122.814 553.94 125.352 531.637 146.509 514.005Z" fill="#D9D9D9"/>
<path d="M207.509 514.005C202.538 508.141 200.51 502.704 202.009 478.505C204.522 477.152 205.762 475.665 207.509 471.005C211.802 477.781 214.134 480.617 218.009 482.005C221.519 478.828 222.603 474.927 223.509 465.505C227.002 473.685 228.742 476.438 231.509 478.505C232.763 477.466 233.724 475.42 236.009 468.505C238.563 476.07 240.07 479.272 243.009 481.505C246.412 491.355 247.866 496.306 246.009 500.505C244.489 502.951 242.913 504.794 241.009 506.093C239.174 588.526 241.123 605.829 246.009 623.005C246.674 627.075 246.567 630.895 247.509 636.005C248.849 642.105 248.914 644.701 247.509 647.505L249.509 652.005C252.052 660.519 253.306 662.843 255.509 666.505C258.894 672.416 257.5 674.108 271.009 685.005C273.405 689.937 274.304 692.548 271.009 695.505C267.149 697.457 264.163 697.553 257.009 695.505C252.576 700.456 247.403 698.865 236.009 692.505C235.183 685.881 235.241 682.431 220.009 668.505C217.716 664.407 216.702 661.625 220.009 647.505L219.929 647.329C218.14 643.374 217.113 641.103 220.009 633.505C223.598 624.93 225.422 618.613 228.009 602.005C232.91 551.506 227.64 533.216 207.509 514.005Z" fill="#D9D9D9"/>
</g>
<path id="Feet (Stroke)" d="M131 466.414C131.844 470.943 132.536 474.191 133.349 476.598C134.11 478.855 134.966 480.335 136.119 481.428C137.951 480.742 139.397 480.005 140.918 478.565C142.532 477.037 144.252 474.7 146.578 470.752L147.03 469.983L147.45 470.77C149.624 474.85 150.859 476.632 152.84 477.833L153.247 478.066L153.498 478.202L153.509 478.487C153.946 490.449 153.692 498.074 152.63 503.371C151.56 508.703 149.667 511.691 146.854 514.368L146.842 514.379L146.829 514.389C136.34 523.131 130.472 533.015 127.428 546.701C124.377 560.414 124.162 577.94 125.008 601.963C127.797 620.519 129.646 627.37 133.429 633.234L133.457 633.278L133.476 633.327C134.478 635.939 134.856 638.049 134.789 640.258C134.724 642.405 134.238 644.625 133.538 647.446C136.055 652.377 136.785 655.87 136.491 659.063C136.197 662.257 134.876 665.112 133.475 668.688L133.408 668.857L133.248 668.944C124.088 673.948 121.809 680.626 117.48 692.674L117.421 692.837L117.274 692.929C112.068 696.195 108.146 698.213 104.729 698.772C101.339 699.326 98.4905 698.438 95.4346 696.078C92.9739 697.123 90.9185 697.732 88.7032 697.767C86.409 697.803 83.992 697.225 80.8242 695.97L80.6573 695.904L80.5703 695.747C79.2792 693.398 78.8154 691.618 78.9287 689.911C79.0405 688.227 79.7146 686.671 80.5528 684.801L80.6065 684.681L80.7129 684.603C85.4467 681.12 88.5763 678.385 90.8731 675.611C93.1634 672.845 94.6413 670.019 96.041 666.328L96.0489 666.308L96.0586 666.288L103.059 651.788L103.069 651.765L103.083 651.743C104.915 648.77 105.229 648.125 105.488 647.461C105.018 645.273 104.753 643.522 104.74 641.759C104.727 639.96 104.976 638.171 105.517 635.911L107.515 622.929C113.498 581.938 117.481 559.672 111.144 505.254C109.852 504.125 108.706 502.662 107.579 500.76L107.528 500.675L107.514 500.578C107.065 497.518 107.32 493.557 110.021 481.397L110.057 481.234L110.185 481.126C112.038 479.544 113.318 477.472 116.537 468.339L117.076 466.811L117.492 468.378C118.362 471.65 119.123 473.727 120.002 475.161C120.804 476.468 121.715 477.249 122.947 477.907C124.553 476.586 125.75 475.35 126.808 473.692C127.926 471.939 128.905 469.695 130.035 466.345L130.648 464.527L131 466.414ZM223.969 465.309C227.317 473.148 229.017 475.893 231.48 477.848C231.921 477.393 232.368 476.712 232.917 475.503C233.587 474.024 234.392 471.806 235.534 468.348L236.004 466.927L236.482 468.345C238.963 475.691 240.419 478.785 243.053 480.905L243.312 481.107L243.432 481.199L243.481 481.342C245.181 486.26 246.408 489.996 246.973 493.033C247.54 496.083 247.45 498.483 246.466 500.708L246.452 500.74L246.434 500.769C244.949 503.159 243.389 505.013 241.503 506.355C239.735 586.014 241.514 604.655 246.042 621.264L246.489 622.869L246.498 622.896L246.502 622.924C246.838 624.983 246.98 626.98 247.153 629.074C247.327 631.172 247.535 633.385 248.001 635.915C249.307 641.863 249.437 644.623 248.06 647.514L249.966 651.802L249.979 651.832L249.988 651.862C252.205 659.281 253.429 661.958 255.16 664.937L255.938 666.248L255.942 666.257C256.8 667.755 257.359 668.991 257.91 670.141C258.462 671.292 259.014 672.37 259.872 673.599C261.486 675.91 264.21 678.788 270.102 683.623L271.322 684.617L271.409 684.686L271.458 684.787C272.647 687.235 273.521 689.209 273.642 690.961C273.767 692.788 273.077 694.321 271.343 695.878L271.294 695.921L271.234 695.952C269.252 696.954 267.464 697.493 265.247 697.505C263.112 697.518 260.605 697.039 257.17 696.069C256.081 697.229 254.925 698.039 253.624 698.492C252.239 698.974 250.732 699.037 249.033 698.739C245.666 698.148 241.453 696.117 235.765 692.942L235.544 692.819L235.513 692.567C235.098 689.245 234.913 686.826 232.979 683.495C231.027 680.134 227.283 675.833 219.672 668.875L219.611 668.82L219.572 668.75C218.409 666.67 217.541 664.87 217.409 661.785C217.28 658.763 217.857 654.524 219.482 647.556L219.474 647.535C218.584 645.568 217.838 643.93 217.713 641.812C217.589 639.697 218.084 637.153 219.542 633.328L219.544 633.32L219.548 633.312C223.116 624.789 224.931 618.516 227.512 601.945C229.96 576.713 229.86 559.589 226.66 546.39C223.467 533.219 217.179 523.923 207.164 514.367L207.145 514.349L207.127 514.329C204.597 511.344 202.801 508.441 201.841 503.221C200.888 498.04 200.76 490.578 201.51 478.474L201.527 478.197L201.772 478.065C202.983 477.413 203.859 476.746 204.647 475.696C205.445 474.631 206.172 473.147 207.041 470.83L207.394 469.889L207.932 470.738C212.121 477.351 214.366 480.069 217.894 481.428C221.072 478.429 222.124 474.674 223.011 465.458L223.969 465.309ZM130.363 468.421C129.463 470.882 128.616 472.716 127.65 474.23C126.462 476.093 125.112 477.45 123.323 478.894L123.073 479.096L122.785 478.953C121.267 478.194 120.126 477.275 119.149 475.684C118.346 474.375 117.664 472.622 116.95 470.159C114.181 477.854 112.861 480.101 110.963 481.769C108.322 493.685 108.094 497.505 108.491 500.336C109.608 502.207 110.716 503.586 111.942 504.624C114.552 506.832 117.78 507.568 123.05 508.007L122.968 509.003C118.246 508.61 114.944 507.97 112.25 506.115C118.442 559.958 114.456 582.304 108.504 623.078L108.503 623.082L106.503 636.082L106.5 636.102L106.495 636.122C105.963 638.342 105.728 640.052 105.74 641.752C105.753 643.454 106.013 645.167 106.497 647.399L106.529 647.544L106.476 647.684C106.163 648.502 105.889 649.095 103.947 652.247L96.9688 666.701C95.545 670.452 94.0201 673.378 91.6436 676.249C89.2876 679.094 86.1107 681.864 81.4121 685.328C80.5899 687.166 80.0227 688.533 79.9268 689.977C79.8327 691.394 80.1931 692.94 81.3614 695.106C84.386 696.291 86.6182 696.799 88.6875 696.767C90.7926 696.734 92.7777 696.141 95.3106 695.046L95.585 694.927L95.8194 695.114C98.7957 697.477 101.428 698.299 104.566 697.786C107.734 697.268 111.461 695.386 116.597 692.172C120.846 680.342 123.246 673.338 132.608 668.158C134.016 664.579 135.222 661.938 135.495 658.971C135.769 655.995 135.098 652.652 132.564 647.735L132.479 647.567L132.523 647.384C133.249 644.471 133.726 642.3 133.789 640.228C133.851 638.186 133.509 636.219 132.559 633.729C128.661 627.666 126.796 620.59 124.015 602.08L124.01 602.051L124.009 602.023C123.162 577.993 123.368 560.342 126.451 546.484C129.539 532.602 135.514 522.523 146.17 513.637C148.828 511.106 150.62 508.304 151.649 503.173C152.679 498.042 152.94 490.598 152.518 478.8C150.31 477.527 148.982 475.694 146.984 472.016C144.865 475.543 143.211 477.77 141.605 479.291C140.017 480.794 138.496 481.59 136.686 482.284C139.174 487.707 140.254 491.958 139.583 496.029C138.892 500.219 136.364 504.12 131.871 508.85L131.147 508.161C135.598 503.474 137.956 499.755 138.597 495.866C139.234 491.998 138.189 487.865 135.596 482.305C134.196 481.044 133.226 479.362 132.401 476.918C131.68 474.78 131.06 472.029 130.363 468.421ZM223.811 467.459C222.941 475.468 221.774 479.222 218.433 482.294C215.977 488.445 215.165 492.827 215.83 496.68C216.499 500.552 218.673 503.974 222.384 508.174L221.634 508.836C217.887 504.595 215.562 501.001 214.845 496.851C214.146 492.809 214.99 488.319 217.359 482.292C213.753 480.842 211.412 478.025 207.619 472.106C206.885 473.953 206.21 475.277 205.446 476.295C204.607 477.415 203.674 478.144 202.491 478.807C201.761 490.741 201.902 498.026 202.824 503.041C203.745 508.048 205.445 510.795 207.88 513.669C217.981 523.314 224.385 532.764 227.632 546.154C230.874 559.526 230.958 576.794 228.507 602.053L228.503 602.083C225.913 618.715 224.08 625.075 220.47 633.699C219.037 637.462 218.599 639.848 218.711 641.753C218.823 643.659 219.486 645.135 220.385 647.123L220.465 647.299L220.534 647.454L220.495 647.62C218.843 654.674 218.286 658.843 218.409 661.743C218.53 664.571 219.299 666.206 220.408 668.194C227.988 675.128 231.816 679.5 233.844 682.992C235.842 686.433 236.082 689.006 236.474 692.191C242.065 695.303 246.071 697.205 249.206 697.754C250.779 698.03 252.108 697.961 253.296 697.547C254.484 697.134 255.57 696.362 256.637 695.171L256.846 694.939L257.147 695.025C260.712 696.046 263.192 696.517 265.241 696.505C267.248 696.494 268.869 696.017 270.722 695.088C272.245 693.705 272.743 692.466 272.645 691.03C272.541 689.525 271.785 687.755 270.605 685.322C263.904 679.91 260.849 676.744 259.052 674.171C258.147 672.877 257.569 671.742 257.008 670.573C256.448 669.405 255.912 668.216 255.08 666.762C252.855 663.063 251.585 660.701 249.037 652.177L246.956 647.493L247.062 647.282C248.382 644.646 248.359 642.205 247.021 636.113L247.019 636.104L247.017 636.096C246.541 633.516 246.331 631.262 246.156 629.156C245.982 627.052 245.844 625.11 245.519 623.108C240.634 605.923 238.69 588.578 240.488 507.01C237.784 508.578 234.469 509.183 229.989 509.005L230.028 508.005C234.844 508.197 238.123 507.456 240.727 505.68C242.546 504.439 244.071 502.668 245.564 500.272C246.424 498.306 246.534 496.138 245.99 493.215C245.447 490.293 244.263 486.67 242.584 481.808C239.781 479.624 238.255 476.542 236.013 470.062C235.108 472.745 234.424 474.6 233.828 475.915C233.132 477.45 232.54 478.3 231.828 478.89L231.524 479.141L231.21 478.906C228.541 476.912 226.816 474.304 223.811 467.459Z" fill="black"/>
</g>
</svg>
