<svg width="355" height="687" viewBox="0 0 355 687" fill="none" xmlns="http://www.w3.org/2000/svg">
<g id="Male-Back">
<g id="Forearms">
<path d="M65.0088 315.775L56.0088 330.275L48.0088 326.275L36.0088 321.275L58.5088 250.775C61.5456 244.809 63.3225 241.646 67.0088 237.275C71.2733 232.743 73.6836 231.081 78.0088 229.275C77.9439 233.722 77.9562 236.395 78.0088 241.275C78.2578 246.386 78.8959 249.362 80.5088 254.775C87.795 251.055 91.5781 248.623 97.0088 242.775C97.5985 274.385 88.5795 289.892 65.0088 315.775Z" fill="#D9D9D9"/>
<path d="M298.509 330.775L288.509 315.775C263.301 289.694 258.937 273.147 255.509 242.775C261.664 249.079 265.592 252.678 272.009 254.775C274.581 252.096 275.59 249.316 276.009 240.275V229.275C281.964 231.798 284.677 233.564 288.509 237.275C292.698 243.643 293.651 246.162 295.509 250.775L317.509 322.275L307.009 326.775L298.509 330.775Z" fill="#D9D9D9"/>
</g>
<path id="Forearms (Stroke)" d="M276.204 228.815C282.206 231.358 284.974 233.156 288.856 236.916L288.896 236.954L288.927 237C292.614 242.606 293.816 245.261 295.308 248.938L295.973 250.588L295.98 250.608L295.986 250.627L317.986 322.127L318.119 322.557L317.706 322.735L307.206 327.235L307.205 327.234L298.332 331.411L288.117 316.088C275.506 303.035 268.078 292.336 263.38 281.077C258.68 269.814 256.727 258.024 255.012 242.831L254.849 241.383L255.866 242.425C261.92 248.625 265.749 252.128 271.86 254.197C272.981 252.982 273.77 251.723 274.336 249.772C274.944 247.676 275.3 244.776 275.509 240.275V228.52L276.204 228.815ZM78.5088 229.282C78.444 233.723 78.4552 236.391 78.5078 241.268C78.7459 246.133 79.342 249.033 80.8193 254.052C87.7214 250.503 91.3988 248.082 96.6426 242.435L97.4854 241.527L97.5088 242.765C97.8047 258.624 95.6898 270.484 90.5225 281.633C85.3657 292.76 77.1836 303.145 65.4082 316.079L56.1934 330.926L47.8047 326.732L35.3926 321.56L58.0322 250.623L58.0449 250.584L58.0635 250.548C61.1061 244.57 62.9037 241.368 66.627 236.953L66.6357 236.942L66.6445 236.932C70.9481 232.359 73.415 230.651 77.8164 228.814L78.5195 228.52L78.5088 229.282ZM256.173 244.166C257.848 258.644 259.81 269.923 264.303 280.691C268.942 291.809 276.292 302.415 288.868 315.427L288.899 315.459L298.686 330.139L306.298 326.556C296.41 309.887 288.107 296.318 282.09 284.788C276.094 273.297 272.334 263.769 271.541 255.145C265.546 253.116 261.672 249.743 256.173 244.166ZM96.5254 244.012C91.5492 249.206 87.7777 251.611 81.0215 255.073C81.3826 263.04 77.874 272.614 72.041 284.207C66.1764 295.862 57.9035 309.673 48.7021 326.062L55.8242 329.624L64.584 315.511L64.6084 315.472L64.6387 315.438C76.4177 302.503 84.5216 292.203 89.6152 281.212C94.5696 270.523 96.6892 259.147 96.5254 244.012ZM276.426 241.866C276.208 245.536 275.863 248.097 275.297 250.05C274.672 252.206 273.779 253.613 272.527 254.953C273.282 263.399 276.97 272.814 282.977 284.326C288.989 295.847 297.288 309.407 307.214 326.142L316.877 322C308.039 297.472 302.654 283.152 276.426 241.866ZM77.5986 242.795C52.2384 280.934 45.8194 296.106 36.6436 320.998L47.79 325.641C57.0284 309.184 65.2875 295.404 71.1475 283.757C77.0459 272.034 80.4498 262.588 80.0117 254.858C78.5665 250.002 77.9006 247.076 77.5986 242.795ZM277.896 242.317C297.572 273.36 305.359 289.057 311.865 305.634L295.142 251.282C292.435 251.306 289.804 250.32 286.829 248.567C284.244 247.043 281.357 244.915 277.896 242.317ZM76.2549 243.011C71.7175 245.926 68.7012 247.601 66.2441 248.707C63.5229 249.93 61.4956 250.452 58.9033 251.183L41.7939 304.792C48.7475 287.747 56.9761 272.061 76.2549 243.011ZM276.509 240.025C280.897 243.323 284.332 245.935 287.337 247.706C290.097 249.332 292.443 250.214 294.77 250.279C293.094 246.114 292.049 243.572 288.121 237.596C284.512 234.107 281.916 232.373 276.509 230.034V240.025ZM77.499 230.036C73.6818 231.701 71.3612 233.379 67.377 237.613C63.9508 241.678 62.1962 244.684 59.4775 249.982C61.6821 249.364 63.4838 248.851 65.833 247.794C68.5305 246.581 71.9575 244.645 77.5059 241.004C77.4587 236.578 77.4474 233.963 77.499 230.036Z" fill="black"/>
<g id="Triceps">
<path d="M80.5088 254.775C78.9335 249.066 78.2295 246.054 78.0088 241.775V229.275C73.1232 231.37 70.916 233.109 67.5088 236.775C66.1551 232.634 66.1238 229.873 68.0088 223.775C69.1407 209.219 70.653 201.771 78.0088 192.275C88.0343 191.464 94.6241 189.317 103.956 183.291C106.012 181.852 108.194 180.362 110.509 178.775L113.009 192.775C115.988 218.894 108.712 227.146 97.0088 242.775C92.1742 248.178 88.2586 250.67 80.5088 254.775Z" fill="#D9D9D9"/>
<path d="M272.009 254.775C265.892 252.576 262.245 249.687 255.509 242.775C239.135 222.681 236.378 211.775 239.509 192.775L242.009 178.775C245.869 181.117 249.459 183.281 252.755 185.432C261.076 190.207 267.881 192.654 277.509 192.275C285.994 209.587 287.558 216.309 285.509 223.775C287.575 231.534 287.628 233.408 287.509 236.275C283.26 232.682 280.732 231.182 276.009 229.275V240.775C275.726 248.92 274.772 251.821 272.009 254.775Z" fill="#D9D9D9"/>
</g>
<path id="Triceps (Stroke)" d="M113.501 192.687L113.504 192.703L113.506 192.718C115.001 205.831 113.928 214.513 110.979 221.894C108.039 229.252 103.244 235.283 97.409 243.075L97.3963 243.092L97.3816 243.108C92.4894 248.575 88.5133 251.101 80.743 255.216L80.1922 255.508L80.0271 254.908C78.4499 249.192 77.7332 246.137 77.5096 241.8L77.5086 241.788V230.041C75.444 230.961 73.8946 231.825 72.4988 232.84C70.9485 233.968 69.5696 235.292 67.8748 237.116L67.2976 237.737L67.034 236.93C66.3461 234.826 65.9839 233.041 66.0447 230.995C66.1049 228.97 66.5777 226.719 67.5144 223.68C68.0797 216.426 68.7438 210.896 70.1951 205.986C71.6541 201.05 73.9025 196.759 77.6131 191.968L77.7488 191.794L77.9685 191.777C87.9043 190.973 94.4132 188.855 103.669 182.881C105.719 181.446 107.895 179.961 110.198 178.382C110.204 178.378 110.21 178.374 110.216 178.37C110.219 178.367 110.223 178.365 110.226 178.363L110.865 177.924L113.501 192.687ZM242.268 178.347C246.121 180.685 249.716 182.852 253.017 185.006C261.28 189.746 267.989 192.149 277.489 191.775L277.814 191.762L277.958 192.055C286.39 209.261 288.074 216.161 286.025 223.774C288.065 231.452 288.13 233.375 288.009 236.295L287.966 237.316L287.186 236.657C283.188 233.276 280.747 231.78 276.509 230.021V240.792C276.367 244.873 276.056 247.686 275.419 249.862C274.774 252.06 273.801 253.591 272.374 255.117L272.149 255.357L271.84 255.246C265.616 253.008 261.905 250.054 255.151 243.124L255.136 243.108L255.121 243.09C246.92 233.026 242.089 225.217 239.717 217.512C237.34 209.796 237.444 202.233 239.015 192.694L239.016 192.687L241.644 177.969L242.268 178.347ZM240.001 192.863C238.443 202.32 238.36 209.709 240.673 217.217C242.988 224.734 247.718 232.42 255.881 242.44C262.473 249.204 266.047 252.044 271.866 254.189C273.078 252.843 273.898 251.493 274.459 249.581C275.059 247.534 275.367 244.829 275.509 240.775V217.321C274.072 209.372 271.341 203.492 267.477 198.617C263.6 193.725 258.562 189.821 252.481 185.851L252.479 185.849C249.386 184.073 246.087 181.979 242.369 179.598L240.001 192.863ZM110.155 179.643C108.041 181.162 106.082 182.514 104.227 183.711C97.6102 188.345 92.3538 192.418 88.2244 197.437C84.1083 202.44 81.0933 208.405 79.0057 216.844L78.5086 229.294V241.75L78.5545 242.527C78.8056 246.207 79.4639 249.069 80.826 254.039C88.1797 250.123 91.9637 247.657 96.617 242.461C102.481 234.63 107.173 228.725 110.051 221.523C112.919 214.343 113.994 205.841 112.512 192.841L110.155 179.643ZM77.9773 217.552C72.7719 219.836 70.3768 221.265 68.4627 223.999C67.5412 226.991 67.0999 229.136 67.0437 231.024C66.9951 232.66 67.2356 234.126 67.7312 235.808C69.1911 234.273 70.4735 233.076 71.9099 232.032C73.4732 230.895 75.2041 229.951 77.5213 228.942L77.9773 217.552ZM276.509 228.939C280.789 230.688 283.301 232.147 287.042 235.232C287.083 232.921 286.828 230.694 285.058 224.033C283.221 222.187 281.808 220.955 280.424 220.02C279.201 219.194 277.989 218.591 276.509 218.003V228.939ZM259.103 189.262C262.61 191.927 265.681 194.741 268.261 197.995C272.198 202.963 274.975 208.932 276.449 216.909C278.168 217.567 279.566 218.234 280.983 219.191C282.302 220.082 283.627 221.215 285.24 222.801C286.884 215.893 285.237 209.222 277.2 192.785C270.259 193.013 264.757 191.772 259.103 189.262ZM96.659 188.035C90.775 190.886 85.3688 192.162 78.2723 192.753C74.7065 197.39 72.5559 201.527 71.1541 206.269C69.8414 210.71 69.1822 215.697 68.6433 222.154C70.663 219.883 73.3449 218.472 78.0828 216.415C80.1992 207.953 83.2585 201.898 87.4519 196.801C90.0732 193.615 93.1311 190.813 96.659 188.035Z" fill="black"/>
<g id="Rear Delts">
<path d="M110.509 178.775C97.8401 187.847 90.728 191.421 78.0088 192.275C75.3416 185.824 74.6474 180.626 78.0088 162.275C84.9436 138.479 92.3279 136.418 105.509 132.775C116.699 135.829 122.574 140.92 132.009 153.275C125.219 164.55 120.864 170.422 110.509 178.775Z" fill="#D9D9D9"/>
<path d="M277.509 192.275C266.35 192.941 258.333 189.448 242.009 178.775C234.501 172.473 230.028 167.855 220.509 153.275C230.798 141.545 237.751 135.857 247.509 132.775C263.586 136.405 268.973 143.763 276.009 161.775C279.677 176.73 278.78 183.161 277.574 191.808L277.509 192.275Z" fill="#D9D9D9"/>
</g>
<path id="Rear Delts (Stroke)" d="M247.619 132.288C255.722 134.117 261.191 136.901 265.515 141.541C269.552 145.872 272.559 151.787 275.819 159.934L276.474 161.593L276.487 161.624L276.495 161.656C278.335 169.159 279.034 174.544 279.119 179.148C279.203 183.75 278.671 187.556 278.069 191.876L278.004 192.344L277.948 192.75L277.538 192.774C266.207 193.45 258.072 189.875 241.735 179.194L241.71 179.177L241.687 179.158C234.135 172.819 229.631 168.161 220.09 153.548L219.882 153.231L220.133 152.945C230.442 141.193 237.469 135.422 247.358 132.298L247.487 132.257L247.619 132.288ZM105.64 132.292C111.288 133.834 115.619 135.898 119.727 139.145C123.824 142.384 127.683 146.785 132.407 152.971L132.613 153.242L132.437 153.533C125.627 164.84 121.237 170.764 110.823 179.165L110.812 179.173L110.8 179.181C104.46 183.721 99.4788 186.91 94.476 189.066C89.4631 191.227 84.4475 192.344 78.0424 192.774L77.684 192.797L77.5463 192.466C76.1947 189.197 75.3368 186.223 75.2485 181.748C75.1606 177.295 75.8352 171.367 77.517 162.185L77.5219 162.16L77.5287 162.135C81.0046 150.209 84.6173 143.636 89.0815 139.597C93.5444 135.559 98.8061 134.109 105.375 132.293L105.508 132.256L105.64 132.292ZM247.532 133.292C238.051 136.317 231.222 141.856 221.136 153.319C230.481 167.599 234.912 172.163 242.305 178.371C258.399 188.891 266.3 192.342 277.07 191.795L277.079 191.739C277.682 187.413 278.201 183.68 278.119 179.167C278.036 174.66 277.352 169.358 275.529 161.92C272.019 152.939 268.944 146.687 264.784 142.223C260.659 137.798 255.431 135.093 247.532 133.292ZM105.506 133.293C98.9619 135.103 93.9812 136.513 89.7524 140.338C85.4984 144.187 81.9523 150.537 78.4955 162.39C76.8195 171.544 76.1628 177.384 76.2485 181.727C76.3307 185.899 77.0991 188.699 78.3344 191.749C84.4757 191.307 89.2828 190.215 94.0795 188.148C98.9753 186.038 103.881 182.906 110.201 178.38C120.403 170.15 124.734 164.357 131.403 153.307C126.788 147.282 123.044 143.041 119.107 139.929C115.152 136.804 110.984 134.802 105.506 133.293Z" fill="black"/>
<path id="Traps" d="M105.509 132.775C114.128 131.572 117.78 130.621 121.509 128.275C135.569 119.605 142.707 114.223 153.509 103.275C154.92 99.3793 155.75 96.8477 158.509 84.7749L163.009 67.7749C164.129 62.4438 165.025 60.897 167.009 60.2749H176.009H185.009C187.005 61.0153 187.731 63.1532 189.009 67.7749L193.509 84.7749C195.808 95.4132 196.998 99.152 199.009 103.275C209.234 113.153 216.498 118.627 232.009 128.275C236.141 130.786 239.809 131.663 247.509 132.775C236.658 136.174 230.849 142.201 220.509 153.275C208.37 164.443 207.571 176.308 207.009 198.275C197.299 230.997 190.355 244.078 176.509 262.275C161.743 244.09 154.784 230.746 146.009 198.275C143.938 175.967 142.113 164.386 132.009 153.275C121.627 139.744 115.827 135.628 105.509 132.775Z" fill="#D9D9D9"/>
<path id="Traps (Stroke)" d="M185.099 59.7749L185.183 59.8062C186.339 60.235 187.1 61.0719 187.727 62.3491C188.188 63.2901 188.592 64.503 189.033 66.021L189.49 67.6421L189.492 67.647L193.992 84.647L193.995 84.6577L193.997 84.6694C196.279 95.2303 197.459 98.9411 199.419 102.976C209.578 112.784 216.814 118.235 232.268 127.847C236.308 130.302 239.891 131.17 247.58 132.28L247.658 133.252C236.951 136.607 231.223 142.533 220.874 153.616L220.861 153.63L220.848 153.643C208.883 164.65 208.072 176.299 207.509 198.288L207.507 198.354L207.488 198.417C197.765 231.186 190.796 244.323 176.906 262.578L176.521 263.083L176.121 262.59C161.302 244.34 154.316 230.929 145.526 198.406L145.515 198.364L145.511 198.321C143.439 176.001 141.617 164.583 131.639 153.611L131.625 153.596L131.612 153.58C126.43 146.825 122.416 142.455 118.432 139.418C114.459 136.391 110.492 134.671 105.376 133.256L105.439 132.28C114.052 131.078 117.61 130.137 121.242 127.852L121.246 127.849C135.246 119.216 142.35 113.862 153.075 103C154.454 99.1907 155.289 96.6198 158.021 84.6636L158.023 84.6548L158.025 84.647L162.525 67.647C163.084 64.9949 163.597 63.2183 164.245 62.021C164.918 60.7779 165.741 60.1481 166.859 59.7974L166.933 59.7749H185.099ZM167.095 60.7749C166.263 61.0486 165.662 61.5037 165.125 62.4966C164.551 63.5572 164.058 65.2126 163.498 67.8774L163.492 67.9028L158.992 84.9028C156.235 96.9695 155.4 99.5232 153.979 103.445L153.941 103.548L153.864 103.626C143.029 114.608 135.858 120.015 121.771 128.701L121.771 128.7C118.296 130.885 114.888 131.876 107.83 132.942C112.026 134.272 115.529 135.949 119.038 138.624C123.126 141.739 127.2 146.188 132.395 152.957C142.604 164.193 144.435 175.931 146.502 198.186C155.079 229.911 161.907 243.295 176.005 260.852L175.51 60.7749H167.095ZM177.005 260.788C190.208 243.263 197.035 230.111 206.51 198.194C207.071 176.296 207.868 164.228 220.163 152.913C229.849 142.541 235.633 136.51 245.391 132.962C239.027 131.976 235.581 131.031 231.749 128.703L231.745 128.7C216.213 119.039 208.918 113.543 198.661 103.634L198.598 103.574L198.56 103.494C196.523 99.3171 195.323 95.5317 193.025 84.9028L188.525 67.9028V67.9019C187.884 65.5835 187.395 63.9434 186.829 62.7896C186.291 61.6931 185.712 61.0946 184.913 60.7749H176.51L177.005 260.788Z" fill="black"/>
<path id="Lats" d="M207.009 198.275C207.729 174.249 209.57 162.816 220.509 153.275C229.042 166.896 232.432 170.252 242.009 178.775L240.009 190.275C237.846 201.903 237.804 207.728 240.009 216.775C238.936 239.313 237.093 250.393 231.509 267.275C226.785 274.812 220.097 279.954 207.509 289.275C190.699 298.296 183.871 306.352 176.509 326.275C167.895 305.962 160.909 298.005 145.009 289.275C133.357 280.259 127.543 275.327 121.509 267.275C116.804 254.746 114.469 245.53 112.009 216.775C113.947 208.972 114.07 203.076 112.509 190.275L110.509 178.775C118.87 171.989 123.563 167.684 132.009 153.275C141.388 163.587 144.075 174.271 146.009 198.775C152.789 223.643 157.485 234.442 167.009 249.678C172.713 257.634 175.191 260.934 176.509 261.775C177.748 260.899 180.939 256.627 185.509 249.678C193.63 237.498 199.431 224.02 207.009 198.275Z" fill="#D9D9D9"/>
<path id="Lats (Stroke)" d="M132.379 152.939C141.872 163.377 144.567 174.205 146.502 198.684C153.264 223.481 157.943 234.229 167.424 249.398C170.273 253.371 172.31 256.174 173.799 258.087C174.544 259.045 175.145 259.774 175.639 260.311C175.98 260.683 176.262 260.951 176.492 261.14C176.73 260.924 177.04 260.603 177.417 260.166C177.951 259.546 178.601 258.723 179.359 257.706C180.875 255.67 182.809 252.873 185.091 249.403L185.093 249.401L185.844 248.26C193.53 236.44 199.184 223.076 206.511 198.195C207.232 174.227 209.069 162.588 220.18 152.898L220.621 152.513L220.933 153.009C225.194 159.812 228.16 164.031 231.246 167.61C234.333 171.189 237.552 174.14 242.341 178.402L242.549 178.586L240.501 190.361L240.5 190.367C238.347 201.945 238.31 207.697 240.494 216.657L240.512 216.727L240.508 216.798C239.433 239.37 237.585 250.497 231.983 267.432L231.965 267.49L231.933 267.541C227.15 275.172 220.376 280.369 207.807 289.676L207.777 289.699L207.745 289.715C199.37 294.21 193.521 298.444 188.849 304.008C184.174 309.576 180.65 316.509 176.978 326.448L176.541 327.631L176.049 326.47C171.75 316.333 167.873 309.319 163.111 303.756C158.354 298.199 152.688 294.061 144.769 289.713L144.733 289.694L144.703 289.67C133.048 280.651 127.186 275.685 121.108 267.575L121.065 267.518L121.041 267.451C116.314 254.864 113.973 245.598 111.511 216.818L111.504 216.735L111.523 216.655C113.441 208.938 113.57 203.11 112.014 190.344L110.017 178.861L109.966 178.572L110.193 178.386C114.37 174.996 117.607 172.245 120.852 168.553C124.097 164.86 127.363 160.211 131.577 153.022L131.921 152.435L132.379 152.939ZM166.989 250.506C156.663 263.509 152.294 272.464 145.637 289.052C153.417 293.357 159.087 297.517 163.871 303.106C168.368 308.359 172.062 314.852 176.009 323.856V262.034C175.682 261.787 175.317 261.439 174.902 260.987C174.382 260.42 173.761 259.668 173.009 258.702C171.573 256.856 169.641 254.201 166.989 250.506ZM185.533 250.547C183.415 253.753 181.605 256.364 180.161 258.302C179.395 259.33 178.729 260.174 178.174 260.819C177.728 261.336 177.335 261.744 177.009 262.017V323.548C180.366 314.894 183.719 308.563 188.083 303.366C192.794 297.755 198.654 293.496 206.884 289.045C200.922 273.548 196.277 264.936 185.533 250.547ZM239.176 192.075C235.593 196.38 232.488 199.565 229.702 201.795C226.605 204.275 223.874 205.599 221.294 205.952C216.314 206.632 212.129 203.661 207.26 199.185C199.847 224.246 194.097 237.618 186.119 249.66C197.023 264.232 201.741 272.924 207.738 288.482C219.976 279.414 226.456 274.368 231.053 267.057C236.598 250.28 238.435 239.252 239.506 216.821C237.42 208.234 237.353 202.495 239.176 192.075ZM113.186 191.759C114.549 203.494 114.373 209.291 112.514 216.813C114.965 245.426 117.289 254.607 121.951 267.031C127.837 274.872 133.521 279.738 144.793 288.474C151.465 271.866 155.894 262.825 166.398 249.642C157.061 234.662 152.365 223.861 145.727 199.636C140.949 203.423 136.846 205.969 131.848 205.208C126.904 204.454 121.224 200.484 113.186 191.759ZM220.4 154.039C210.063 163.314 208.231 174.508 207.516 198.063C212.602 202.786 216.555 205.589 221.158 204.96C223.495 204.641 226.06 203.43 229.077 201.015C232.075 198.616 235.49 195.05 239.539 190.059L241.469 178.962C236.794 174.8 233.579 171.845 230.489 168.263C227.431 164.717 224.506 160.568 220.4 154.039ZM132.092 154.116C128.025 161.004 124.815 165.558 121.603 169.213C118.359 172.904 115.127 175.665 111.051 178.978L112.976 190.045C121.524 199.502 127.246 203.495 131.999 204.219C136.658 204.929 140.529 202.515 145.488 198.548C143.589 174.648 140.952 164.105 132.092 154.116Z" fill="black"/>
<g id="Obliques">
<path d="M145.009 289.275C131.723 278.806 126.302 273.95 121.509 267.275C115.058 287.283 117.252 297.057 118.009 315.275C131.103 305.954 137.207 300.324 145.009 289.275Z" fill="#D9D9D9"/>
<path d="M231.509 267.275C227.474 273.849 221.909 278.784 207.509 289.275C217.611 301.603 223.493 307.445 234.509 315.275C236.459 296.567 237.309 286.075 231.509 267.275Z" fill="#D9D9D9"/>
</g>
<path id="Obliques (Stroke)" d="M121.915 266.983C126.662 273.594 132.031 278.413 145.318 288.882L145.691 289.175L145.418 289.563C137.574 300.671 131.424 306.339 118.298 315.682L117.547 316.217L117.509 315.295C116.754 297.119 114.548 287.235 121.033 267.122L121.337 266.178L121.915 266.983ZM231.987 267.127C237.817 286.025 236.959 296.599 235.006 315.327L234.918 316.178L234.219 315.682C223.158 307.82 217.244 301.944 207.122 289.592L206.787 289.182L207.214 288.871C221.619 278.376 227.105 273.493 231.083 267.013L231.661 266.072L231.987 267.127ZM231.345 268.465C227.333 274.62 221.642 279.578 208.232 289.365C217.896 301.128 223.695 306.902 234.099 314.367C235.947 296.557 236.681 286.235 231.345 268.465ZM121.689 268.369C115.744 287.307 117.689 296.949 118.466 314.33C130.864 305.455 136.844 299.898 144.326 289.372C131.839 279.522 126.347 274.644 121.689 268.369Z" fill="black"/>
<path id="Glutes" d="M118.009 315.275C129.774 307.142 135.833 301.693 145.009 289.275C161.961 298.356 168.174 307.248 176.509 326.275C184.484 305.586 191.351 297.606 207.509 289.275C217.84 301.992 223.752 307.712 234.509 315.275C238.581 321.007 240.275 324.796 240.009 334.775C230.32 338.048 224.27 342.196 229.009 364.775C230.633 366.909 232.942 374.576 229.009 377.275C225.076 379.974 220.801 380.929 210.009 381.775C193.686 382.246 187.412 379.074 181.513 371.775C177.532 369.675 175.301 369.681 171.321 371.775C163.946 379.973 155.766 381.696 141.509 381.775C129.586 381.798 124.138 379.08 122.009 377.275C119.54 374.7 120.361 370.598 123.009 364.775C128.024 343.131 123.196 339.499 113.009 334.775C113.318 326.623 113.454 321.334 118.009 315.275Z" fill="#D9D9D9"/>
<path id="Glutes (Stroke)" d="M145.245 288.834C153.762 293.397 159.611 297.928 164.377 303.728C168.951 309.294 172.507 316.006 176.48 324.974C180.313 315.206 183.946 308.296 188.558 302.819C193.349 297.128 199.167 293.013 207.279 288.831L207.641 288.644L207.896 288.959C218.206 301.649 224.085 307.335 234.796 314.866L234.866 314.916L234.916 314.985C236.962 317.865 238.44 320.297 239.363 323.285C240.285 326.269 240.643 329.772 240.509 334.789L240.499 335.137L240.169 335.249C235.336 336.881 231.58 338.684 229.546 342.758C227.501 346.854 227.135 353.363 229.477 364.571C230.339 365.768 231.302 368.242 231.59 370.756C231.883 373.322 231.499 376.172 229.292 377.687C225.237 380.47 220.837 381.427 210.048 382.273L210.035 382.274L210.023 382.275C201.836 382.511 196.11 381.837 191.675 380.157C187.256 378.483 184.159 375.825 181.193 372.173C179.275 371.17 177.83 370.702 176.417 370.703C175 370.703 173.551 371.174 171.625 372.18C167.9 376.3 163.955 378.813 159.144 380.297C154.322 381.785 148.651 382.236 141.512 382.275H141.51C129.522 382.298 123.94 379.567 121.686 377.657L121.666 377.639L121.647 377.621C120.282 376.196 119.854 374.364 120.093 372.189C120.328 370.044 121.215 367.52 122.531 364.618C125.027 353.831 125.031 347.667 123.252 343.631C121.483 339.619 117.903 337.595 112.799 335.228L112.496 335.088L112.509 334.756C112.817 326.619 112.948 321.174 117.609 314.974L117.658 314.91L117.725 314.864C129.45 306.759 135.467 301.346 144.606 288.978L144.863 288.63L145.245 288.834ZM207.38 289.907C199.524 293.99 193.929 297.991 189.323 303.462C184.655 309.007 180.976 316.091 177.009 326.37V364.621C178.75 367.223 180.314 369.496 181.901 371.46C184.814 375.064 187.79 377.615 192.029 379.221C196.286 380.834 201.858 381.51 209.992 381.275C220.771 380.429 224.917 379.477 228.726 376.863C230.451 375.678 230.879 373.345 230.596 370.87C230.314 368.412 229.355 366.055 228.611 365.078L228.543 364.988L228.52 364.877C226.146 353.569 226.44 346.741 228.651 342.312C230.828 337.952 234.805 336.032 239.516 334.416C239.623 329.641 239.264 326.351 238.408 323.58C237.539 320.767 236.148 318.453 234.148 315.632C223.481 308.125 217.551 302.401 207.38 289.907ZM145.15 289.921C136.1 302.117 130.011 307.58 118.363 315.636C114.019 321.448 113.822 326.516 113.521 334.463C118.457 336.766 122.268 338.921 124.167 343.228C126.092 347.594 126.006 354.058 123.496 364.888L123.484 364.936L123.464 364.982C122.146 367.881 121.306 370.304 121.087 372.297C120.871 374.262 121.263 375.762 122.353 376.91C124.373 378.61 129.689 381.296 141.506 381.274C148.624 381.235 154.173 380.785 158.849 379.342C163.506 377.905 167.319 375.476 170.949 371.441C172.652 369.548 174.315 367.299 176.009 364.627V326.379C171.863 316.925 168.257 310.025 163.604 304.363C159.012 298.775 153.379 294.37 145.15 289.921ZM176.519 365.684C175.401 367.414 174.289 368.971 173.164 370.372C174.305 369.932 175.354 369.703 176.416 369.703C177.533 369.702 178.635 369.955 179.846 370.44C178.763 368.99 177.674 367.404 176.519 365.684Z" fill="black"/>
<g id="Hamstrings">
<path d="M106.509 462.775C102.521 426.474 103.685 407.178 123.509 378.275C128.063 380.615 132.388 381.669 140.009 381.718C143.185 381.738 146.933 381.584 151.509 381.275C158.961 415.9 160.785 430.808 159.009 447.775C155.772 462.381 153.38 471.303 140.009 498.775C139.829 495.218 139.555 492.015 139.099 488.775C137.586 496.475 134.237 500.339 128.509 507.275C122.896 499.095 121.917 495.529 121.459 489.775C120.348 491.892 119.234 493.802 118.009 495.775C112.203 486.371 109.746 478.985 106.509 462.775Z" fill="#D9D9D9"/>
<path d="M194.009 447.775C192.284 432.137 193.326 419.169 202.009 381.775C206.12 381.79 209.546 381.734 212.509 381.558C219.406 381.149 223.799 380.092 228.509 377.775C247.875 403.225 252.325 421.583 247.009 462.775C243.75 484.452 241.696 488.828 238.009 495.775C235.563 492.685 233.495 489.674 231.509 486.266C229.206 499.054 226.316 502.778 222.009 507.775C217.849 501.906 215.751 498.179 214.291 487.275C213.828 490.669 213.418 494.428 213.009 498.775C204.196 485.286 199.873 474.87 194.009 447.775Z" fill="#D9D9D9"/>
</g>
<path id="Hamstrings (Stroke)" d="M228.906 377.472C238.615 390.231 244.613 401.248 247.503 414.263C250.391 427.267 250.166 442.223 247.505 462.839L247.503 462.849C245.873 473.693 244.54 480.234 243.149 484.94C241.753 489.66 240.3 492.525 238.45 496.009L238.092 496.685L237.616 496.085C235.433 493.328 233.549 490.631 231.756 487.662C230.66 493.35 229.426 497.175 227.959 500.163C226.38 503.377 224.545 505.598 222.388 508.101L221.971 508.585L221.601 508.064C219.516 505.122 217.923 502.685 216.674 499.601C215.716 497.236 214.966 494.504 214.337 490.888C214.05 493.316 213.778 495.938 213.507 498.822L213.372 500.246L212.59 499.048C203.733 485.491 199.392 475.011 193.52 447.88L193.515 447.855L193.512 447.83C191.778 432.104 192.836 419.069 201.522 381.662L201.612 381.273L202.011 381.275C206.118 381.29 209.532 381.234 212.48 381.059C219.328 380.653 223.653 379.607 228.288 377.327L228.657 377.145L228.906 377.472ZM123.737 377.831C128.206 380.126 132.449 381.17 140.012 381.218C143.17 381.238 146.905 381.084 151.475 380.776L151.906 380.747L151.997 381.169C159.45 415.799 161.291 430.775 159.506 447.827L159.503 447.855L159.497 447.883C156.251 462.532 153.845 471.491 140.458 498.994L139.51 498.8C139.381 496.252 139.202 493.887 138.943 491.563C137.181 497.715 133.92 501.508 128.895 507.593L128.472 508.105L128.097 507.558C125.281 503.455 123.608 500.481 122.584 497.793C121.758 495.625 121.363 493.658 121.118 491.462C120.255 493.033 119.377 494.518 118.434 496.039L118.008 496.725L117.583 496.038C111.733 486.562 109.261 479.11 106.019 462.873L106.014 462.851L106.012 462.83C104.017 444.673 103.304 430.713 105.587 417.665C107.873 404.602 113.155 392.486 123.097 377.992L123.346 377.629L123.737 377.831ZM220.535 464.129C217.605 472.027 216.014 478.39 214.796 487.276C215.521 492.668 216.401 496.263 217.601 499.225C218.732 502.018 220.158 504.27 222.047 506.959C224.008 504.667 225.643 502.611 227.062 499.721C228.568 496.653 229.845 492.621 230.983 486.354C227.718 480.721 224.668 474.005 220.535 464.129ZM132.477 464.329C127.74 477.387 124.861 484.341 121.969 489.875C122.197 492.663 122.555 494.908 123.519 497.437C124.457 499.899 125.98 502.65 128.548 506.44C134 499.843 137.136 496.077 138.591 488.761C137.632 482 135.868 475.057 132.477 464.329ZM212.057 382.083C209.289 382.232 206.128 382.284 202.406 382.274C193.813 419.342 192.797 432.211 194.503 447.7C200.18 473.924 204.402 484.449 212.65 497.3C213.014 493.545 213.383 490.233 213.796 487.208C215.079 477.815 216.776 471.201 219.999 462.708L212.057 382.083ZM151.109 381.801C146.938 382.077 143.456 382.221 140.465 382.217L133.016 462.719C136.7 474.261 138.587 481.564 139.594 488.706C139.969 491.367 140.219 494.004 140.397 496.825C153.008 470.748 155.36 461.93 158.515 447.692C160.27 430.892 158.48 416.1 151.109 381.801ZM228.355 378.402C223.83 380.572 219.53 381.6 213.056 382.022L220.998 462.647C225.406 473.223 228.556 480.205 231.941 486.014C233.784 489.178 235.701 491.994 237.927 494.856C239.592 491.696 240.913 488.973 242.19 484.657C243.561 480.02 244.885 473.537 246.513 462.71C249.168 442.135 249.377 427.315 246.526 414.48C243.703 401.764 237.867 390.956 228.355 378.402ZM123.677 378.917C113.953 393.166 108.808 405.058 106.571 417.837C104.315 430.733 105.012 444.566 107.003 462.7C110.151 478.463 112.554 485.813 118.009 494.815C119.063 493.092 120.042 491.398 121.016 489.542C123.993 483.869 126.955 476.685 132.017 462.664L139.46 382.209C132.329 382.117 128.064 381.105 123.677 378.917Z" fill="black"/>
<path id="Adductors" d="M151.509 381.275C159.013 380.052 163.096 380.03 172.009 371.275C175.524 369.727 177.494 369.846 181.009 371.275C187.071 378.157 191.258 380.991 202.009 381.775C192.793 421.916 192.48 433.128 194.009 448.275C185.216 429.141 181.145 415.884 181.009 371.275C177.494 369.846 175.524 369.727 172.009 371.275C170.319 418.242 166.768 431.586 159.009 448.275C160.582 430.458 159.237 416.338 151.509 381.275Z" fill="#D9D9D9"/>
<path id="Adductors (Stroke)" d="M176.515 369.658C177.796 369.672 179.058 369.991 180.545 370.555L181.197 370.812L181.307 370.856L181.384 370.945C184.403 374.372 186.917 376.746 189.984 378.369C193.048 379.991 196.707 380.887 202.045 381.277L202.627 381.319L202.496 381.887C193.284 422.008 192.986 433.158 194.506 448.225L193.555 448.484C189.15 438.899 185.916 430.759 183.771 419.421C181.64 408.152 180.589 393.739 180.511 371.616C178.926 370.992 177.704 370.671 176.503 370.658C175.301 370.645 174.078 370.941 172.496 371.611C170.801 418.345 167.245 431.745 159.462 448.486L158.511 448.231C160.078 430.49 158.745 416.429 151.021 381.383L150.907 380.866L151.429 380.781C155.215 380.165 158.036 379.862 161.042 378.637C164.033 377.418 167.228 375.27 171.658 370.918L171.724 370.854L171.808 370.818C173.6 370.028 175.045 369.642 176.515 369.658ZM171.461 372.497C167.428 376.333 164.36 378.364 161.419 379.563C158.427 380.782 155.588 381.132 152.11 381.686C159.331 414.522 160.915 428.936 159.732 445.476C166.573 430.126 169.845 416.005 171.461 372.497ZM181.517 372.591C181.622 394.139 182.671 408.221 184.754 419.236C186.673 429.384 189.473 436.942 193.234 445.354C192.063 431.555 192.901 419.299 201.393 382.227C196.286 381.81 192.633 380.903 189.517 379.253C186.603 377.711 184.194 375.538 181.517 372.591Z" fill="black"/>
<g id="Abductors">
<path d="M123.009 364.775C128.057 342.95 123.055 339.557 113.009 334.775C97.6086 387.83 98.0355 415.552 106.509 463.275C100.689 425.938 106.629 402.233 123.509 378.275C120.421 376.166 119.098 374.536 123.009 364.775Z" fill="#D9D9D9"/>
<path d="M240.009 334.775C226.697 339.16 225.473 346.692 229.009 364.775C231.985 371.481 232.055 374.42 228.509 377.775C248.065 403.052 251.973 421.858 247.009 463.275C254.108 406.947 255.493 376.988 240.009 334.775Z" fill="#D9D9D9"/>
</g>
<path id="Abductors (Stroke)" d="M113.224 334.324C118.229 336.706 122.165 338.816 124.125 343.179C126.074 347.517 126.022 353.967 123.496 364.887L123.487 364.925L123.473 364.96C121.516 369.845 120.92 372.584 121.131 374.334C121.331 375.995 122.265 376.82 123.791 377.862L124.21 378.148L123.917 378.563C115.508 390.498 109.836 402.352 106.985 415.861C104.134 429.373 104.1 444.57 107.003 463.198L106.017 463.363C101.778 439.488 99.5456 420.585 100.307 401.004C101.068 381.423 104.822 361.186 112.528 334.635L112.693 334.071L113.224 334.324ZM240.479 334.603C256.005 376.933 254.606 406.992 247.505 463.337L246.512 463.215C248.992 442.524 249.248 427.534 246.465 414.578C243.684 401.635 237.862 390.681 228.113 378.081L227.836 377.723L228.165 377.412C229.877 375.792 230.656 374.336 230.705 372.518C230.756 370.648 230.039 368.328 228.552 364.978L228.528 364.926L228.518 364.871C226.752 355.839 226.143 349.314 227.716 344.484C229.313 339.581 233.118 336.519 239.853 334.3L240.312 334.149L240.479 334.603ZM113.325 335.482C105.743 361.706 102.057 381.709 101.306 401.043C100.753 415.256 101.786 429.119 104.029 444.842C103.469 434.098 104.136 424.527 106.008 415.655C108.859 402.143 114.5 390.282 122.813 378.397C121.445 377.422 120.37 376.385 120.138 374.455C119.894 372.428 120.588 369.481 122.528 364.629C125.043 353.746 125.013 347.596 123.213 343.589C121.486 339.746 118.087 337.77 113.325 335.482ZM239.705 335.405C233.426 337.554 230.091 340.419 228.666 344.793C227.187 349.337 227.727 355.603 229.488 364.625C230.963 367.954 231.761 370.441 231.704 372.545C231.649 374.58 230.799 376.194 229.175 377.822C238.82 390.352 244.647 401.356 247.443 414.368C248.967 421.462 249.585 429.141 249.441 437.975C253.597 397.175 252.51 370.516 239.705 335.405Z" fill="black"/>
<g id="Calves">
<path d="M121.509 490.275C121.944 496.633 123.728 500.386 128.509 507.275C133.798 500.883 136.916 497.382 139.009 489.275L140.009 498.275C140.104 511.291 141.311 517.251 144.009 522.54C145.719 527.912 146.002 532.518 145.642 542.775C143.282 577.232 138.666 588.032 130.073 596.775C128.318 598.462 127.585 598.528 126.818 596.775C125.508 593.794 125.093 588.823 125.509 576.275C122.136 584.188 119.646 588.279 115.509 591.633C113.38 593.115 112.195 593.475 110.131 591.275C101.271 581.34 97.7058 569.256 98.2032 537.775C98.6145 529.05 99.9426 524.432 104.009 516.619C110.896 508.148 113.818 503.133 118.009 495.775L121.509 490.275Z" fill="#D9D9D9"/>
<path d="M222.009 507.775C227.147 501.79 229.418 497.405 231.509 486.275C234.044 490.481 235.465 492.742 238.009 495.775C243.38 508.994 245.189 512.731 247.509 516.619C253.245 524.808 254.567 529.452 255.509 537.775C255.855 575.755 251.551 584.22 242.706 592.275C241.518 593.069 240.827 593.296 239.509 592.96C233.671 589.59 231.187 585.526 228.509 576.275C227.72 588.87 226.74 593.699 224.95 596.775C223.877 598.583 223.121 598.625 221.509 597.062C212.567 588.685 209.38 574.98 206.509 542.775C206.4 533.836 206.189 528.601 208.009 522.54C211.467 515.703 211.973 509.543 213.009 498.775L214.509 486.275C214.724 494.854 216.488 499.552 222.009 507.775Z" fill="#D9D9D9"/>
</g>
<path id="Calves (Stroke)" d="M231.937 486.017C234.311 489.956 235.695 492.166 237.932 494.899L238.392 495.454L238.442 495.514L238.472 495.586C243.833 508.782 245.633 512.498 247.925 516.342C250.804 520.453 252.593 523.699 253.777 526.977C254.962 530.256 255.533 533.543 256.005 537.718L256.008 537.745V537.77C256.182 556.766 255.194 568.436 253.037 576.377C250.868 584.358 247.52 588.568 243.043 592.645L243.015 592.669L242.984 592.691C242.379 593.096 241.848 593.392 241.271 593.528C240.682 593.666 240.093 593.625 239.385 593.445L239.319 593.428L239.258 593.393C236.284 591.676 234.14 589.766 232.405 587.095C231.02 584.964 229.905 582.364 228.825 579.023C228.067 589.615 227.101 594.072 225.382 597.026L225.38 597.03C225.103 597.497 224.826 597.885 224.53 598.166C224.228 598.452 223.88 598.649 223.47 598.681C223.068 598.713 222.684 598.578 222.319 598.36C221.957 598.144 221.578 597.824 221.167 597.426C216.607 593.154 213.537 587.54 211.249 578.983C208.963 570.438 207.446 558.922 206.01 542.819L206.009 542.8L206.008 542.781C205.9 533.87 205.684 528.547 207.53 522.397L207.543 522.354L207.563 522.315C210.971 515.577 211.473 509.519 212.511 498.727L212.512 498.715L214.012 486.215L215.008 486.262C215.115 490.517 215.606 493.781 216.741 496.992C217.826 500.062 219.513 503.106 222.056 506.941C224.385 504.18 226.085 501.743 227.447 498.748C228.894 495.565 229.975 491.73 231.017 486.182L231.259 484.893L231.937 486.017ZM122.007 490.241C122.222 493.374 122.767 495.847 123.839 498.381C124.859 500.79 126.364 503.271 128.546 506.445C133.577 500.374 136.519 496.922 138.525 489.15L139.505 489.219L140.508 498.246V498.271C140.604 511.263 141.81 517.129 144.454 522.313L144.473 522.349L144.485 522.388C146.223 527.847 146.503 532.525 146.142 542.792L146.141 542.8V542.809C143.78 577.286 139.156 588.246 130.429 597.125L130.42 597.135C129.973 597.564 129.573 597.91 129.208 598.151C128.848 598.388 128.472 598.559 128.084 598.565C127.666 598.572 127.32 598.388 127.042 598.096C126.778 597.819 126.56 597.431 126.36 596.975C125.671 595.408 125.234 593.354 125.017 590.146C124.831 587.394 124.806 583.767 124.933 578.833C122.039 585.268 119.617 588.946 115.824 592.021L115.809 592.033L115.795 592.043C114.74 592.778 113.792 593.334 112.796 593.334C111.763 593.335 110.826 592.747 109.766 591.617L109.758 591.608C100.765 581.524 97.206 569.271 97.7037 537.767V537.751C97.9103 533.368 98.3485 529.992 99.2535 526.722C100.158 523.453 101.524 520.31 103.565 516.388L103.588 516.342L103.621 516.303C110.482 507.863 113.39 502.875 117.574 495.528L117.581 495.517L117.587 495.506L121.904 488.723L122.007 490.241ZM213.505 498.834C212.475 509.548 211.963 515.803 208.477 522.719C206.697 528.671 206.899 533.814 207.007 542.75C208.442 558.841 209.955 570.274 212.215 578.724C214.403 586.901 217.282 592.25 221.444 596.308L221.85 596.697L221.857 596.703C222.25 597.083 222.566 597.343 222.832 597.501C223.095 597.659 223.27 597.694 223.392 597.684C223.508 597.675 223.651 597.62 223.842 597.439C224.04 597.252 224.261 596.957 224.52 596.52C226.237 593.568 227.216 588.87 228.005 576.299C224.132 554.18 222.83 538.746 221.515 507.935C218.79 503.866 216.966 500.627 215.798 497.326C215.128 495.431 214.677 493.524 214.392 491.439L213.505 498.834ZM138.79 491.832C136.695 498.351 133.677 501.815 129.006 507.457C128.768 536.076 127.948 550.877 126.007 576.313C125.801 582.572 125.802 586.924 126.015 590.079C126.216 593.04 126.602 594.914 127.162 596.302L127.276 596.574C127.46 596.994 127.622 597.256 127.765 597.407C127.895 597.543 127.986 597.566 128.067 597.565C128.177 597.563 128.362 597.51 128.657 597.316C128.946 597.125 129.295 596.829 129.726 596.415C138.18 587.81 142.785 577.165 145.143 542.741C145.501 532.529 145.215 527.995 143.544 522.728C140.808 517.347 139.605 511.293 139.508 498.297L138.79 491.832ZM231.753 487.643C230.777 492.558 229.736 496.13 228.357 499.162C226.884 502.4 225.036 504.998 222.516 507.948C223.83 538.719 225.131 554.1 228.997 576.166C230.328 580.762 231.602 584.025 233.243 586.55C234.867 589.049 236.868 590.849 239.699 592.492C240.273 592.631 240.673 592.641 241.042 592.554C241.43 592.463 241.83 592.255 242.395 591.879C246.749 587.91 249.968 583.86 252.072 576.116C254.19 568.318 255.181 556.77 255.008 537.798C254.54 533.667 253.979 530.479 252.837 527.317C251.691 524.147 249.952 520.979 247.099 516.906L247.089 516.89L247.08 516.875C244.743 512.958 242.922 509.197 237.574 496.035C235.27 493.281 233.876 491.142 231.753 487.643ZM118.43 496.043C114.248 503.387 111.312 508.423 104.432 516.89C102.419 520.763 101.093 523.825 100.217 526.989C99.3391 530.162 98.9074 533.458 98.7028 537.798C98.2071 569.245 101.779 581.158 110.505 590.942C111.504 592.005 112.189 592.335 112.796 592.334C113.438 592.334 114.143 591.972 115.211 591.23C119.228 587.967 121.673 583.985 125.016 576.152C126.951 550.779 127.769 536.002 128.006 507.426C125.661 504.039 124.023 501.38 122.919 498.771C121.972 496.534 121.422 494.346 121.14 491.783L118.43 496.043Z" fill="black"/>
<g id="Feet">
<path d="M109.509 590.775C105.829 586.216 104.207 583.244 102.009 577.275C106.195 598.296 107.101 609.716 107.509 629.775C107.327 639.734 106.661 644.432 104.509 651.275C97.8131 661.031 91.774 664.454 79.0088 668.775C77.0244 670.775 76.5321 671.961 77.5088 674.275C79.174 675.787 81.8631 676.557 90.0088 677.775L103.009 678.775C108.3 679.542 112.384 680.376 114.509 681.98C119.305 684.813 121.551 685.851 124.009 685.775C127.141 685.761 128.759 685.365 131.509 684.275C133.637 682.237 135.121 681.715 136.509 675.775C137.039 671.31 137.135 667.674 133.009 656.775L132.509 649.775C131.968 637.022 131.761 629.778 132.509 615.775C133.391 606.209 134.312 600.056 138.009 585.275C135.64 590.113 134.122 592.439 131.009 595.775C128.068 599.271 127.05 598.623 126.009 594.275C125.17 588.541 125.185 584.496 125.509 576.775C120.595 586.981 118.917 588.639 116.009 591.275C113.117 593.777 111.723 593.443 109.509 590.775Z" fill="#D9D9D9"/>
<path d="M221.009 596.775C223.389 598.986 224.353 598.677 225.509 595.775C227.244 591.588 227.774 586.548 228.509 576.275C231.259 584.443 232.927 588.814 238.509 592.275C240.663 593.929 242.223 593.262 245.509 589.775C249.085 585.222 250.707 582.343 252.509 576.275C247.559 594.114 245.859 605.738 245.009 629.775C245.449 640.784 246.316 645.207 248.509 651.275C258.525 664.068 264.62 666.187 275.509 669.775C277.699 672.197 277.104 673.327 275.509 675.275C274.445 675.881 273.369 675.937 271.009 675.775C267.918 676.94 266.111 677.608 263.009 678.775C260.272 678.909 257.048 678.998 253.009 678.775C246.786 679.051 244.438 679.782 242.009 681.98C238.029 684.506 235.124 685.143 229.509 685.775C226.156 686.013 224.293 685.735 221.009 684.275C217.663 681.538 217.098 679.575 217.009 675.775C216.993 670.095 217.854 665.636 220.009 656.775L221.009 649.775V615.775C220.479 605.302 219.086 600.064 216.509 590.775C217.873 593.045 218.783 594.345 221.009 596.775Z" fill="#D9D9D9"/>
</g>
<path id="Feet (Stroke)" d="M228.983 576.116C231.651 584.039 233.258 588.228 238.276 591.533L238.773 591.85L238.793 591.863L238.814 591.878C239.319 592.267 239.755 592.492 240.161 592.585C240.558 592.677 240.958 592.651 241.41 592.484C242.354 592.135 243.489 591.187 245.13 589.447C248.66 584.95 250.25 582.126 252.029 576.132L252.99 576.409C248.054 594.2 246.358 605.784 245.509 629.784C245.946 640.692 246.804 645.069 248.951 651.028C253.915 657.358 257.888 661.024 261.946 663.552C265.515 665.775 269.168 667.133 273.678 668.641L275.665 669.3L275.791 669.341L275.88 669.44C277.001 670.68 277.52 671.704 277.426 672.748C277.336 673.752 276.678 674.636 275.896 675.591L275.837 675.664L275.757 675.709C274.567 676.388 273.366 676.432 271.083 676.28C268.057 677.42 266.247 678.091 263.185 679.243L263.111 679.27L263.033 679.274C260.292 679.408 257.057 679.498 253.007 679.275C249.917 679.413 247.831 679.663 246.228 680.136C244.64 680.604 243.51 681.296 242.344 682.351L242.313 682.379L242.276 682.402C238.203 684.987 235.21 685.636 229.565 686.272L229.555 686.273L229.544 686.274C227.848 686.395 226.5 686.387 225.149 686.155C223.797 685.923 222.469 685.471 220.806 684.732L220.744 684.705L220.693 684.662C218.986 683.266 217.943 682.031 217.329 680.624C216.718 679.223 216.554 677.701 216.509 675.787V675.776C216.493 670.035 217.366 665.528 219.518 656.676L220.509 649.739V615.783C219.982 605.377 218.6 600.181 216.027 590.909L216.938 590.517C218.283 592.756 219.171 594.029 221.362 596.421C221.94 596.957 222.406 597.313 222.789 597.518C223.173 597.723 223.424 597.748 223.602 597.706C223.781 597.662 223.994 597.525 224.247 597.174C224.501 596.822 224.76 596.303 225.044 595.59L225.047 595.583L225.202 595.197C226.778 591.171 227.297 586.213 228.01 576.239L228.983 576.116ZM126.008 576.795C125.685 584.495 125.67 588.502 126.498 594.173C126.755 595.246 127.004 596.057 127.269 596.625C127.543 597.212 127.786 597.432 127.965 597.496C128.116 597.549 128.375 597.542 128.849 597.215C129.318 596.891 129.898 596.318 130.626 595.453L130.635 595.443L130.644 595.434C133.716 592.143 135.208 589.86 137.56 585.055L138.494 585.396C134.803 600.155 133.887 606.284 133.007 615.821C132.262 629.784 132.468 637.009 133.007 649.74H133.008L133.502 656.667C135.553 662.093 136.568 665.746 136.999 668.614C137.434 671.506 137.272 673.581 137.005 675.833L137.002 675.862L136.995 675.888C136.294 678.889 135.557 680.577 134.693 681.78C133.847 682.957 132.86 683.673 131.855 684.636L131.784 684.704L131.693 684.74C128.898 685.848 127.219 686.259 124.024 686.274C121.398 686.355 119.028 685.231 114.254 682.411L114.231 682.396L114.207 682.379C113.224 681.637 111.749 681.047 109.82 680.547C107.901 680.05 105.581 679.653 102.941 679.27L89.9708 678.273L89.9523 678.272L89.9347 678.269C85.8619 677.66 83.1254 677.16 81.1935 676.617C79.2534 676.071 78.0839 675.472 77.173 674.645L77.0909 674.571L77.048 674.469C76.5367 673.258 76.3737 672.256 76.6691 671.264C76.9563 670.301 77.6551 669.429 78.6534 668.422L78.7365 668.339L78.8488 668.301C85.222 666.144 89.8727 664.224 93.7589 661.646C97.6186 659.085 100.748 655.858 104.053 651.054C106.168 644.313 106.828 639.665 107.009 629.785L106.926 626.125C106.475 608.288 105.437 597.048 101.519 577.373L102.478 577.102C104.658 583.025 106.255 585.947 109.894 590.456L110.295 590.922C111.198 591.931 111.886 592.395 112.558 592.466C113.318 592.546 114.245 592.14 115.682 590.897C117.122 589.591 118.233 588.548 119.595 586.58C120.969 584.593 122.604 581.656 125.059 576.558L126.008 576.795ZM228.826 578.75C228.176 587.398 227.596 592.037 225.973 595.959C225.679 596.697 225.385 597.306 225.059 597.758C224.732 598.212 224.337 598.558 223.834 598.678C223.329 598.799 222.82 598.669 222.318 598.401C221.819 598.134 221.274 597.704 220.668 597.141L220.653 597.127L220.64 597.113C219.409 595.77 218.576 594.763 217.846 593.751C219.886 601.248 221.038 606.452 221.508 615.75L221.509 615.762V646.145C222.921 640.28 223.4 633.221 223.509 617.771L224.509 617.779C224.378 636.32 223.719 642.914 221.497 649.886L220.504 656.845L220.5 656.87L220.494 656.893C218.342 665.744 217.495 670.153 217.509 675.763L217.531 676.447C217.6 677.987 217.782 679.161 218.246 680.224C218.768 681.419 219.668 682.522 221.274 683.844C222.865 684.549 224.094 684.959 225.318 685.169C226.555 685.382 227.812 685.393 229.465 685.276C235.026 684.649 237.841 684.026 241.707 681.579C242.959 680.453 244.211 679.689 245.945 679.177C247.675 678.667 249.867 678.414 252.986 678.276L253.012 678.274L253.036 678.276C257.014 678.496 260.197 678.41 262.906 678.279C265.969 677.127 267.763 676.464 270.832 675.307L270.935 675.269L271.043 675.276C273.344 675.433 274.289 675.366 275.184 674.881C275.956 673.931 276.374 673.293 276.431 672.658C276.484 672.06 276.22 671.334 275.22 670.206C269.845 668.434 265.579 666.994 261.417 664.401C257.215 661.783 253.145 658.008 248.115 651.583L248.066 651.52L248.038 651.445C245.822 645.314 244.95 640.835 244.509 629.794V629.757C245.226 609.473 246.55 597.999 249.919 584.185C248.865 586.12 247.603 587.919 245.902 590.083L245.888 590.101L245.873 590.118C244.236 591.855 242.952 592.981 241.758 593.422C241.14 593.651 240.541 593.7 239.937 593.56C239.349 593.424 238.789 593.117 238.225 592.686C233.057 589.475 231.158 585.471 228.826 578.75ZM124.917 579.122C123.012 582.964 121.628 585.398 120.418 587.148C118.988 589.215 117.808 590.319 116.345 591.645L116.336 591.653C114.882 592.911 113.666 593.59 112.452 593.461C111.247 593.334 110.23 592.427 109.124 591.094L109.119 591.089C106.53 587.881 104.946 585.441 103.474 582.224C106.838 600.19 107.634 611.346 108.009 629.765V629.784C107.826 639.775 107.156 644.523 104.985 651.425L104.963 651.497L104.921 651.558C101.546 656.475 98.3197 659.821 94.3117 662.48C90.3372 665.117 85.6179 667.06 79.2843 669.208C78.3491 670.161 77.8323 670.862 77.6271 671.55C77.431 672.209 77.5012 672.93 77.9279 673.975C78.6734 674.626 79.6728 675.15 81.464 675.654C83.3269 676.178 86.0034 676.67 90.0675 677.278L103.047 678.277L103.064 678.278L103.08 678.28C105.729 678.664 108.096 679.068 110.071 679.58C112.023 680.085 113.642 680.709 114.782 681.56C119.586 684.397 121.706 685.346 123.993 685.275H124.007L124.564 685.268C127.235 685.212 128.757 684.821 131.238 683.842C132.322 682.814 133.123 682.251 133.88 681.197C134.634 680.148 135.33 678.61 136.015 675.689C136.275 673.488 136.424 671.518 136.01 668.762C135.592 665.983 134.599 662.387 132.541 656.952L132.516 656.883L132.51 656.81L132.013 649.854C129.739 641.231 128.992 634.589 129.009 618.274L130.009 618.276C129.995 631.264 130.468 638.055 131.799 644.591C131.429 634.804 131.369 627.755 132.01 615.749V615.739L132.011 615.729C132.811 607.055 133.646 601.173 136.534 589.185C135.044 591.817 133.62 593.705 131.391 596.096C130.648 596.979 130 597.637 129.418 598.039C128.841 598.437 128.23 598.651 127.629 598.437C127.056 598.233 126.664 597.694 126.362 597.046C126.053 596.382 125.785 595.486 125.523 594.391L125.518 594.37L125.514 594.347C124.759 589.186 124.692 585.379 124.917 579.122ZM231.509 617.758C231.893 629.262 232.413 637.264 233.445 643.053C234.477 648.836 236.009 652.354 238.377 654.937L238.009 655.275L237.64 655.613C235.092 652.834 233.509 649.105 232.461 643.229C231.415 637.36 230.893 629.293 230.509 617.792L231.509 617.758ZM121.009 618.265C121.274 631.175 120.926 639.091 119.925 644.48C118.917 649.903 117.245 652.777 114.893 655.595L114.125 654.955C116.374 652.26 117.967 649.542 118.942 644.297C119.922 639.018 120.273 631.19 120.009 618.285L121.009 618.265Z" fill="black"/>
<g id="Knees">
<path d="M201.009 474.275C205.213 485.694 207.788 491.17 213.009 498.275C212.067 510.028 211.275 516.047 208.009 522.775C206.532 527.513 206.625 529.309 206.509 532.775C206.68 527.203 206.573 524.344 207.509 517.775C207.788 516.529 206.55 514.074 204.009 509.275C200.532 504.923 200.562 494.484 201.009 474.275Z" fill="#D9D9D9"/>
<path d="M238.009 495.775C240.953 490.39 242.556 486.736 245.009 474.775C244.215 494.037 244.853 501.544 248.509 507.275C253.232 515.244 253.473 523.579 255.303 535.469C255.371 535.891 255.439 536.326 255.509 536.775C255.438 536.335 255.37 535.899 255.303 535.469C254.05 527.644 252.972 524.073 246.509 515.275C244.058 510.792 241.705 504.968 238.009 495.775Z" fill="#D9D9D9"/>
<path d="M145.009 518.775C144.648 522.467 145.014 525.354 145.509 530.275C145.183 527.086 144.896 525.403 144.009 522.775C141.231 516.37 140.156 511.523 140.009 498.275C144.209 490.261 146.597 485.296 151.009 474.275C152.409 496.373 152.047 504.696 148.509 509.275C146.639 513.077 145.806 515.171 145.009 518.775Z" fill="#D9D9D9"/>
<path d="M109.009 473.775C111.79 485.427 114.01 489.204 118.009 495.775C112.446 505.502 109.399 509.808 104.009 516.775C99.8581 524.496 99.2478 527.73 98.5088 533.275C98.7808 521.274 99.9447 516.154 107.009 500.275C108.519 494.805 108.998 489.282 109.009 473.775Z" fill="#D9D9D9"/>
</g>
<path id="Knees (Stroke)" d="M245.509 474.795C244.738 493.492 245.334 500.961 248.605 506.478L248.931 507.006L248.938 507.02C251.339 511.071 252.596 515.208 253.481 519.807C254.362 524.381 254.889 529.487 255.798 535.393C255.864 535.823 255.932 536.257 256.003 536.696V536.699L255.015 536.854V536.851C254.945 536.403 254.877 535.969 254.81 535.547C254.184 531.643 253.609 528.842 252.398 525.928C251.187 523.012 249.328 519.958 246.105 515.571L246.086 515.544L246.07 515.515C243.602 511 241.237 505.143 237.545 495.961L237.457 495.743L237.57 495.535C240.485 490.202 242.073 486.597 244.519 474.674L245.509 474.795ZM109.495 473.659C110.882 479.468 112.124 483.295 113.511 486.481C114.898 489.668 116.435 492.228 118.436 495.515L118.589 495.767L118.442 496.023C112.876 505.756 109.817 510.082 104.431 517.045C102.375 520.872 101.206 523.571 100.457 525.989C99.7065 528.413 99.3739 530.573 99.0049 533.341L98.0088 533.263C98.1452 527.248 98.5062 522.925 99.7275 518.107C100.945 513.306 103.011 508.032 106.534 500.11C108.017 494.723 108.498 489.254 108.509 473.775L109.495 473.659ZM201.478 474.102C205.674 485.501 208.231 490.928 213.412 497.979L213.522 498.129L213.507 498.315C212.567 510.046 211.773 516.151 208.476 522.958C207.031 527.602 207.124 529.34 207.009 532.792L206.009 532.759C206.179 527.201 206.073 524.308 207.014 517.705L207.017 517.685L207.021 517.666C207.066 517.46 207.059 517.159 206.951 516.714C206.844 516.274 206.649 515.729 206.357 515.056C205.778 513.715 204.85 511.932 203.587 509.546C201.763 507.232 200.907 503.401 200.538 497.754C200.165 492.048 200.285 484.362 200.509 474.264L201.478 474.102ZM151.508 474.244C152.208 485.291 152.469 492.926 152.109 498.377C151.752 503.793 150.776 507.13 148.938 509.534C147.099 513.277 146.285 515.33 145.504 518.85C145.153 522.469 145.511 525.298 146.006 530.225L145.509 530.275L145.012 530.326C144.688 527.166 144.407 525.523 143.541 522.953C140.734 516.475 139.657 511.552 139.509 498.281L139.508 498.155L139.566 498.042C143.759 490.043 146.14 485.094 150.545 474.089L151.508 474.244ZM109.492 477.719C109.402 490.283 108.884 495.363 107.491 500.408L107.48 500.444L107.466 500.478C103.935 508.414 101.893 513.631 100.696 518.352C100.037 520.954 99.6326 523.411 99.3799 526.097C99.4193 525.963 99.46 525.828 99.502 525.693C100.279 523.184 101.485 520.415 103.568 516.539L103.588 516.501L103.613 516.469C108.944 509.579 111.971 505.306 117.429 495.781C115.503 492.614 113.975 490.052 112.594 486.879C111.51 484.39 110.521 481.534 109.492 477.719ZM244.316 480.267C242.482 488.045 240.966 491.386 238.56 495.805C242.202 504.864 244.523 510.594 246.932 515.006C250.16 519.404 252.067 522.527 253.321 525.545C253.363 525.647 253.404 525.749 253.444 525.85C253.155 523.8 252.859 521.86 252.5 519.996C251.628 515.468 250.403 511.457 248.087 507.543C244.713 502.254 243.878 495.52 244.316 480.267ZM201.453 476.898C201.269 485.726 201.199 492.533 201.536 497.689C201.907 503.369 202.768 506.92 204.399 508.962L204.429 509L204.45 509.041C205.718 511.435 206.674 513.268 207.275 514.659C207.576 515.355 207.797 515.958 207.923 516.478C208.044 516.978 208.087 517.437 208.004 517.845L207.841 519.029C207.64 520.548 207.499 521.862 207.396 523.071C207.44 522.926 207.484 522.777 207.531 522.626L207.543 522.59L207.559 522.556C210.763 515.957 211.56 510.052 212.495 498.418C207.697 491.862 205.123 486.639 201.453 476.898ZM150.644 476.518C146.758 486.103 144.412 490.945 140.511 498.392C140.661 511.349 141.71 516.155 144.369 522.344C144.349 521.16 144.387 519.989 144.511 518.726L144.514 518.697L144.521 518.667C145.329 515.012 146.18 512.879 148.061 509.054L148.082 509.009L148.113 508.969C149.792 506.797 150.756 503.691 151.111 498.311C151.442 493.299 151.239 486.379 150.644 476.518Z" fill="black"/>
<g id="Hands">
<path d="M47.0088 360.275C53.003 349.539 54.6488 342.842 56.0088 330.275L36.0088 321.275C24.5733 324.854 19.8476 327.6 17.5088 329.775C12.8015 336.396 9.39173 338.466 2.50879 343.275C1.33978 345.016 1.15266 345.92 2.50879 347.275C6.4256 348.546 8.70838 348.659 13.0088 347.275C16.8681 345.731 18.4724 344.257 21.0088 341.275L17.5088 345.775C9.47478 359.07 1.37321 371.099 0.508789 375.275C0.983172 378.021 2.113 378.755 5.50879 378.775C7.35579 379.439 13.8214 369.256 22.5088 355.275C15.3392 369.136 10.2543 378.815 10.0088 380.275C10.1898 384.071 10.8102 385.317 16.0088 384.775C18.6833 382.391 22.2221 373.828 31.0088 359.275C25.5583 372.138 22.122 381.944 22.0088 384.775C22.3837 387.589 23.3072 388.512 27.0088 388.275C28.8995 388.043 29.5037 386.185 31.5088 382.775C32.5754 385.048 34.2427 385.737 37.0088 384.775C40.7337 380.626 42.8895 376.276 47.0088 360.275Z" fill="#D9D9D9"/>
<path d="M306.009 360.275C299.328 347.931 298.867 341.731 298.509 330.775L318.009 322.275C327.091 325.343 331.8 327.111 336.009 330.775C341.639 338.025 344.687 341.628 349.009 343.275C350.267 344.837 350.701 345.713 349.009 347.275C339.921 347.666 336.581 346.195 333.009 341.275C333.73 344.17 335.839 345.624 336.009 346.275C348.848 363.626 350.612 369.392 353.509 375.275L353.462 375.504C352.847 378.533 352.488 380.3 348.009 379.775C345.325 378.106 340.375 370.289 330.509 354.275C339.033 369.284 343.784 379.989 343.509 380.775C343.35 383.029 342.541 386.229 337.509 384.775C334.837 382.878 330.191 373.849 322.509 359.275C327.367 374.111 330.851 384.311 330.509 386.275C329.547 388.159 328.66 388.818 326.009 388.775C323.949 387.804 322.849 386.651 321.009 383.275C319.313 384.742 318.845 386.07 314.509 384.775C312.009 383.935 309.779 374.637 306.009 360.275Z" fill="#D9D9D9"/>
</g>
<path id="Hands (Stroke)" d="M318.169 321.801C326.953 324.769 331.737 326.545 335.933 330.053L336.337 330.398L336.374 330.43L336.403 330.468C341.881 337.522 344.834 340.999 348.8 342.653L349.187 342.808L349.313 342.856L349.398 342.961C349.715 343.354 349.998 343.726 350.209 344.086C350.421 344.448 350.577 344.826 350.613 345.231C350.689 346.078 350.227 346.83 349.348 347.642L349.213 347.766L349.03 347.775C344.47 347.971 341.277 347.705 338.76 346.733C337.544 346.263 336.5 345.631 335.54 344.828C335.686 344.998 335.824 345.153 335.95 345.301C336.068 345.44 336.181 345.577 336.271 345.706C336.336 345.8 336.406 345.912 336.455 346.037C342.857 354.692 346.509 360.474 348.925 364.833C351.339 369.19 352.527 372.151 353.957 375.054L354.033 375.208L353.952 375.604C353.8 376.353 353.657 377.062 353.456 377.678C353.254 378.298 352.981 378.866 352.545 379.319C351.648 380.25 350.227 380.539 347.95 380.272L347.84 380.258L347.745 380.2C347.001 379.737 346.145 378.881 345.143 377.655C344.133 376.42 342.944 374.771 341.538 372.684C340.606 371.301 339.576 369.719 338.436 367.933C339.308 369.654 340.085 371.23 340.76 372.643C341.872 374.973 342.711 376.865 343.257 378.227C343.529 378.907 343.731 379.464 343.857 379.881C343.92 380.089 343.967 380.274 343.994 380.427C344.007 380.504 344.017 380.583 344.02 380.659C344.021 380.708 344.019 380.777 344.004 380.852C343.921 381.986 343.669 383.485 342.7 384.509C341.671 385.598 339.984 386.011 337.37 385.255L337.288 385.232L337.22 385.182C336.476 384.654 335.643 383.671 334.708 382.325C333.764 380.966 332.684 379.189 331.453 377.026C329.615 373.795 327.427 369.68 324.838 364.769C326.473 369.745 327.881 374.034 328.937 377.455C329.655 379.782 330.214 381.716 330.572 383.196C330.751 383.935 330.882 384.57 330.957 385.087C331.03 385.591 331.058 386.032 331.001 386.361L330.988 386.435L330.954 386.502C330.46 387.47 329.944 388.21 329.146 388.678C328.353 389.143 327.357 389.297 326.001 389.275L325.893 389.273L325.796 389.227C324.72 388.72 323.873 388.154 323.058 387.265C322.344 386.487 321.667 385.474 320.877 384.07C320.839 384.105 320.802 384.141 320.765 384.176C320.584 384.347 320.402 384.522 320.219 384.684C319.85 385.012 319.447 385.317 318.937 385.524C317.905 385.943 316.567 385.911 314.366 385.254L314.357 385.251L314.35 385.249C313.918 385.104 313.539 384.793 313.199 384.393C312.858 383.99 312.53 383.465 312.211 382.839C311.572 381.588 310.932 379.867 310.259 377.748C308.916 373.518 307.415 367.604 305.54 360.458C302.204 354.286 300.405 349.62 299.4 345.114C298.394 340.6 298.188 336.268 298.009 330.792L297.998 330.452L298.309 330.317L317.809 321.817L317.986 321.74L318.169 321.801ZM36.2139 320.819L56.2139 329.819L56.5449 329.968L56.5059 330.329C55.1431 342.922 53.4857 349.686 47.4766 360.461C43.3665 376.416 41.189 380.867 37.3809 385.109L37.2949 385.205L37.1729 385.248C35.7349 385.748 34.4957 385.85 33.4463 385.457C32.6406 385.154 32.0059 384.582 31.499 383.794C31.1915 384.335 30.917 384.83 30.6621 385.285C30.2945 385.941 29.9613 386.52 29.627 387.002C28.9492 387.979 28.2151 388.631 27.0693 388.771L27.0547 388.773L27.041 388.774C25.1813 388.893 23.8588 388.74 22.9619 388.07C22.0462 387.386 21.7024 386.265 21.5127 384.841L21.5078 384.798L21.5088 384.755C21.5396 383.984 21.7911 382.791 22.2148 381.271C22.6421 379.738 23.2568 377.833 24.0361 375.621C25.0349 372.785 26.3077 369.436 27.8105 365.703C25.265 370.144 23.2753 373.853 21.6562 376.828C20.4984 378.955 19.5235 380.715 18.6699 382.094C17.8216 383.465 17.0679 384.501 16.3418 385.148L16.2207 385.255L16.0605 385.272C14.7463 385.409 13.6887 385.437 12.8408 385.331C11.9896 385.223 11.3131 384.975 10.7998 384.53C10.2843 384.082 9.988 383.483 9.80762 382.78C9.62924 382.085 9.55519 381.251 9.50977 380.298L9.50684 380.245L9.51562 380.192C9.55677 379.947 9.68439 379.588 9.85938 379.161C10.0405 378.718 10.2913 378.158 10.6045 377.49C11.2311 376.153 12.1173 374.368 13.2168 372.2C14.1717 370.317 15.2891 368.14 16.542 365.714C14.8108 368.42 13.2385 370.815 11.8535 372.803C10.3842 374.912 9.11513 376.584 8.08887 377.69C7.57791 378.241 7.10733 378.673 6.68652 378.948C6.31811 379.189 5.8688 379.387 5.42871 379.273C3.76282 379.258 2.5173 379.072 1.62891 378.458C0.696192 377.814 0.26062 376.778 0.015625 375.36L0 375.266L0.0195312 375.173C0.251362 374.054 0.950767 372.464 1.95703 370.542C2.97089 368.605 4.32232 366.284 5.89258 363.686C7.46336 361.087 9.25803 358.204 11.1602 355.142C12.9904 352.196 14.9193 349.083 16.8496 345.895C15.8326 346.562 14.6696 347.148 13.1943 347.739L13.1787 347.746L13.1621 347.75C10.9845 348.451 9.28179 348.785 7.61035 348.77C5.93941 348.755 4.33418 348.393 2.35449 347.75L2.24023 347.713L2.15527 347.628C1.43566 346.91 1.0314 346.217 1.0625 345.401C1.09184 344.632 1.51091 343.865 2.09375 342.997L2.14551 342.918L2.22266 342.865C9.11241 338.051 12.4514 336.026 17.1016 329.485L17.1309 329.444L17.168 329.409C19.5928 327.154 24.4098 324.381 35.8594 320.797L36.041 320.741L36.2139 320.819ZM299.021 331.096C299.197 336.414 299.413 340.576 300.376 344.896C301.358 349.301 303.123 353.893 306.448 360.037L306.478 360.089L306.492 360.148C308.38 367.339 309.876 373.236 311.212 377.445C311.88 379.55 312.501 381.209 313.102 382.385C313.402 382.973 313.689 383.424 313.962 383.747C314.232 384.064 314.464 384.227 314.655 384.295C316.788 384.932 317.851 384.885 318.561 384.597C318.921 384.451 319.225 384.23 319.556 383.936C319.723 383.788 319.889 383.628 320.076 383.451C320.192 383.341 320.315 383.227 320.444 383.109C318.434 375.71 316.893 370.975 314.034 362.433L314.983 362.117C317.874 370.753 319.424 375.519 321.474 383.083C322.376 384.734 323.081 385.811 323.795 386.589C324.481 387.337 325.189 387.824 326.124 388.275C327.355 388.286 328.101 388.132 328.64 387.816C329.172 387.504 329.572 386.993 330.022 386.125C330.04 385.951 330.03 385.661 329.968 385.231C329.899 384.757 329.776 384.156 329.601 383.431C329.25 381.982 328.698 380.072 327.981 377.75C326.548 373.105 324.464 366.853 322.033 359.43L322.951 359.042C326.795 366.333 329.872 372.225 332.322 376.532C333.547 378.685 334.611 380.432 335.529 381.754C336.422 383.04 337.152 383.881 337.733 384.317C340.096 384.981 341.309 384.525 341.974 383.822C342.695 383.059 342.931 381.854 343.01 380.74L343.015 380.673L343.018 380.665C343.016 380.649 343.014 380.628 343.009 380.598C342.992 380.501 342.958 380.361 342.9 380.171C342.786 379.794 342.596 379.268 342.328 378.599C341.794 377.264 340.964 375.394 339.857 373.074C337.644 368.435 334.331 362.018 330.074 354.522L330.935 354.012C335.869 362.022 339.568 367.97 342.367 372.125C343.767 374.202 344.936 375.822 345.917 377.022C346.857 378.171 347.6 378.901 348.184 379.29C350.305 379.523 351.278 379.193 351.824 378.625C352.114 378.324 352.327 377.915 352.505 377.369C352.684 376.818 352.816 376.17 352.972 375.405L352.985 375.339C351.555 372.416 350.41 369.577 348.05 365.318C345.655 360.996 342.017 355.236 335.606 346.573L335.55 346.495L335.525 346.401C335.527 346.407 335.517 346.372 335.451 346.279C335.39 346.192 335.304 346.085 335.189 345.951C334.969 345.692 334.65 345.34 334.323 344.927C333.66 344.09 332.908 342.938 332.523 341.396L333.413 340.981C335.167 343.396 336.825 344.914 339.12 345.8C341.406 346.683 344.376 346.961 348.799 346.782C349.499 346.103 349.648 345.67 349.617 345.319C349.599 345.115 349.517 344.883 349.347 344.592C349.19 344.325 348.973 344.033 348.698 343.689C344.3 341.962 341.176 338.243 335.646 331.122C331.56 327.577 326.983 325.837 318.03 322.81L299.021 331.096ZM35.9785 321.809C24.7409 325.339 20.1333 328.032 17.8809 330.112C13.152 336.75 9.68072 338.876 2.87305 343.629C2.32267 344.459 2.07845 344.995 2.06152 345.439C2.0466 345.831 2.21145 346.246 2.78125 346.836C4.66126 347.44 6.1256 347.757 7.61914 347.77C9.13968 347.784 10.7248 347.483 12.8398 346.803C14.7297 346.046 16.0477 345.315 17.1982 344.419C18.3567 343.518 19.3646 342.436 20.6279 340.951L21.4033 341.582L17.9219 346.057C15.9164 349.375 13.9079 352.614 12.0098 355.669C10.1064 358.733 8.3149 361.61 6.74805 364.203C5.18063 366.796 3.84212 369.097 2.84277 371.005C1.86738 372.868 1.24101 374.316 1.02051 375.285C1.25088 376.551 1.61213 377.232 2.19727 377.636C2.7488 378.017 3.57796 378.213 4.90918 378.262L5.51172 378.275L5.59766 378.276L5.67773 378.304C5.67839 378.304 5.80153 378.332 6.13965 378.111C6.4598 377.902 6.8659 377.538 7.35645 377.009C8.33332 375.956 9.56953 374.332 11.0332 372.231C13.9574 368.034 17.7385 362.005 22.084 355.011L22.9531 355.504C19.3672 362.437 16.3053 368.319 14.1084 372.652C13.0099 374.818 12.1296 376.593 11.5098 377.915C11.1997 378.576 10.9571 379.119 10.7852 379.54C10.626 379.929 10.5424 380.18 10.5117 380.315C10.5569 381.23 10.6285 381.956 10.7764 382.532C10.9257 383.113 11.1431 383.503 11.4551 383.774C11.7692 384.047 12.2334 384.246 12.9658 384.338C13.6695 384.427 14.5864 384.412 15.7881 384.293C16.3708 383.738 17.0306 382.844 17.8203 381.568C18.657 380.216 19.618 378.479 20.7773 376.349C23.0933 372.094 26.1808 366.304 30.5811 359.016L31.4688 359.47C28.7463 365.895 26.5286 371.552 24.9785 375.953C24.2033 378.153 23.5969 380.036 23.1777 381.54C22.7642 383.023 22.5442 384.103 22.5107 384.752C22.6966 386.115 23.0014 386.851 23.5605 387.268C24.1431 387.703 25.13 387.892 26.9629 387.776C27.6996 387.681 28.2105 387.289 28.8047 386.432C29.1083 385.994 29.4204 385.455 29.7891 384.796C30.149 384.154 30.5603 383.404 31.0547 382.561L39.043 362.093L39.9746 362.457L32.0557 382.748C32.5375 383.699 33.1086 384.262 33.7969 384.52C34.517 384.79 35.4575 384.763 36.7256 384.339C40.3079 380.318 42.4403 376.014 46.5244 360.15L46.541 360.087L46.5723 360.031C52.4682 349.471 54.1233 342.868 55.4707 330.581L35.9785 321.809Z" fill="black"/>
<path id="Head" d="M196.009 85.2749C195.362 89.1535 195.734 92.3143 197.009 98.7749L188.509 65.7749C187.034 61.7591 186.171 60.2773 184.509 60.2749H168.009C165.518 60.0275 164.646 61.6012 163.509 65.7749L155.009 98.7749C156.201 92.2757 157.046 88.2736 156.509 85.2749C155.821 82.8503 154.925 81.441 151.782 78.7749C148.957 76.3457 148.07 74.1524 147.509 69.0249L146.509 63.7749C144.289 63.6051 143.364 62.8349 142.509 59.7749L140.009 46.7749C140.162 43.5782 141.008 42.7852 145.509 43.7749C145.509 43.7749 145.353 32.2146 147.509 25.2749C149.322 19.4374 150.529 15.9146 154.509 11.2749C158.81 6.25976 162.167 3.63037 168.509 1.7749C174.318 0.0750345 178.199 0.0750345 184.009 1.7749C190.35 3.63037 193.707 6.25976 198.009 11.2749C201.988 15.9146 203.268 19.4153 205.009 25.2749C207.073 32.2232 206.509 43.7749 206.509 43.7749C210.814 43.3285 212.17 43.872 212.009 46.7749L209.509 59.7749C208.787 62.3864 207.884 63.3453 205.009 63.7749L204.509 69.0249C204.118 74.519 203.603 76.9324 200.736 78.7749C197.522 81.4483 196.359 82.7593 196.009 85.2749Z" fill="#D9D9D9"/>
<path id="Head (Stroke)" d="M176.259 0C178.743 0 181.215 0.436398 184.149 1.29492C187.361 2.23468 189.838 3.37743 192.061 4.93066C194.279 6.48119 196.226 8.42739 198.389 10.9492C202.436 15.6678 203.74 19.248 205.488 25.1328C206.54 28.6722 206.915 33.3516 207.032 37.1152C207.091 39.0032 207.085 40.6726 207.064 41.8701C207.055 42.4347 207.04 42.8946 207.029 43.2236C207.87 43.1499 208.602 43.1186 209.23 43.1475C209.993 43.1825 210.643 43.3064 211.163 43.5752C211.702 43.8538 212.075 44.275 212.29 44.8408C212.497 45.3871 212.55 46.0461 212.508 46.8027L212.506 46.8359L212.5 46.8691L210 59.8691L209.996 59.8887L209.991 59.9082C209.624 61.2376 209.186 62.2442 208.404 62.9619C207.69 63.6173 206.744 63.9781 205.47 64.2041L205.007 69.0723C204.812 71.8069 204.583 73.845 204.022 75.4355C203.452 77.0545 202.54 78.2008 201.034 79.1758C199.438 80.5044 198.393 81.4641 197.698 82.3848C197.017 83.2879 196.668 84.1634 196.504 85.3438L196.502 85.3574C195.871 89.1398 196.225 92.2237 197.499 98.6777L196.524 98.8994L188.031 65.9268C187.295 63.9241 186.733 62.6151 186.169 61.8057C185.891 61.4068 185.629 61.1546 185.371 61C185.119 60.8492 184.843 60.7749 184.508 60.7744H167.984L167.959 60.7725C167.39 60.716 166.953 60.7678 166.599 60.9082C166.248 61.0468 165.94 61.2863 165.649 61.6689C165.046 62.4635 164.563 63.8042 163.992 65.8984L163.993 65.8994L155.493 98.8994L154.517 98.6846C155.115 95.4251 155.621 92.8176 155.912 90.6455C156.201 88.4862 156.27 86.8051 156.021 85.3887C155.688 84.2233 155.314 83.3275 154.658 82.4053C153.991 81.4671 153.019 80.4798 151.458 79.1562L151.455 79.1543C150.001 77.9037 149.02 76.6891 148.338 75.1104C147.664 73.5511 147.295 71.666 147.014 69.1006L146.087 64.2354C145.106 64.1207 144.304 63.852 143.649 63.2178C142.933 62.5236 142.459 61.4542 142.027 59.9092L142.021 59.8896L142.018 59.8691L139.518 46.8691L139.507 46.8105L139.51 46.751C139.549 45.9403 139.632 45.2351 139.826 44.6592C140.025 44.0695 140.348 43.5888 140.872 43.2754C141.382 42.9707 142.022 42.8612 142.782 42.877C143.404 42.8899 144.14 42.9899 145.006 43.1611C145.006 42.8357 145.01 42.3918 145.019 41.8525C145.038 40.6547 145.085 38.9846 145.201 37.0967C145.432 33.3324 145.935 28.6572 147.031 25.127C148.849 19.275 150.08 15.6697 154.129 10.9492C156.292 8.42739 158.238 6.48119 160.457 4.93066C162.68 3.37743 165.156 2.23468 168.368 1.29492C171.302 0.436399 173.774 4.4679e-07 176.259 0ZM176.259 1C173.898 1 171.525 1.41358 168.649 2.25488C165.52 3.17059 163.147 4.27092 161.03 5.75C158.91 7.23174 157.027 9.10756 154.889 11.6006C150.978 16.1595 149.795 19.6001 147.986 25.4229C146.927 28.8322 146.429 33.4075 146.199 37.1582C146.085 39.0276 146.038 40.6817 146.019 41.8682C146.009 42.4613 146.006 42.9374 146.006 43.2646C146.006 43.4281 146.007 43.5544 146.008 43.6396C146.008 43.6823 146.009 43.7148 146.009 43.7363V43.7686L146.018 44.3984L145.401 44.2637C144.288 44.0188 143.428 43.8908 142.762 43.877C142.094 43.863 141.668 43.9645 141.385 44.1338C141.116 44.2945 140.917 44.5505 140.773 44.9775C140.629 45.4076 140.55 45.9824 140.511 46.7412L142.996 59.6602C143.417 61.1627 143.832 62.0038 144.345 62.5C144.776 62.9177 145.326 63.1366 146.168 63.2393L146.547 63.2764L146.929 63.3057L148 68.9316L148.004 68.9512L148.006 68.9707C148.285 71.5218 148.641 73.2917 149.256 74.7139C149.864 76.1203 150.738 77.2172 152.107 78.3955C153.689 79.7373 154.735 80.7874 155.474 81.8262C156.126 82.7439 156.526 83.636 156.854 84.6807L156.99 85.1387L156.996 85.1621L157.001 85.1865C157.181 86.1888 157.211 87.2862 157.134 88.5186L163.024 65.6504L163.026 65.6436L163.237 64.8906C163.726 63.1944 164.206 61.9157 164.853 61.0645C165.233 60.5633 165.681 60.1958 166.23 59.9785C166.765 59.767 167.359 59.7129 168.021 59.7744H184.51C185.005 59.7752 185.462 59.8885 185.885 60.1416C186.302 60.391 186.659 60.7608 186.989 61.2344C187.558 62.051 188.091 63.251 188.708 64.8789L188.979 65.6025L188.986 65.626L188.993 65.6504L195.215 89.8057C195.158 88.2198 195.254 86.7635 195.516 85.1924C195.702 83.8637 196.111 82.8292 196.899 81.7832C197.675 80.7553 198.811 79.7261 200.416 78.3906L200.439 78.3711L200.466 78.3545C201.809 77.491 202.581 76.5141 203.079 75.1025C203.59 73.6546 203.814 71.7425 204.01 68.9893L204.011 68.9775L204.548 63.3379L204.935 63.2803C206.336 63.0709 207.162 62.7441 207.729 62.2246C208.294 61.7055 208.668 60.9321 209.021 59.6631L211.511 46.7139C211.546 46.0365 211.489 45.5487 211.355 45.1963C211.227 44.858 211.022 44.6272 210.704 44.4629C210.367 44.2889 209.882 44.1785 209.185 44.1465C208.491 44.1146 207.628 44.1618 206.561 44.2725L205.981 44.332L206.01 43.751V43.7432C206.01 43.7379 206.01 43.7295 206.011 43.7188C206.012 43.6972 206.013 43.6646 206.015 43.6221C206.018 43.537 206.024 43.411 206.029 43.248C206.041 42.9212 206.054 42.4451 206.064 41.8525C206.085 40.6671 206.091 39.0146 206.033 37.1465C205.916 33.3973 205.542 28.8259 204.529 25.417C202.796 19.5828 201.541 16.1614 197.629 11.6006C195.491 9.10756 193.608 7.23174 191.487 5.75C189.371 4.27092 186.998 3.17059 183.868 2.25488C180.993 1.41358 178.619 1 176.259 1Z" fill="black"/>
</g>
</svg>
